<svg width="1440" height="1024" viewBox="0 0 1440 1024" fill="none" xmlns="http://www.w3.org/2000/svg">
<rect width="1440" height="1024" fill="#141727"/>
<path d="M253.092 191.544C253.679 189.677 256.321 189.677 256.908 191.544L262.517 209.391C262.922 210.68 261.96 211.991 260.609 211.991H249.391C248.04 211.991 247.078 210.68 247.483 209.391L253.092 191.544Z" fill="#FFFDC1"/>
<path d="M256.922 232.315C256.367 234.245 253.633 234.245 253.078 232.315L247.827 214.053C247.46 212.774 248.419 211.5 249.749 211.5H260.251C261.581 211.5 262.54 212.774 262.173 214.053L256.922 232.315Z" fill="#FFFDC1"/>
<path d="M238.837 212.865C237.927 212.561 237.927 211.273 238.837 210.968L247.638 208.027C248.285 207.81 248.955 208.292 248.955 208.975V214.858C248.955 215.541 248.285 216.023 247.638 215.807L238.837 212.865Z" fill="#FFFDC1"/>
<path d="M271.163 210.968C272.073 211.273 272.073 212.561 271.163 212.865L262.362 215.807C261.715 216.023 261.045 215.541 261.045 214.858V208.975C261.045 208.292 261.715 207.81 262.362 208.027L271.163 210.968Z" fill="#FFFDC1"/>
<path d="M1167.09 52.5442C1167.68 50.6771 1170.32 50.6771 1170.91 52.5442L1176.52 70.3915C1176.92 71.68 1175.96 72.9911 1174.61 72.9911H1163.39C1162.04 72.9911 1161.08 71.68 1161.48 70.3915L1167.09 52.5442Z" fill="#FFFDC1"/>
<path d="M1170.92 93.3147C1170.37 95.2445 1167.63 95.2445 1167.08 93.3147L1161.83 75.0526C1161.46 73.7743 1162.42 72.5 1163.75 72.5H1174.25C1175.58 72.5 1176.54 73.7743 1176.17 75.0526L1170.92 93.3147Z" fill="#FFFDC1"/>
<path d="M1152.84 73.865C1151.93 73.5607 1151.93 72.2726 1152.84 71.9682L1161.64 69.0267C1162.29 68.8102 1162.95 69.2922 1162.95 69.9751V75.8581C1162.95 76.541 1162.29 77.023 1161.64 76.8065L1152.84 73.865Z" fill="#FFFDC1"/>
<path d="M1185.16 71.9682C1186.07 72.2726 1186.07 73.5607 1185.16 73.865L1176.36 76.8065C1175.71 77.023 1175.05 76.541 1175.05 75.8581V69.9751C1175.05 69.2922 1175.71 68.8102 1176.36 69.0267L1185.16 71.9682Z" fill="#FFFDC1"/>
<path d="M870.092 508.544C870.679 506.677 873.321 506.677 873.908 508.544L879.517 526.391C879.922 527.68 878.96 528.991 877.609 528.991H866.391C865.04 528.991 864.078 527.68 864.483 526.391L870.092 508.544Z" fill="#FFFDC1"/>
<path d="M873.922 549.315C873.367 551.245 870.633 551.245 870.078 549.315L864.827 531.053C864.46 529.774 865.419 528.5 866.749 528.5H877.251C878.581 528.5 879.54 529.774 879.173 531.053L873.922 549.315Z" fill="#FFFDC1"/>
<path d="M855.837 529.865C854.927 529.561 854.927 528.273 855.837 527.968L864.638 525.027C865.285 524.81 865.955 525.292 865.955 525.975V531.858C865.955 532.541 865.285 533.023 864.638 532.807L855.837 529.865Z" fill="#FFFDC1"/>
<path d="M888.163 527.968C889.073 528.273 889.073 529.561 888.163 529.865L879.362 532.807C878.715 533.023 878.045 532.541 878.045 531.858V525.975C878.045 525.292 878.715 524.81 879.362 525.027L888.163 527.968Z" fill="#FFFDC1"/>
<path d="M1419.09 65.5442C1419.68 63.6771 1422.32 63.6771 1422.91 65.5442L1428.52 83.3915C1428.92 84.68 1427.96 85.9911 1426.61 85.9911H1415.39C1414.04 85.9911 1413.08 84.68 1413.48 83.3915L1419.09 65.5442Z" fill="#FFFDC1"/>
<path d="M1422.92 106.315C1422.37 108.245 1419.63 108.245 1419.08 106.315L1413.83 88.0526C1413.46 86.7743 1414.42 85.5 1415.75 85.5H1426.25C1427.58 85.5 1428.54 86.7743 1428.17 88.0526L1422.92 106.315Z" fill="#FFFDC1"/>
<path d="M1404.84 86.865C1403.93 86.5607 1403.93 85.2726 1404.84 84.9682L1413.64 82.0267C1414.29 81.8102 1414.95 82.2922 1414.95 82.9751V88.8581C1414.95 89.541 1414.29 90.023 1413.64 89.8065L1404.84 86.865Z" fill="#FFFDC1"/>
<path d="M1437.16 84.9682C1438.07 85.2726 1438.07 86.5607 1437.16 86.865L1428.36 89.8065C1427.71 90.023 1427.05 89.541 1427.05 88.8581V82.9751C1427.05 82.2922 1427.71 81.8102 1428.36 82.0267L1437.16 84.9682Z" fill="#FFFDC1"/>
<path d="M400.092 357.544C400.679 355.677 403.321 355.677 403.908 357.544L409.517 375.391C409.922 376.68 408.96 377.991 407.609 377.991H396.391C395.04 377.991 394.078 376.68 394.483 375.391L400.092 357.544Z" fill="#FFFDC1"/>
<path d="M403.922 398.315C403.367 400.245 400.633 400.245 400.078 398.315L394.827 380.053C394.46 378.774 395.419 377.5 396.749 377.5H407.251C408.581 377.5 409.54 378.774 409.173 380.053L403.922 398.315Z" fill="#FFFDC1"/>
<path d="M385.837 378.865C384.927 378.561 384.927 377.273 385.837 376.968L394.638 374.027C395.285 373.81 395.955 374.292 395.955 374.975V380.858C395.955 381.541 395.285 382.023 394.638 381.807L385.837 378.865Z" fill="#FFFDC1"/>
<path d="M418.163 376.968C419.073 377.273 419.073 378.561 418.163 378.865L409.362 381.807C408.715 382.023 408.045 381.541 408.045 380.858V374.975C408.045 374.292 408.715 373.81 409.362 374.027L418.163 376.968Z" fill="#FFFDC1"/>
<path d="M1104.09 813.544C1104.68 811.677 1107.32 811.677 1107.91 813.544L1113.52 831.391C1113.92 832.68 1112.96 833.991 1111.61 833.991H1100.39C1099.04 833.991 1098.08 832.68 1098.48 831.391L1104.09 813.544Z" fill="#FFFDC1"/>
<path d="M1107.92 854.315C1107.37 856.245 1104.63 856.245 1104.08 854.315L1098.83 836.053C1098.46 834.774 1099.42 833.5 1100.75 833.5H1111.25C1112.58 833.5 1113.54 834.774 1113.17 836.053L1107.92 854.315Z" fill="#FFFDC1"/>
<path d="M1089.84 834.865C1088.93 834.561 1088.93 833.273 1089.84 832.968L1098.64 830.027C1099.29 829.81 1099.95 830.292 1099.95 830.975V836.858C1099.95 837.541 1099.29 838.023 1098.64 837.807L1089.84 834.865Z" fill="#FFFDC1"/>
<path d="M1122.16 832.968C1123.07 833.273 1123.07 834.561 1122.16 834.865L1113.36 837.807C1112.71 838.023 1112.05 837.541 1112.05 836.858V830.975C1112.05 830.292 1112.71 829.81 1113.36 830.027L1122.16 832.968Z" fill="#FFFDC1"/>
<path d="M110.092 786.544C110.679 784.677 113.321 784.677 113.908 786.544L119.517 804.391C119.922 805.68 118.96 806.991 117.609 806.991H106.391C105.04 806.991 104.078 805.68 104.483 804.391L110.092 786.544Z" fill="#FFFDC1"/>
<path d="M113.922 827.315C113.367 829.245 110.633 829.245 110.078 827.315L104.827 809.053C104.46 807.774 105.419 806.5 106.749 806.5H117.251C118.581 806.5 119.54 807.774 119.173 809.053L113.922 827.315Z" fill="#FFFDC1"/>
<path d="M95.8374 807.865C94.9268 807.561 94.9268 806.273 95.8374 805.968L104.638 803.027C105.285 802.81 105.955 803.292 105.955 803.975V809.858C105.955 810.541 105.285 811.023 104.638 810.807L95.8374 807.865Z" fill="#FFFDC1"/>
<path d="M128.163 805.968C129.073 806.273 129.073 807.561 128.163 807.865L119.362 810.807C118.715 811.023 118.045 810.541 118.045 809.858V803.975C118.045 803.292 118.715 802.81 119.362 803.027L128.163 805.968Z" fill="#FFFDC1"/>
</svg>
