<svg width="361" height="572" viewBox="0 0 361 572" fill="none" xmlns="http://www.w3.org/2000/svg">
<rect width="361" height="572" fill="#5A7C19"/>
<g filter="url(#filter0_d_466_777)">
<path d="M168.95 216.411H288.926" stroke="#DEDEDE" stroke-width="7"/>
</g>
<g filter="url(#filter1_d_466_777)">
<path d="M111.086 373.415H231.061" stroke="#DEDEDE" stroke-width="7"/>
</g>
<g filter="url(#filter2_d_466_777)">
<path d="M280.963 499.654H313.894" stroke="#DEDEDE" stroke-width="7"/>
</g>
<path d="M196.556 382.962V450.855H297.42V495.411" stroke="#DEDEDE" stroke-width="3"/>
<path d="M297.42 508.141V529.357" stroke="#DEDEDE" stroke-width="3"/>
<path d="M247.519 462.525V493.289" stroke="#DEDEDE" stroke-width="3"/>
<path d="M248.58 506.019V538.905H207.173V506.019H176.383" stroke="#DEDEDE" stroke-width="3"/>
<g filter="url(#filter3_d_466_777)">
<path d="M231.062 499.654H263.992" stroke="#DEDEDE" stroke-width="7"/>
</g>
<g filter="url(#filter4_d_466_777)">
<path d="M168.95 223.836H288.926" stroke="#DEDEDE" stroke-width="7"/>
</g>
<g filter="url(#filter5_d_466_777)">
<rect x="36.2344" y="187.238" width="89.1852" height="63.6502" rx="11" fill="#58585B"/>
</g>
<g filter="url(#filter6_d_466_777)">
<rect x="242.21" y="281.652" width="57.3333" height="68.424" rx="3" fill="#58585B"/>
</g>
<g filter="url(#filter7_d_466_777)">
<rect x="161.519" y="101.84" width="138.025" height="80.6236" rx="14" fill="#C0BFBF"/>
</g>
<g filter="url(#filter8_d_466_777)">
<path d="M314.407 106.084V178.221H354.753" stroke="#FFD375" stroke-width="10"/>
</g>
<g filter="url(#filter9_d_466_777)">
<rect x="256.013" y="19.095" width="81.7531" height="42.4335" rx="21" fill="#6E7072"/>
</g>
<g filter="url(#filter10_d_466_777)">
<rect x="36.2344" width="33.9753" height="40.3118" rx="5" fill="black"/>
</g>
<g filter="url(#filter11_d_466_777)">
<rect x="111.617" y="457.221" width="62.1111" height="85.9278" fill="#4E4F4B"/>
<rect x="121.11" y="466.707" width="42.5926" height="65.8935" fill="#79753D" stroke="black" stroke-width="2"/>
<path d="M126.481 465.177V456.69" stroke="black" stroke-width="5"/>
<path d="M150.37 465.707V457.221" stroke="black" stroke-width="5"/>
<path d="M158.333 465.707V457.221" stroke="black" stroke-width="5"/>
<path d="M126.481 465.177V456.69" stroke="black" stroke-width="5"/>
<path d="M126.481 465.177V456.69" stroke="black" stroke-width="5"/>
<path d="M126.481 465.177V456.69" stroke="black" stroke-width="5"/>
<path d="M134.444 465.177V456.69" stroke="black" stroke-width="5"/>
<path d="M141.876 465.707V457.221" stroke="black" stroke-width="5"/>
<path d="M165.064 472.81L173.558 472.834" stroke="black" stroke-width="5"/>
<path d="M164.467 496.678L172.961 496.701" stroke="black" stroke-width="5"/>
<path d="M164.445 504.634L172.938 504.658" stroke="black" stroke-width="5"/>
<path d="M165.064 472.81L173.558 472.834" stroke="black" stroke-width="5"/>
<path d="M165.064 472.81L173.558 472.834" stroke="black" stroke-width="5"/>
<path d="M165.064 472.81L173.558 472.834" stroke="black" stroke-width="5"/>
<path d="M165.042 480.767L173.536 480.79" stroke="black" stroke-width="5"/>
<path d="M164.491 488.191L172.984 488.215" stroke="black" stroke-width="5"/>
<path d="M165.064 504.105L173.558 504.129" stroke="black" stroke-width="5"/>
<path d="M164.467 527.973L172.961 527.996" stroke="black" stroke-width="5"/>
<path d="M165.064 504.105L173.558 504.129" stroke="black" stroke-width="5"/>
<path d="M165.064 504.105L173.558 504.129" stroke="black" stroke-width="5"/>
<path d="M165.064 504.105L173.558 504.129" stroke="black" stroke-width="5"/>
<path d="M165.042 512.061L173.536 512.085" stroke="black" stroke-width="5"/>
<path d="M164.491 519.486L172.984 519.509" stroke="black" stroke-width="5"/>
<path d="M111.108 487.983L119.602 488.007" stroke="black" stroke-width="5"/>
<path d="M111.086 495.94L119.58 495.963" stroke="black" stroke-width="5"/>
<path d="M111.683 472.072L120.177 472.096" stroke="black" stroke-width="5"/>
<path d="M111.132 479.497L119.626 479.52" stroke="black" stroke-width="5"/>
<path d="M111.705 495.411L120.199 495.434" stroke="black" stroke-width="5"/>
<path d="M111.108 519.278L119.602 519.302" stroke="black" stroke-width="5"/>
<path d="M111.086 527.234L119.58 527.258" stroke="black" stroke-width="5"/>
<path d="M111.705 495.411L120.199 495.434" stroke="black" stroke-width="5"/>
<path d="M111.705 495.411L120.199 495.434" stroke="black" stroke-width="5"/>
<path d="M111.705 495.411L120.199 495.434" stroke="black" stroke-width="5"/>
<path d="M111.683 503.367L120.177 503.391" stroke="black" stroke-width="5"/>
<path d="M111.132 510.791L119.626 510.815" stroke="black" stroke-width="5"/>
<path d="M126.481 542.618V534.131" stroke="black" stroke-width="5"/>
<path d="M150.37 543.148V534.662" stroke="black" stroke-width="5"/>
<path d="M158.333 543.148V534.662" stroke="black" stroke-width="5"/>
<path d="M126.481 542.618V534.131" stroke="black" stroke-width="5"/>
<path d="M126.481 542.618V534.131" stroke="black" stroke-width="5"/>
<path d="M126.481 542.618V534.131" stroke="black" stroke-width="5"/>
<path d="M134.444 542.618V534.131" stroke="black" stroke-width="5"/>
<path d="M141.876 543.148V534.662" stroke="black" stroke-width="5"/>
</g>
<g filter="url(#filter12_d_466_777)">
<rect x="36.7656" y="458.281" width="62.1111" height="85.9278" fill="#4E4F4B"/>
<rect x="46.2588" y="467.768" width="42.5926" height="65.8935" fill="#79753D" stroke="black" stroke-width="2"/>
<path d="M51.6299 466.238V457.751" stroke="black" stroke-width="5"/>
<path d="M75.5186 466.768V458.281" stroke="black" stroke-width="5"/>
<path d="M83.4814 466.768V458.281" stroke="black" stroke-width="5"/>
<path d="M51.6299 466.238V457.751" stroke="black" stroke-width="5"/>
<path d="M51.6299 466.238V457.751" stroke="black" stroke-width="5"/>
<path d="M51.6299 466.238V457.751" stroke="black" stroke-width="5"/>
<path d="M59.5928 466.238V457.751" stroke="black" stroke-width="5"/>
<path d="M67.0244 466.768V458.281" stroke="black" stroke-width="5"/>
<path d="M90.2123 473.871L98.7061 473.895" stroke="black" stroke-width="5"/>
<path d="M89.6156 497.739L98.1094 497.762" stroke="black" stroke-width="5"/>
<path d="M89.5931 505.695L98.0869 505.719" stroke="black" stroke-width="5"/>
<path d="M90.2123 473.871L98.7061 473.895" stroke="black" stroke-width="5"/>
<path d="M90.2123 473.871L98.7061 473.895" stroke="black" stroke-width="5"/>
<path d="M90.2123 473.871L98.7061 473.895" stroke="black" stroke-width="5"/>
<path d="M90.1908 481.828L98.6846 481.851" stroke="black" stroke-width="5"/>
<path d="M89.639 489.252L98.1328 489.275" stroke="black" stroke-width="5"/>
<path d="M90.2123 505.166L98.7061 505.189" stroke="black" stroke-width="5"/>
<path d="M89.6156 529.033L98.1094 529.057" stroke="black" stroke-width="5"/>
<path d="M90.2123 505.166L98.7061 505.189" stroke="black" stroke-width="5"/>
<path d="M90.2123 505.166L98.7061 505.189" stroke="black" stroke-width="5"/>
<path d="M90.2123 505.166L98.7061 505.189" stroke="black" stroke-width="5"/>
<path d="M90.1908 513.122L98.6846 513.146" stroke="black" stroke-width="5"/>
<path d="M89.639 520.547L98.1328 520.57" stroke="black" stroke-width="5"/>
<path d="M36.2562 489.044L44.75 489.068" stroke="black" stroke-width="5"/>
<path d="M36.2347 497L44.7285 497.024" stroke="black" stroke-width="5"/>
<path d="M36.8314 473.133L45.3252 473.157" stroke="black" stroke-width="5"/>
<path d="M36.2796 480.558L44.7734 480.581" stroke="black" stroke-width="5"/>
<path d="M36.8529 496.472L45.3467 496.495" stroke="black" stroke-width="5"/>
<path d="M36.2562 520.339L44.75 520.362" stroke="black" stroke-width="5"/>
<path d="M36.2347 528.295L44.7285 528.319" stroke="black" stroke-width="5"/>
<path d="M36.8529 496.472L45.3467 496.495" stroke="black" stroke-width="5"/>
<path d="M36.8529 496.472L45.3467 496.495" stroke="black" stroke-width="5"/>
<path d="M36.8529 496.472L45.3467 496.495" stroke="black" stroke-width="5"/>
<path d="M36.8314 504.428L45.3252 504.451" stroke="black" stroke-width="5"/>
<path d="M36.2796 511.852L44.7734 511.876" stroke="black" stroke-width="5"/>
<path d="M51.6299 543.679V535.192" stroke="black" stroke-width="5"/>
<path d="M75.5186 544.209V535.722" stroke="black" stroke-width="5"/>
<path d="M83.4814 544.209V535.722" stroke="black" stroke-width="5"/>
<path d="M51.6299 543.679V535.192" stroke="black" stroke-width="5"/>
<path d="M51.6299 543.679V535.192" stroke="black" stroke-width="5"/>
<path d="M51.6299 543.679V535.192" stroke="black" stroke-width="5"/>
<path d="M59.5928 543.679V535.192" stroke="black" stroke-width="5"/>
<path d="M67.0244 544.209V535.722" stroke="black" stroke-width="5"/>
</g>
<g filter="url(#filter13_d_466_777)">
<path d="M21.3701 464.646V553.757H348.382V464.646" stroke="#FFD375" stroke-width="10"/>
</g>
<path d="M179.568 184.585V299.156" stroke="#DEDEDE" stroke-width="3"/>
<path d="M107.37 252.479V359.623H154.086V451.916" stroke="#DEDEDE" stroke-width="3"/>
<path d="M94.6299 251.418V373.414" stroke="#DEDEDE" stroke-width="3"/>
<path d="M52.1604 253.54V299.156H25.6172V336.285" stroke="#DEDEDE" stroke-width="3"/>
<path d="M67.0244 253.54V454.038" stroke="#DEDEDE" stroke-width="3"/>
<path d="M105.247 183.525V67.8936" stroke="#DEDEDE" stroke-width="3"/>
<path d="M20.3086 247.175V165.49H45.7901V64.7109H20.3086V13.7908" stroke="#DEDEDE" stroke-width="3"/>
<path d="M179.568 99.7185V64.7109" stroke="#DEDEDE" stroke-width="3"/>
<path d="M201.864 100.779V28.6426" stroke="#DEDEDE" stroke-width="3"/>
<path d="M279.37 62.5894V82.7452H347.321" stroke="#DEDEDE" stroke-width="3"/>
<path d="M277.247 183.525V279" stroke="#DEDEDE" stroke-width="3"/>
<path d="M247.519 184.585V268.392H219.914V363.867" stroke="#DEDEDE" stroke-width="3"/>
<path d="M219.914 382.962V424.335H318.655" stroke="#DEDEDE" stroke-width="3"/>
<path d="M289.191 182.464V207.394H342.278" stroke="#DEDEDE" stroke-width="3"/>
<path d="M161.253 160.186H130.463V55.959H90.6484V11.9343" stroke="#DEDEDE" stroke-width="3"/>
<path d="M234.777 99.9838V41.3726H253.888" stroke="#DEDEDE" stroke-width="3"/>
<path d="M264.506 353.259V367.049H335.642V461.464" stroke="#DEDEDE" stroke-width="3"/>
<path d="M299.543 304.46H321.839V225.958" stroke="#DEDEDE" stroke-width="3"/>
<path d="M29.4259 336.285C29.4259 338.385 27.7219 340.089 25.6172 340.089C23.5126 340.089 21.8086 338.385 21.8086 336.285C21.8086 334.185 23.5126 332.481 25.6172 332.481C27.7219 332.481 29.4259 334.185 29.4259 336.285Z" fill="#5A7C19" stroke="#D9D9D9" stroke-width="3"/>
<path d="M42.1671 433.617C42.1671 434.984 41.0573 436.095 39.6856 436.095C38.3139 436.095 37.2041 434.984 37.2041 433.617C37.2041 432.249 38.3139 431.139 39.6856 431.139C41.0573 431.139 42.1671 432.249 42.1671 433.617Z" fill="#FFD375" stroke="#575757" stroke-width="3"/>
<path d="M65.5245 55.4288C65.5245 56.7963 64.4147 57.907 63.043 57.907C61.6713 57.907 60.5615 56.7963 60.5615 55.4288C60.5615 54.0614 61.6713 52.9507 63.043 52.9507C64.4147 52.9507 65.5245 54.0614 65.5245 55.4288Z" fill="#FFD375" stroke="#575757" stroke-width="3"/>
<path d="M248.673 15.1168C248.673 16.4843 247.563 17.5949 246.191 17.5949C244.82 17.5949 243.71 16.4843 243.71 15.1168C243.71 13.7494 244.82 12.6387 246.191 12.6387C247.563 12.6387 248.673 13.7494 248.673 15.1168Z" fill="#FFD375" stroke="#575757" stroke-width="3"/>
<path d="M222.66 194.929C222.66 196.296 221.55 197.407 220.179 197.407C218.807 197.407 217.697 196.296 217.697 194.929C217.697 193.561 218.807 192.451 220.179 192.451C221.55 192.451 222.66 193.561 222.66 194.929Z" fill="#FFD375" stroke="#575757" stroke-width="3"/>
<path d="M200.364 194.929C200.364 196.296 199.255 197.407 197.883 197.407C196.511 197.407 195.401 196.296 195.401 194.929C195.401 193.561 196.511 192.451 197.883 192.451C199.255 192.451 200.364 193.561 200.364 194.929Z" fill="#FFD375" stroke="#575757" stroke-width="3"/>
<path d="M351.13 465.442C351.13 466.809 350.02 467.92 348.648 467.92C347.277 467.92 346.167 466.809 346.167 465.442C346.167 464.075 347.277 462.964 348.648 462.964C350.02 462.964 351.13 464.075 351.13 465.442Z" fill="#FFD375" stroke="#575757" stroke-width="3"/>
<path d="M351.13 554.022C351.13 555.389 350.02 556.5 348.648 556.5C347.277 556.5 346.167 555.389 346.167 554.022C346.167 552.654 347.277 551.544 348.648 551.544C350.02 551.544 351.13 552.654 351.13 554.022Z" fill="#FFD375" stroke="#575757" stroke-width="3"/>
<path d="M24.1173 554.022C24.1173 555.389 23.0075 556.5 21.6358 556.5C20.2641 556.5 19.1543 555.389 19.1543 554.022C19.1543 552.654 20.2641 551.544 21.6358 551.544C23.0075 551.544 24.1173 552.654 24.1173 554.022Z" fill="#FFD375" stroke="#575757" stroke-width="3"/>
<path d="M24.1173 465.442C24.1173 466.809 23.0075 467.92 21.6358 467.92C20.2641 467.92 19.1543 466.809 19.1543 465.442C19.1543 464.075 20.2641 462.964 21.6358 462.964C23.0075 462.964 24.1173 464.075 24.1173 465.442Z" fill="#FFD375" stroke="#575757" stroke-width="3"/>
<path d="M317.154 106.349C317.154 107.716 316.045 108.827 314.673 108.827C313.301 108.827 312.191 107.716 312.191 106.349C312.191 104.981 313.301 103.871 314.673 103.871C316.045 103.871 317.154 104.981 317.154 106.349Z" fill="#FFD375" stroke="#575757" stroke-width="3"/>
<path d="M357.5 178.486C357.5 179.853 356.39 180.964 355.019 180.964C353.647 180.964 352.537 179.853 352.537 178.486C352.537 177.118 353.647 176.008 355.019 176.008C356.39 176.008 357.5 177.118 357.5 178.486Z" fill="#FFD375" stroke="#575757" stroke-width="3"/>
<path d="M317.686 178.486C317.686 179.853 316.576 180.964 315.204 180.964C313.832 180.964 312.723 179.853 312.723 178.486C312.723 177.118 313.832 176.008 315.204 176.008C316.576 176.008 317.686 177.118 317.686 178.486Z" fill="#FFD375" stroke="#575757" stroke-width="3"/>
<path d="M126.574 407.626C126.574 408.994 125.464 410.104 124.093 410.104C122.721 410.104 121.611 408.994 121.611 407.626C121.611 406.259 122.721 405.148 124.093 405.148C125.464 405.148 126.574 406.259 126.574 407.626Z" fill="#FFD375" stroke="#575757" stroke-width="3"/>
<path d="M111.179 284.304C111.179 286.404 109.475 288.108 107.37 288.108C105.266 288.108 103.562 286.404 103.562 284.304C103.562 282.204 105.266 280.5 107.37 280.5C109.475 280.5 111.179 282.204 111.179 284.304Z" fill="#5A7C19" stroke="#D9D9D9" stroke-width="3"/>
<path d="M134.537 120.405C134.537 122.505 132.833 124.209 130.729 124.209C128.624 124.209 126.92 122.505 126.92 120.405C126.92 118.305 128.624 116.601 130.729 116.601C132.833 116.601 134.537 118.305 134.537 120.405Z" fill="#5A7C19" stroke="#D9D9D9" stroke-width="3"/>
<path d="M205.673 25.4602C205.673 27.56 203.969 29.2644 201.864 29.2644C199.76 29.2644 198.056 27.56 198.056 25.4602C198.056 23.3604 199.76 21.656 201.864 21.656C203.969 21.656 205.673 23.3604 205.673 25.4602Z" fill="#5A7C19" stroke="#D9D9D9" stroke-width="3"/>
<path d="M325.649 304.46C325.649 306.56 323.945 308.264 321.84 308.264C319.735 308.264 318.031 306.56 318.031 304.46C318.031 302.36 319.735 300.656 321.84 300.656C323.945 300.656 325.649 302.36 325.649 304.46Z" fill="#5A7C19" stroke="#D9D9D9" stroke-width="3"/>
<path d="M292.734 207.394C292.734 209.493 291.03 211.198 288.926 211.198C286.821 211.198 285.117 209.493 285.117 207.394C285.117 205.294 286.821 203.589 288.926 203.589C291.03 203.589 292.734 205.294 292.734 207.394Z" fill="#5A7C19" stroke="#D9D9D9" stroke-width="3"/>
<path d="M347.944 207.394C347.944 209.493 346.24 211.198 344.136 211.198C342.031 211.198 340.327 209.493 340.327 207.394C340.327 205.294 342.031 203.589 344.136 203.589C346.24 203.589 347.944 205.294 347.944 207.394Z" fill="#5A7C19" stroke="#D9D9D9" stroke-width="3"/>
<path d="M353.253 82.7453C353.253 84.8451 351.549 86.5495 349.444 86.5495C347.34 86.5495 345.636 84.8451 345.636 82.7453C345.636 80.6455 347.34 78.9412 349.444 78.9412C351.549 78.9412 353.253 80.6455 353.253 82.7453Z" fill="#5A7C19" stroke="#D9D9D9" stroke-width="3"/>
<path d="M24.1173 13.7908C24.1173 15.8906 22.4133 17.5949 20.3086 17.5949C18.204 17.5949 16.5 15.8906 16.5 13.7908C16.5 11.691 18.204 9.98657 20.3086 9.98657C22.4133 9.98657 24.1173 11.691 24.1173 13.7908Z" fill="#5A7C19" stroke="#D9D9D9" stroke-width="3"/>
<path d="M47.4757 64.7109C47.4757 66.8107 45.7717 68.5151 43.667 68.5151C41.5624 68.5151 39.8584 66.8107 39.8584 64.7109C39.8584 62.6111 41.5624 60.9067 43.667 60.9067C45.7717 60.9067 47.4757 62.6111 47.4757 64.7109Z" fill="#5A7C19" stroke="#D9D9D9" stroke-width="3"/>
<path d="M47.4757 165.49C47.4757 167.59 45.7717 169.295 43.667 169.295C41.5624 169.295 39.8584 167.59 39.8584 165.49C39.8584 163.391 41.5624 161.686 43.667 161.686C45.7717 161.686 47.4757 163.391 47.4757 165.49Z" fill="#5A7C19" stroke="#D9D9D9" stroke-width="3"/>
<path d="M109.056 67.8935C109.056 69.9933 107.352 71.6977 105.247 71.6977C103.142 71.6977 101.438 69.9933 101.438 67.8935C101.438 65.7937 103.142 64.0894 105.247 64.0894C107.352 64.0894 109.056 65.7937 109.056 67.8935Z" fill="#5A7C19" stroke="#D9D9D9" stroke-width="3"/>
<path d="M338.389 369.171C338.389 371.271 336.685 372.975 334.58 372.975C332.475 372.975 330.771 371.271 330.771 369.171C330.771 367.071 332.475 365.367 334.58 365.367C336.685 365.367 338.389 367.071 338.389 369.171Z" fill="#5A7C19" stroke="#D9D9D9" stroke-width="3"/>
<path d="M322.463 424.335C322.463 426.435 320.759 428.139 318.654 428.139C316.55 428.139 314.846 426.435 314.846 424.335C314.846 422.235 316.55 420.531 318.654 420.531C320.759 420.531 322.463 422.235 322.463 424.335Z" fill="#5A7C19" stroke="#D9D9D9" stroke-width="3"/>
<path d="M183.376 297.034C183.376 299.134 181.672 300.838 179.567 300.838C177.463 300.838 175.759 299.134 175.759 297.034C175.759 294.934 177.463 293.23 179.567 293.23C181.672 293.23 183.376 294.934 183.376 297.034Z" fill="#5A7C19" stroke="#D9D9D9" stroke-width="3"/>
<path d="M183.376 245.584C183.376 247.684 181.672 249.388 179.567 249.388C177.463 249.388 175.759 247.684 175.759 245.584C175.759 243.484 177.463 241.78 179.567 241.78C181.672 241.78 183.376 243.484 183.376 245.584Z" fill="#5A7C19" stroke="#D9D9D9" stroke-width="3"/>
<path d="M301.229 529.357C301.229 531.457 299.525 533.162 297.42 533.162C295.315 533.162 293.611 531.457 293.611 529.357C293.611 527.258 295.315 525.553 297.42 525.553C299.525 525.553 301.229 527.258 301.229 529.357Z" fill="#5A7C19" stroke="#D9D9D9" stroke-width="3"/>
<path d="M200.364 403.648C200.364 405.748 198.66 407.453 196.556 407.453C194.451 407.453 192.747 405.748 192.747 403.648C192.747 401.549 194.451 399.844 196.556 399.844C198.66 399.844 200.364 401.549 200.364 403.648Z" fill="#5A7C19" stroke="#D9D9D9" stroke-width="3"/>
<path d="M99.5001 377.658C99.5001 379.758 97.7961 381.462 95.6915 381.462C93.5868 381.462 91.8828 379.758 91.8828 377.658C91.8828 375.558 93.5868 373.854 95.6915 373.854C97.7961 373.854 99.5001 375.558 99.5001 377.658Z" fill="#5A7C19" stroke="#D9D9D9" stroke-width="3"/>
<defs>
<filter id="filter0_d_466_777" x="164.95" y="212.911" width="127.976" height="15" filterUnits="userSpaceOnUse" color-interpolation-filters="sRGB">
<feFlood flood-opacity="0" result="BackgroundImageFix"/>
<feColorMatrix in="SourceAlpha" type="matrix" values="0 0 0 0 0 0 0 0 0 0 0 0 0 0 0 0 0 0 127 0" result="hardAlpha"/>
<feOffset dy="4"/>
<feGaussianBlur stdDeviation="2"/>
<feComposite in2="hardAlpha" operator="out"/>
<feColorMatrix type="matrix" values="0 0 0 0 0 0 0 0 0 0 0 0 0 0 0 0 0 0 0.25 0"/>
<feBlend mode="normal" in2="BackgroundImageFix" result="effect1_dropShadow_466_777"/>
<feBlend mode="normal" in="SourceGraphic" in2="effect1_dropShadow_466_777" result="shape"/>
</filter>
<filter id="filter1_d_466_777" x="107.086" y="369.915" width="127.976" height="15" filterUnits="userSpaceOnUse" color-interpolation-filters="sRGB">
<feFlood flood-opacity="0" result="BackgroundImageFix"/>
<feColorMatrix in="SourceAlpha" type="matrix" values="0 0 0 0 0 0 0 0 0 0 0 0 0 0 0 0 0 0 127 0" result="hardAlpha"/>
<feOffset dy="4"/>
<feGaussianBlur stdDeviation="2"/>
<feComposite in2="hardAlpha" operator="out"/>
<feColorMatrix type="matrix" values="0 0 0 0 0 0 0 0 0 0 0 0 0 0 0 0 0 0 0.25 0"/>
<feBlend mode="normal" in2="BackgroundImageFix" result="effect1_dropShadow_466_777"/>
<feBlend mode="normal" in="SourceGraphic" in2="effect1_dropShadow_466_777" result="shape"/>
</filter>
<filter id="filter2_d_466_777" x="276.963" y="496.154" width="40.9307" height="15" filterUnits="userSpaceOnUse" color-interpolation-filters="sRGB">
<feFlood flood-opacity="0" result="BackgroundImageFix"/>
<feColorMatrix in="SourceAlpha" type="matrix" values="0 0 0 0 0 0 0 0 0 0 0 0 0 0 0 0 0 0 127 0" result="hardAlpha"/>
<feOffset dy="4"/>
<feGaussianBlur stdDeviation="2"/>
<feComposite in2="hardAlpha" operator="out"/>
<feColorMatrix type="matrix" values="0 0 0 0 0 0 0 0 0 0 0 0 0 0 0 0 0 0 0.25 0"/>
<feBlend mode="normal" in2="BackgroundImageFix" result="effect1_dropShadow_466_777"/>
<feBlend mode="normal" in="SourceGraphic" in2="effect1_dropShadow_466_777" result="shape"/>
</filter>
<filter id="filter3_d_466_777" x="227.062" y="496.154" width="40.9307" height="15" filterUnits="userSpaceOnUse" color-interpolation-filters="sRGB">
<feFlood flood-opacity="0" result="BackgroundImageFix"/>
<feColorMatrix in="SourceAlpha" type="matrix" values="0 0 0 0 0 0 0 0 0 0 0 0 0 0 0 0 0 0 127 0" result="hardAlpha"/>
<feOffset dy="4"/>
<feGaussianBlur stdDeviation="2"/>
<feComposite in2="hardAlpha" operator="out"/>
<feColorMatrix type="matrix" values="0 0 0 0 0 0 0 0 0 0 0 0 0 0 0 0 0 0 0.25 0"/>
<feBlend mode="normal" in2="BackgroundImageFix" result="effect1_dropShadow_466_777"/>
<feBlend mode="normal" in="SourceGraphic" in2="effect1_dropShadow_466_777" result="shape"/>
</filter>
<filter id="filter4_d_466_777" x="164.95" y="220.336" width="127.976" height="15" filterUnits="userSpaceOnUse" color-interpolation-filters="sRGB">
<feFlood flood-opacity="0" result="BackgroundImageFix"/>
<feColorMatrix in="SourceAlpha" type="matrix" values="0 0 0 0 0 0 0 0 0 0 0 0 0 0 0 0 0 0 127 0" result="hardAlpha"/>
<feOffset dy="4"/>
<feGaussianBlur stdDeviation="2"/>
<feComposite in2="hardAlpha" operator="out"/>
<feColorMatrix type="matrix" values="0 0 0 0 0 0 0 0 0 0 0 0 0 0 0 0 0 0 0.25 0"/>
<feBlend mode="normal" in2="BackgroundImageFix" result="effect1_dropShadow_466_777"/>
<feBlend mode="normal" in="SourceGraphic" in2="effect1_dropShadow_466_777" result="shape"/>
</filter>
<filter id="filter5_d_466_777" x="32.2344" y="187.238" width="97.1855" height="71.6501" filterUnits="userSpaceOnUse" color-interpolation-filters="sRGB">
<feFlood flood-opacity="0" result="BackgroundImageFix"/>
<feColorMatrix in="SourceAlpha" type="matrix" values="0 0 0 0 0 0 0 0 0 0 0 0 0 0 0 0 0 0 127 0" result="hardAlpha"/>
<feOffset dy="4"/>
<feGaussianBlur stdDeviation="2"/>
<feComposite in2="hardAlpha" operator="out"/>
<feColorMatrix type="matrix" values="0 0 0 0 0 0 0 0 0 0 0 0 0 0 0 0 0 0 0.4 0"/>
<feBlend mode="normal" in2="BackgroundImageFix" result="effect1_dropShadow_466_777"/>
<feBlend mode="normal" in="SourceGraphic" in2="effect1_dropShadow_466_777" result="shape"/>
</filter>
<filter id="filter6_d_466_777" x="238.21" y="281.652" width="65.333" height="76.4241" filterUnits="userSpaceOnUse" color-interpolation-filters="sRGB">
<feFlood flood-opacity="0" result="BackgroundImageFix"/>
<feColorMatrix in="SourceAlpha" type="matrix" values="0 0 0 0 0 0 0 0 0 0 0 0 0 0 0 0 0 0 127 0" result="hardAlpha"/>
<feOffset dy="4"/>
<feGaussianBlur stdDeviation="2"/>
<feComposite in2="hardAlpha" operator="out"/>
<feColorMatrix type="matrix" values="0 0 0 0 0 0 0 0 0 0 0 0 0 0 0 0 0 0 0.4 0"/>
<feBlend mode="normal" in2="BackgroundImageFix" result="effect1_dropShadow_466_777"/>
<feBlend mode="normal" in="SourceGraphic" in2="effect1_dropShadow_466_777" result="shape"/>
</filter>
<filter id="filter7_d_466_777" x="157.519" y="101.84" width="146.024" height="88.6235" filterUnits="userSpaceOnUse" color-interpolation-filters="sRGB">
<feFlood flood-opacity="0" result="BackgroundImageFix"/>
<feColorMatrix in="SourceAlpha" type="matrix" values="0 0 0 0 0 0 0 0 0 0 0 0 0 0 0 0 0 0 127 0" result="hardAlpha"/>
<feOffset dy="4"/>
<feGaussianBlur stdDeviation="2"/>
<feComposite in2="hardAlpha" operator="out"/>
<feColorMatrix type="matrix" values="0 0 0 0 0 0 0 0 0 0 0 0 0 0 0 0 0 0 0.5 0"/>
<feBlend mode="normal" in2="BackgroundImageFix" result="effect1_dropShadow_466_777"/>
<feBlend mode="normal" in="SourceGraphic" in2="effect1_dropShadow_466_777" result="shape"/>
</filter>
<filter id="filter8_d_466_777" x="305.407" y="106.084" width="53.3457" height="85.137" filterUnits="userSpaceOnUse" color-interpolation-filters="sRGB">
<feFlood flood-opacity="0" result="BackgroundImageFix"/>
<feColorMatrix in="SourceAlpha" type="matrix" values="0 0 0 0 0 0 0 0 0 0 0 0 0 0 0 0 0 0 127 0" result="hardAlpha"/>
<feOffset dy="4"/>
<feGaussianBlur stdDeviation="2"/>
<feComposite in2="hardAlpha" operator="out"/>
<feColorMatrix type="matrix" values="0 0 0 0 0 0 0 0 0 0 0 0 0 0 0 0 0 0 0.25 0"/>
<feBlend mode="normal" in2="BackgroundImageFix" result="effect1_dropShadow_466_777"/>
<feBlend mode="normal" in="SourceGraphic" in2="effect1_dropShadow_466_777" result="shape"/>
</filter>
<filter id="filter9_d_466_777" x="252.013" y="19.095" width="89.7529" height="50.4333" filterUnits="userSpaceOnUse" color-interpolation-filters="sRGB">
<feFlood flood-opacity="0" result="BackgroundImageFix"/>
<feColorMatrix in="SourceAlpha" type="matrix" values="0 0 0 0 0 0 0 0 0 0 0 0 0 0 0 0 0 0 127 0" result="hardAlpha"/>
<feOffset dy="4"/>
<feGaussianBlur stdDeviation="2"/>
<feComposite in2="hardAlpha" operator="out"/>
<feColorMatrix type="matrix" values="0 0 0 0 0 0 0 0 0 0 0 0 0 0 0 0 0 0 0.5 0"/>
<feBlend mode="normal" in2="BackgroundImageFix" result="effect1_dropShadow_466_777"/>
<feBlend mode="normal" in="SourceGraphic" in2="effect1_dropShadow_466_777" result="shape"/>
</filter>
<filter id="filter10_d_466_777" x="32.2344" y="0" width="41.9756" height="48.3118" filterUnits="userSpaceOnUse" color-interpolation-filters="sRGB">
<feFlood flood-opacity="0" result="BackgroundImageFix"/>
<feColorMatrix in="SourceAlpha" type="matrix" values="0 0 0 0 0 0 0 0 0 0 0 0 0 0 0 0 0 0 127 0" result="hardAlpha"/>
<feOffset dy="4"/>
<feGaussianBlur stdDeviation="2"/>
<feComposite in2="hardAlpha" operator="out"/>
<feColorMatrix type="matrix" values="0 0 0 0 0 0 0 0 0 0 0 0 0 0 0 0 0 0 0.25 0"/>
<feBlend mode="normal" in2="BackgroundImageFix" result="effect1_dropShadow_466_777"/>
<feBlend mode="normal" in="SourceGraphic" in2="effect1_dropShadow_466_777" result="shape"/>
</filter>
<filter id="filter11_d_466_777" x="105.079" y="456.69" width="74.6494" height="98.4583" filterUnits="userSpaceOnUse" color-interpolation-filters="sRGB">
<feFlood flood-opacity="0" result="BackgroundImageFix"/>
<feColorMatrix in="SourceAlpha" type="matrix" values="0 0 0 0 0 0 0 0 0 0 0 0 0 0 0 0 0 0 127 0" result="hardAlpha"/>
<feOffset dy="6"/>
<feGaussianBlur stdDeviation="3"/>
<feComposite in2="hardAlpha" operator="out"/>
<feColorMatrix type="matrix" values="0 0 0 0 0 0 0 0 0 0 0 0 0 0 0 0 0 0 0.5 0"/>
<feBlend mode="normal" in2="BackgroundImageFix" result="effect1_dropShadow_466_777"/>
<feBlend mode="normal" in="SourceGraphic" in2="effect1_dropShadow_466_777" result="shape"/>
</filter>
<filter id="filter12_d_466_777" x="30.2275" y="457.751" width="74.6494" height="98.4583" filterUnits="userSpaceOnUse" color-interpolation-filters="sRGB">
<feFlood flood-opacity="0" result="BackgroundImageFix"/>
<feColorMatrix in="SourceAlpha" type="matrix" values="0 0 0 0 0 0 0 0 0 0 0 0 0 0 0 0 0 0 127 0" result="hardAlpha"/>
<feOffset dy="6"/>
<feGaussianBlur stdDeviation="3"/>
<feComposite in2="hardAlpha" operator="out"/>
<feColorMatrix type="matrix" values="0 0 0 0 0 0 0 0 0 0 0 0 0 0 0 0 0 0 0.4 0"/>
<feBlend mode="normal" in2="BackgroundImageFix" result="effect1_dropShadow_466_777"/>
<feBlend mode="normal" in="SourceGraphic" in2="effect1_dropShadow_466_777" result="shape"/>
</filter>
<filter id="filter13_d_466_777" x="12.3701" y="464.646" width="345.013" height="102.11" filterUnits="userSpaceOnUse" color-interpolation-filters="sRGB">
<feFlood flood-opacity="0" result="BackgroundImageFix"/>
<feColorMatrix in="SourceAlpha" type="matrix" values="0 0 0 0 0 0 0 0 0 0 0 0 0 0 0 0 0 0 127 0" result="hardAlpha"/>
<feOffset dy="4"/>
<feGaussianBlur stdDeviation="2"/>
<feComposite in2="hardAlpha" operator="out"/>
<feColorMatrix type="matrix" values="0 0 0 0 0 0 0 0 0 0 0 0 0 0 0 0 0 0 0.25 0"/>
<feBlend mode="normal" in2="BackgroundImageFix" result="effect1_dropShadow_466_777"/>
<feBlend mode="normal" in="SourceGraphic" in2="effect1_dropShadow_466_777" result="shape"/>
</filter>
</defs>
</svg>
