<svg width="1531" height="112" viewBox="0 0 1531 112" fill="none" xmlns="http://www.w3.org/2000/svg">
<path d="M0 62C0 31.6243 24.6243 7 55 7H617C647.376 7 672 31.6243 672 62V105H0V62Z" fill="#323232"/>
<path d="M1098.05 61.7812C1098.05 65.7917 1099.01 69.0208 1100.94 71.4688C1102.86 73.8646 1105.39 75.0625 1108.52 75.0625C1111.54 75.0625 1114.01 73.8646 1115.94 71.4688C1117.92 69.0729 1118.91 65.8438 1118.91 61.7812C1118.91 57.6667 1117.92 54.4375 1115.94 52.0938C1114.01 49.6979 1111.51 48.5 1108.44 48.5C1105.42 48.5 1102.92 49.75 1100.94 52.25C1099.01 54.6979 1098.05 57.875 1098.05 61.7812ZM1088.67 53.5781C1088.67 48.9948 1089.06 44.6979 1089.84 40.6875C1090.68 36.6771 1091.93 33.0052 1093.59 29.6719C1095.26 26.3385 1097.53 23.7083 1100.39 21.7812C1103.31 19.8542 1106.67 18.8906 1110.47 18.8906C1118.28 18.8906 1123.96 22.901 1127.5 30.9219L1120.47 33.3438C1117.92 28.6042 1114.61 26.2344 1110.55 26.2344C1104.45 26.2344 1100.49 31.2344 1098.67 41.2344C1098.15 43.6823 1097.81 46.026 1097.66 48.2656C1098.65 46.1823 1100.18 44.4896 1102.27 43.1875C1104.4 41.8333 1106.88 41.1562 1109.69 41.1562C1115.05 41.1562 1119.43 43.1094 1122.81 47.0156C1126.25 50.8698 1127.97 55.7656 1127.97 61.7031C1127.97 67.6406 1126.25 72.5885 1122.81 76.5469C1119.43 80.4531 1114.77 82.4062 1108.83 82.4062C1102.73 82.4062 1097.94 80.2448 1094.45 75.9219C1090.6 71.2344 1088.67 63.7865 1088.67 53.5781ZM1175.23 67.25C1175.23 62.875 1176.74 59.2552 1179.77 56.3906C1182.79 53.526 1186.67 52.0938 1191.41 52.0938C1196.15 52.0938 1200.03 53.526 1203.05 56.3906C1206.07 59.2552 1207.58 62.875 1207.58 67.25C1207.58 71.7292 1206.04 75.375 1202.97 78.1875C1199.95 81 1196.09 82.4062 1191.41 82.4062C1186.72 82.4062 1182.84 81 1179.77 78.1875C1176.74 75.3229 1175.23 71.6771 1175.23 67.25ZM1183.44 67.25C1183.44 69.9062 1184.22 71.9896 1185.78 73.5C1187.34 75.0104 1189.22 75.7656 1191.41 75.7656C1193.65 75.7656 1195.55 75.0104 1197.11 73.5C1198.67 71.9375 1199.45 69.8542 1199.45 67.25C1199.45 64.6458 1198.67 62.5885 1197.11 61.0781C1195.6 59.5156 1193.7 58.7344 1191.41 58.7344C1189.17 58.7344 1187.27 59.5156 1185.7 61.0781C1184.19 62.6406 1183.44 64.6979 1183.44 67.25ZM1136.41 34.0469C1136.41 29.6719 1137.92 26.0521 1140.94 23.1875C1143.96 20.3229 1147.84 18.8906 1152.58 18.8906C1157.32 18.8906 1161.2 20.3229 1164.22 23.1875C1167.24 26.0521 1168.75 29.6719 1168.75 34.0469C1168.75 38.526 1167.21 42.1719 1164.14 44.9844C1161.12 47.7448 1157.27 49.125 1152.58 49.125C1147.89 49.125 1144.01 47.7188 1140.94 44.9062C1137.92 42.0938 1136.41 38.474 1136.41 34.0469ZM1144.53 34.0469C1144.53 36.7031 1145.31 38.7865 1146.88 40.2969C1148.49 41.8073 1150.39 42.5625 1152.58 42.5625C1154.82 42.5625 1156.69 41.7812 1158.2 40.2188C1159.77 38.6562 1160.55 36.599 1160.55 34.0469C1160.55 31.4427 1159.77 29.3594 1158.2 27.7969C1156.69 26.2344 1154.82 25.4531 1152.58 25.4531C1150.34 25.4531 1148.44 26.2604 1146.88 27.875C1145.31 29.4375 1144.53 31.4948 1144.53 34.0469ZM1146.02 81.3125L1189.06 19.9844H1197.97L1154.84 81.3125H1146.02ZM1249.45 57.9531H1269.14L1263.36 40.7656C1263.05 39.8281 1262.42 37.9531 1261.48 35.1406C1260.6 32.276 1259.95 30.1667 1259.53 28.8125H1259.06C1258.44 30.8438 1257.19 34.8281 1255.31 40.7656L1249.45 57.9531ZM1232.11 81L1254.3 20.2969H1264.38L1286.56 81H1276.95L1271.56 65.1406H1247.11L1241.72 81H1232.11ZM1291.88 81V36.9375H1300.23V43.1094H1300.31C1300.99 41.3385 1302.45 39.6458 1304.69 38.0312C1306.98 36.3646 1309.79 35.5312 1313.12 35.5312C1317.4 35.5312 1320.83 36.8594 1323.44 39.5156C1326.04 42.1719 1327.34 46.5469 1327.34 52.6406V81H1318.75V53.8125C1318.75 46.5208 1316.22 42.875 1311.17 42.875C1308.2 42.875 1305.68 44.099 1303.59 46.5469C1301.56 48.9427 1300.55 51.8594 1300.55 55.2969V81H1291.88ZM1335.55 58.8906C1335.55 51.651 1337.29 45.9479 1340.78 41.7812C1344.32 37.6146 1348.8 35.5312 1354.22 35.5312C1356.98 35.5312 1359.4 36.2604 1361.48 37.7188C1363.57 39.1771 1365.1 40.8438 1366.09 42.7188V18.1875H1374.69V81H1366.33V74.5938C1365.34 76.7812 1363.75 78.6302 1361.56 80.1406C1359.43 81.651 1356.98 82.4062 1354.22 82.4062C1351.93 82.4062 1349.71 81.9635 1347.58 81.0781C1345.49 80.1927 1343.52 78.8646 1341.64 77.0938C1339.82 75.3229 1338.33 72.875 1337.19 69.75C1336.09 66.5729 1335.55 62.9531 1335.55 58.8906ZM1344.3 58.8906C1344.3 63.9427 1345.31 67.9271 1347.34 70.8438C1349.43 73.7083 1352.11 75.1406 1355.39 75.1406C1358.52 75.1406 1361.09 73.6823 1363.12 70.7656C1365.21 67.849 1366.25 63.8906 1366.25 58.8906C1366.25 54.0469 1365.23 50.1667 1363.2 47.25C1361.17 44.3333 1358.57 42.875 1355.39 42.875C1351.95 42.875 1349.24 44.3333 1347.27 47.25C1345.29 50.1667 1344.3 54.0469 1344.3 58.8906ZM1383.83 58.7344C1383.83 51.7552 1385.73 46.1562 1389.53 41.9375C1393.39 37.6667 1398.26 35.5312 1404.14 35.5312C1410.03 35.5312 1414.79 37.6406 1418.44 41.8594C1422.14 46.0781 1423.98 51.5208 1423.98 58.1875C1423.98 58.2917 1423.91 59.5156 1423.75 61.8594H1392.5C1392.5 65.5573 1393.57 68.7344 1395.7 71.3906C1397.84 74.0469 1400.81 75.375 1404.61 75.375C1407.16 75.375 1409.43 74.75 1411.41 73.5C1413.39 72.25 1414.9 70.6354 1415.94 68.6562L1423.12 71.0781C1421.72 74.3594 1419.43 77.0677 1416.25 79.2031C1413.12 81.3385 1409.22 82.4062 1404.53 82.4062C1398.39 82.4062 1393.39 80.2708 1389.53 76C1385.73 71.6771 1383.83 65.9219 1383.83 58.7344ZM1392.66 55.6875H1415.23C1415.23 51.9896 1414.24 48.8646 1412.27 46.3125C1410.29 43.7604 1407.58 42.4844 1404.14 42.4844C1400.65 42.4844 1397.89 43.7865 1395.86 46.3906C1393.83 48.9948 1392.76 52.0938 1392.66 55.6875ZM1432.5 81V36.9375H1440.7V42.25C1441.59 40.5312 1442.99 38.9948 1444.92 37.6406C1446.85 36.2344 1449.17 35.5312 1451.88 35.5312C1454.27 35.5312 1456.22 35.8698 1457.73 36.5469V44.4375C1456.02 43.7604 1454.06 43.4219 1451.88 43.4219C1448.44 43.4219 1445.78 44.75 1443.91 47.4062C1442.08 50.0104 1441.17 53.5 1441.17 57.875V81H1432.5ZM1460.55 58.7344C1460.55 51.7552 1462.45 46.1562 1466.25 41.9375C1470.1 37.6667 1474.97 35.5312 1480.86 35.5312C1486.74 35.5312 1491.51 37.6406 1495.16 41.8594C1498.85 46.0781 1500.7 51.5208 1500.7 58.1875C1500.7 58.2917 1500.62 59.5156 1500.47 61.8594H1469.22C1469.22 65.5573 1470.29 68.7344 1472.42 71.3906C1474.56 74.0469 1477.53 75.375 1481.33 75.375C1483.88 75.375 1486.15 74.75 1488.12 73.5C1490.1 72.25 1491.61 70.6354 1492.66 68.6562L1499.84 71.0781C1498.44 74.3594 1496.15 77.0677 1492.97 79.2031C1489.84 81.3385 1485.94 82.4062 1481.25 82.4062C1475.1 82.4062 1470.1 80.2708 1466.25 76C1462.45 71.6771 1460.55 65.9219 1460.55 58.7344ZM1469.38 55.6875H1491.95C1491.95 51.9896 1490.96 48.8646 1488.98 46.3125C1487.01 43.7604 1484.3 42.4844 1480.86 42.4844C1477.37 42.4844 1474.61 43.7865 1472.58 46.3906C1470.55 48.9948 1469.48 52.0938 1469.38 55.6875Z" fill="white"/>
<path d="M1037.3 61.3033C1040.23 58.3744 1040.23 53.6256 1037.3 50.6967L989.574 2.96699C986.645 0.0380592 981.896 0.0380592 978.967 2.96699C976.038 5.89592 976.038 10.6447 978.967 13.5736L1021.39 56L978.967 98.4264C976.038 101.355 976.038 106.104 978.967 109.033C981.896 111.962 986.645 111.962 989.574 109.033L1037.3 61.3033ZM672 63.5H1032V48.5H672V63.5Z" fill="#AFAFAF"/>
</svg>
