<svg width="103" height="103" viewBox="0 0 103 103" fill="none" xmlns="http://www.w3.org/2000/svg">
<path d="M51.5 103C79.9427 103 103 79.9427 103 51.5C103 23.0573 79.9427 0 51.5 0C23.0573 0 0 23.0573 0 51.5C0 79.9427 23.0573 103 51.5 103Z" fill="#52B0F8"/>
<path d="M95.1489 32.3035C95.6552 31.3736 95.4492 30.0048 94.6945 29.2635L76.4568 11.3608C75.7021 10.6196 74.3968 10.5406 73.5593 11.1895L61.3976 20.5807C60.5601 21.2276 59.276 22.3847 58.5463 23.1509C58.5463 23.1509 54.4937 27.4076 52.1738 32.7309C48.9336 40.1661 49.4631 48.1693 49.4631 48.1693C49.5324 49.2263 50.3699 50.47 51.3209 50.932C51.3209 50.932 58.76 54.5534 65.2654 56.2168C72.743 58.1305 82.1882 58.3115 82.1882 58.3115C83.2471 58.3326 84.3156 57.5067 84.562 56.4767L86.1195 49.9675C86.366 48.9375 86.982 47.3338 87.4865 46.4039L95.1508 32.3035H95.1489Z" fill="#20D7C4"/>
<path d="M0.202164 48.8374C1.57293 57.3373 5.03835 62.7857 8.27852 62.7626C8.95813 62.7588 10.2846 62.5085 11.9365 60.4523C14.3603 57.4355 16.1816 55.0443 16.3645 54.6766C20.5865 46.2191 45.5183 33.4413 44.2804 24.2579C43.9242 21.6127 41.2616 18.2762 31.1888 15.2093C27.7484 13.4709 24.308 11.7324 20.8695 9.9958C8.98893 18.9327 1.04734 32.9119 0.202164 48.8374Z" fill="#20D7C4"/>
<path d="M62.726 99.1495C62.7453 100.208 61.9848 100.692 61.0338 100.224C61.0338 100.224 56.4286 97.9578 52.7495 94.7196C49.9906 92.2899 47.7497 89.3251 47.7497 89.3251C47.1105 88.4799 46.4039 86.9436 46.1767 85.9078L42.5727 69.4547C42.3455 68.4209 42.6093 66.8326 43.156 65.9258C43.156 65.9258 46.015 61.1916 47.7439 60.6429C50.1755 59.869 52.0314 61.1223 57.7551 61.9906C60.4735 62.4026 62.3776 62.4854 62.3776 62.4854C63.4345 62.5316 64.5512 63.3979 64.8592 64.4106C64.8592 64.4106 65.0094 64.9093 65.456 66.6112C66.7267 71.4512 67.4467 74.1889 67.3813 76.8149C67.2812 80.8964 65.354 82.0053 63.7233 86.4411C62.547 89.6389 62.7241 99.1476 62.7241 99.1476L62.726 99.1495Z" fill="#20D7C4"/>
<path d="M69.1159 90.1009C68.7809 91.1868 68.2399 92.0146 67.3832 93.3738L66.9346 94.0842C66.4398 94.7523 65.7429 94.4828 65.3867 93.4874C65.3867 93.4874 65.2462 93.0927 65.2655 92.4131C65.2963 91.335 65.6775 90.794 65.843 89.3328L65.9528 88.3624C65.8931 87.6251 66.4552 86.9339 67.2022 86.8242L67.9608 86.6394L68.4421 86.5219C68.9195 86.3756 69.32 87.1207 69.3335 88.1795C69.3335 88.1795 69.347 89.3597 69.1179 90.1048L69.1159 90.1009Z" fill="#20D7C4"/>
</svg>
