<svg width="1921" height="1081" viewBox="0 0 1921 1081" fill="none" xmlns="http://www.w3.org/2000/svg">
<g clip-path="url(#clip0_478_541)">
<path d="M1920.5 0.5H0.5V1080.5H1920.5V0.5Z" fill="#141727" stroke="black" stroke-miterlimit="10"/>
<path d="M700.39 710.42H709.35C711.82 710.42 712.82 714.14 711.59 718.69L707.11 735.23C705.88 739.78 703.86 739.78 702.63 735.23L698.15 718.69C696.92 714.14 697.93 710.42 700.39 710.42Z" fill="#FFFDC1"/>
<path d="M709.35 710.42H700.39C697.92 710.42 696.92 706.7 698.15 702.15C699.38 697.6 701.4 690.16 702.63 685.61C703.86 681.06 705.88 681.06 707.11 685.61C708.34 690.16 710.36 697.6 711.59 702.15C712.82 706.7 711.81 710.42 709.35 710.42Z" fill="#FFFDC1"/>
<path d="M705 716.23V704.59C705 701.39 707.98 700.08 711.63 701.68C715.28 703.28 721.24 705.9 724.88 707.5C728.52 709.1 728.52 711.72 724.88 713.32C721.24 714.92 715.27 717.54 711.63 719.14C707.99 720.74 705 719.43 705 716.23Z" fill="#FFFDC1"/>
<path d="M705 704.72C705 707.92 705 713.16 705 716.36C705 719.56 702.02 720.87 698.38 719.27C694.74 717.67 688.77 715.05 685.13 713.45C681.49 711.85 681.49 709.23 685.13 707.63C688.77 706.03 694.74 703.41 698.38 701.81C702.02 700.21 705 701.52 705.01 704.72H705Z" fill="#FFFDC1"/>
<path d="M1655.61 589H1670.4C1674.47 589 1676.46 593.3 1674.82 598.55L1673.37 603.2C1671.73 608.45 1669.06 617.04 1667.42 622.3L1665.97 626.95C1664.33 632.2 1661.66 632.2 1660.02 626.95L1658.57 622.3C1656.93 617.05 1654.26 608.46 1652.62 603.2L1651.17 598.55C1649.53 593.3 1651.52 589 1655.59 589H1655.61Z" fill="#FFFDC1"/>
<path d="M1670.4 589H1655.61C1651.54 589 1649.55 584.7 1651.19 579.45L1652.64 574.8C1654.28 569.55 1656.95 560.96 1658.59 555.7L1660.04 551.05C1661.68 545.8 1664.35 545.8 1665.99 551.05L1667.44 555.7C1669.08 560.95 1671.75 569.54 1673.39 574.8L1674.84 579.45C1676.48 584.7 1674.49 589 1670.42 589H1670.4Z" fill="#FFFDC1"/>
<path d="M1663.22 597.34V580.62C1663.22 576.02 1667.42 573.87 1672.56 575.83L1675.74 577.05C1680.88 579.01 1689.28 582.23 1694.42 584.19L1697.6 585.41C1702.74 587.37 1702.74 590.59 1697.6 592.55L1694.42 593.77C1689.28 595.73 1680.88 598.95 1675.74 600.91L1672.56 602.13C1667.42 604.09 1663.22 601.94 1663.22 597.34Z" fill="#FFFDC1"/>
<path d="M1663.22 580.82C1663.22 585.42 1663.22 592.94 1663.22 597.54C1663.22 602.14 1659.02 604.29 1653.88 602.33L1650.7 601.11C1645.56 599.15 1637.16 595.93 1632.02 593.97L1628.84 592.75C1623.7 590.79 1623.7 587.57 1628.84 585.61L1632.02 584.39C1637.16 582.43 1645.56 579.21 1650.7 577.25L1653.88 576.03C1659.02 574.07 1663.22 576.22 1663.22 580.82Z" fill="#FFFDC1"/>
<path d="M1829.16 861H1850.8C1856.3 861 1859.46 865.3 1857.83 870.55L1852.96 886.2C1851.32 891.45 1848.65 900.04 1847.01 905.3L1842.14 920.95C1840.5 926.2 1837.83 926.2 1836.19 920.95L1831.32 905.3C1829.68 900.05 1827.01 891.46 1825.37 886.2L1820.5 870.55C1818.86 865.3 1822.03 861 1827.53 861H1829.17H1829.16Z" fill="#FFFDC1"/>
<path d="M1849.16 861H1827.52C1822.02 861 1818.86 856.7 1820.49 851.45L1825.36 835.8C1827 830.55 1829.67 821.96 1831.31 816.7L1836.18 801.05C1837.82 795.8 1840.49 795.8 1842.13 801.05L1847 816.7C1848.64 821.95 1851.31 830.54 1852.95 835.8L1857.82 851.45C1859.46 856.7 1856.29 861 1850.79 861H1849.15H1849.16Z" fill="#FFFDC1"/>
<path d="M1839.47 870.98V846.52C1839.47 841.02 1843.67 838.13 1848.81 840.09L1862.11 845.18C1867.25 847.14 1875.65 850.36 1880.79 852.32L1894.09 857.41C1899.23 859.37 1899.23 862.59 1894.09 864.55L1880.79 869.64C1875.65 871.6 1867.25 874.82 1862.11 876.78L1848.81 881.87C1843.67 883.83 1839.47 880.94 1839.47 875.44V870.98Z" fill="#FFFDC1"/>
<path d="M1839.47 851.26C1839.47 856.76 1839.47 865.76 1839.47 871.26V875.72C1839.47 881.22 1835.27 884.11 1830.13 882.15L1816.83 877.06C1811.69 875.1 1803.29 871.88 1798.15 869.92L1784.85 864.83C1779.71 862.87 1779.71 859.65 1784.85 857.69L1798.15 852.6C1803.29 850.64 1811.69 847.42 1816.83 845.46L1830.13 840.37C1835.27 838.41 1839.47 841.3 1839.47 846.8V851.26Z" fill="#FFFDC1"/>
<path d="M1470.89 808.136C1477.81 806.233 1482.36 800.805 1481.04 796.012C1479.72 791.219 1473.04 788.876 1466.12 790.779C1459.2 792.682 1454.65 798.11 1455.97 802.903C1457.29 807.696 1463.97 810.039 1470.89 808.136Z" fill="#8A9FAA"/>
<path d="M1396 810.5C1543.74 810.5 1663.5 690.736 1663.5 543C1663.5 395.264 1543.74 275.5 1396 275.5C1248.26 275.5 1128.5 395.264 1128.5 543C1128.5 690.736 1248.26 810.5 1396 810.5Z" fill="#52B0F8"/>
<path d="M1622.72 443.29C1625.35 438.46 1624.28 431.35 1620.36 427.5L1525.63 334.51C1521.71 330.66 1514.93 330.25 1510.58 333.62L1447.41 382.4C1443.06 385.76 1436.39 391.77 1432.6 395.75C1432.6 395.75 1411.55 417.86 1399.5 445.51C1382.67 484.13 1385.42 525.7 1385.42 525.7C1385.78 531.19 1390.13 537.65 1395.07 540.05C1395.07 540.05 1433.71 558.86 1467.5 567.5C1506.34 577.44 1555.4 578.38 1555.4 578.38C1560.9 578.49 1566.45 574.2 1567.73 568.85L1575.82 535.04C1577.1 529.69 1580.3 521.36 1582.92 516.53L1622.73 443.29H1622.72Z" fill="#20D7C4"/>
<path d="M1129.55 529.17C1136.67 573.32 1154.67 601.62 1171.5 601.5C1175.03 601.48 1181.92 600.18 1190.5 589.5C1203.09 573.83 1212.55 561.41 1213.5 559.5C1235.43 515.57 1364.93 449.2 1358.5 401.5C1356.65 387.76 1342.82 370.43 1290.5 354.5C1272.63 345.47 1254.76 336.44 1236.9 327.42C1175.2 373.84 1133.94 446.45 1129.55 529.17Z" fill="#20D7C4"/>
<path d="M1454.31 790.5C1454.41 796 1450.46 798.51 1445.52 796.08C1445.52 796.08 1421.6 784.31 1402.49 767.49C1388.16 754.87 1376.52 739.47 1376.52 739.47C1373.2 735.08 1369.53 727.1 1368.35 721.72L1349.63 636.26C1348.45 630.89 1349.82 622.64 1352.66 617.93C1352.66 617.93 1367.51 593.34 1376.49 590.49C1389.12 586.47 1398.76 592.98 1428.49 597.49C1442.61 599.63 1452.5 600.06 1452.5 600.06C1457.99 600.3 1463.79 604.8 1465.39 610.06C1465.39 610.06 1466.17 612.65 1468.49 621.49C1475.09 646.63 1478.83 660.85 1478.49 674.49C1477.97 695.69 1467.96 701.45 1459.49 724.49C1453.38 741.1 1454.3 790.49 1454.3 790.49L1454.31 790.5Z" fill="#20D7C4"/>
<path d="M1487.5 743.5C1485.76 749.14 1482.95 753.44 1478.5 760.5L1476.17 764.19C1473.6 767.66 1469.98 766.26 1468.13 761.09C1468.13 761.09 1467.4 759.04 1467.5 755.51C1467.66 749.91 1469.64 747.1 1470.5 739.51L1471.07 734.47C1470.76 730.64 1473.68 727.05 1477.56 726.48L1481.5 725.52L1484 724.91C1486.48 724.15 1488.56 728.02 1488.63 733.52C1488.63 733.52 1488.7 739.65 1487.51 743.52L1487.5 743.5Z" fill="#20D7C4"/>
<path d="M359.1 919.5H386.5C392 919.5 395.16 923.8 393.53 929.05L385.78 953.95L379.83 973.05L372.08 997.95C370.44 1003.2 367.77 1003.2 366.13 997.95L358.38 973.05L352.43 953.95L344.68 929.05C343.04 923.8 346.21 919.5 351.71 919.5H359.11H359.1Z" fill="#FFFDC1"/>
<path d="M379.1 919.5H351.7C346.2 919.5 343.04 915.2 344.67 909.95L352.42 885.05L358.37 865.95L366.12 841.05C367.76 835.8 370.43 835.8 372.07 841.05L379.82 865.95L385.77 885.05L393.52 909.95C395.16 915.2 391.99 919.5 386.49 919.5H379.09H379.1Z" fill="#FFFDC1"/>
<path d="M369.5 929.47V898.5C369.5 893 373.7 890.11 378.84 892.07L400.66 900.41L419.34 907.55L441.16 915.89C446.3 917.85 446.3 921.07 441.16 923.03L419.34 931.37L400.66 938.51L378.84 946.85C373.7 948.81 369.5 945.92 369.5 940.42V929.45V929.47Z" fill="#FFFDC1"/>
<path d="M369.5 909.83C369.5 915.33 369.5 924.33 369.5 929.83V940.8C369.5 946.3 365.3 949.19 360.16 947.23L338.34 938.89C333.2 936.93 324.8 933.71 319.66 931.75L297.84 923.41C292.7 921.45 292.7 918.23 297.84 916.27L319.66 907.93L338.34 900.79L360.16 892.45C365.3 890.49 369.5 893.38 369.5 898.88V909.85V909.83Z" fill="#FFFDC1"/>
<path d="M143.17 327H152.04C154.48 327 155.48 330.21 154.26 334.13L149.82 348.38C148.6 352.3 146.6 352.3 145.38 348.38C144.16 344.46 142.16 338.05 140.94 334.13C139.72 330.21 140.72 327 143.16 327H143.17Z" fill="#FFFDC1"/>
<path d="M152.04 327H143.17C140.73 327 139.73 323.79 140.95 319.87C142.17 315.95 144.17 309.54 145.39 305.62C146.61 301.7 148.61 301.7 149.83 305.62L154.27 319.87C155.49 323.79 154.49 327 152.05 327H152.04Z" fill="#FFFDC1"/>
<path d="M147.73 332.01V321.98C147.73 319.22 150.68 318.09 154.29 319.47L167.41 324.49C171.02 325.87 171.02 328.13 167.41 329.51L154.29 334.53C150.68 335.91 147.73 334.78 147.73 332.02V332.01Z" fill="#FFFDC1"/>
<path d="M147.73 322.09V332.12C147.73 334.88 144.78 336.01 141.17 334.63C137.56 333.25 131.66 330.99 128.05 329.61C124.44 328.23 124.44 325.97 128.05 324.59L141.17 319.57C144.78 318.19 147.73 319.32 147.73 322.08V322.09Z" fill="#FFFDC1"/>
<path d="M90.14 293.35H106.38C110.85 293.35 113.16 297.65 111.53 302.9L109.36 309.88L103.41 328.98L101.24 335.96C99.6 341.21 96.93 341.21 95.29 335.96L93.12 328.98L87.17 309.88L85 302.9C83.36 297.65 85.68 293.35 90.15 293.35H90.14Z" fill="#FFFDC1"/>
<path d="M106.38 293.35H90.14C85.67 293.35 83.36 289.05 84.99 283.8L87.16 276.82L93.11 257.72L95.28 250.74C96.92 245.49 99.59 245.49 101.23 250.74L103.4 257.72L109.35 276.82L111.52 283.8C113.16 289.05 110.84 293.35 106.37 293.35H106.38Z" fill="#FFFDC1"/>
<path d="M98.5 302.51V284.16C98.5 279.11 102.7 276.59 107.84 278.55L113.16 280.58C118.3 282.54 126.7 285.76 131.84 287.72L137.16 289.75C142.3 291.71 142.3 294.93 137.16 296.89L131.84 298.92L113.16 306.06L107.84 308.09C102.7 310.05 98.5 307.53 98.5 302.48V302.51Z" fill="#FFFDC1"/>
<path d="M98.5 284.37V302.72C98.5 307.77 94.3 310.29 89.16 308.33L83.84 306.3C78.7 304.34 70.3 301.12 65.16 299.16L59.84 297.13C54.7 295.17 54.7 291.95 59.84 289.99L65.16 287.96L83.84 280.82L89.16 278.79C94.3 276.83 98.5 279.35 98.5 284.4V284.37Z" fill="#FFFDC1"/>
<path d="M1420.69 149.36H1431.01C1433.85 149.36 1435.01 153.09 1433.59 157.64C1432.17 162.2 1429.85 169.65 1428.43 174.21C1427.01 178.77 1424.69 178.77 1423.27 174.21C1421.85 169.65 1419.53 162.2 1418.11 157.64C1416.69 153.08 1417.85 149.36 1420.69 149.36Z" fill="#FFFDC1"/>
<path d="M1431.01 149.36H1420.69C1417.85 149.36 1416.69 145.63 1418.11 141.08C1419.53 136.52 1421.85 129.07 1423.27 124.51C1424.69 119.95 1427.01 119.95 1428.43 124.51C1429.85 129.07 1432.17 136.52 1433.59 141.08C1435.01 145.64 1433.85 149.36 1431.01 149.36Z" fill="#FFFDC1"/>
<path d="M1426 155.18V143.52C1426 140.31 1429.43 139 1433.63 140.6C1437.82 142.2 1444.69 144.83 1448.88 146.43C1453.07 148.03 1453.07 150.66 1448.88 152.26C1444.69 153.86 1437.82 156.49 1433.63 158.09C1429.44 159.69 1426 158.38 1426 155.17V155.18Z" fill="#FFFDC1"/>
<path d="M1426 143.66C1426 146.87 1426 152.12 1426 155.32C1426 158.52 1422.57 159.84 1418.38 158.24C1414.19 156.64 1407.32 154.01 1403.13 152.41C1398.94 150.81 1398.94 148.18 1403.13 146.58C1407.32 144.98 1414.19 142.35 1418.38 140.75C1422.57 139.15 1426 140.46 1426.01 143.67L1426 143.66Z" fill="#FFFDC1"/>
<path d="M1048.47 588.76H1061.16C1064.65 588.76 1066.16 593.06 1064.53 598.31L1064.13 599.58C1062.49 604.83 1059.82 613.42 1058.18 618.68L1057.78 619.95C1056.14 625.2 1053.47 625.2 1051.83 619.95L1051.43 618.68C1049.79 613.43 1047.12 604.84 1045.48 599.58L1045.08 598.31C1043.44 593.06 1044.96 588.76 1048.45 588.76H1048.47Z" fill="#FFFDC1"/>
<path d="M1061.16 588.76H1048.47C1044.98 588.76 1043.47 584.46 1045.1 579.21L1045.5 577.94C1047.14 572.69 1049.81 564.1 1051.45 558.84L1051.85 557.57C1053.49 552.32 1056.16 552.32 1057.8 557.57L1058.2 558.84C1059.84 564.09 1062.51 572.68 1064.15 577.94L1064.55 579.21C1066.19 584.46 1064.67 588.76 1061.18 588.76H1061.16Z" fill="#FFFDC1"/>
<path d="M1055 595.92V581.58C1055 577.64 1059.2 576.02 1064.34 577.98L1064.41 578.01C1069.55 579.97 1077.95 583.19 1083.09 585.15L1083.16 585.18C1088.3 587.14 1088.3 590.36 1083.16 592.32L1083.09 592.35C1077.95 594.31 1069.55 597.53 1064.41 599.49L1064.34 599.52C1059.2 601.48 1055 599.87 1055 595.92Z" fill="#FFFDC1"/>
<path d="M1055 581.74C1055 585.68 1055 592.14 1055 596.08C1055 600.02 1050.8 601.64 1045.66 599.68L1045.59 599.65C1040.45 597.69 1032.05 594.47 1026.91 592.51L1026.84 592.48C1021.7 590.52 1021.7 587.3 1026.84 585.34L1026.91 585.31C1032.05 583.35 1040.45 580.13 1045.59 578.17L1045.66 578.14C1050.8 576.18 1055 577.79 1055 581.74Z" fill="#FFFDC1"/>
<path d="M1821.1 87.5H1848.5C1854 87.5 1857.16 91.8 1855.53 97.05L1847.78 121.95C1846.14 127.2 1843.47 135.79 1841.83 141.05L1834.08 165.95C1832.44 171.2 1829.77 171.2 1828.13 165.95L1820.38 141.05C1818.74 135.8 1816.07 127.21 1814.43 121.95L1806.68 97.05C1805.04 91.8 1808.21 87.5 1813.71 87.5H1821.11H1821.1Z" fill="#FFFDC1"/>
<path d="M1841.1 87.5H1813.7C1808.2 87.5 1805.04 83.2 1806.67 77.95L1814.42 53.05C1816.06 47.8 1818.73 39.21 1820.37 33.95L1828.12 9.04999C1829.76 3.79999 1832.43 3.79999 1834.07 9.04999L1841.82 33.95C1843.46 39.2 1846.13 47.79 1847.77 53.05L1855.52 77.95C1857.16 83.2 1853.99 87.5 1848.49 87.5H1841.09H1841.1Z" fill="#FFFDC1"/>
<path d="M1831.5 97.47V66.5C1831.5 61 1835.7 58.11 1840.84 60.07L1862.66 68.41C1867.8 70.37 1876.2 73.59 1881.34 75.55L1903.16 83.89C1908.3 85.85 1908.3 89.07 1903.16 91.03L1881.34 99.37C1876.2 101.33 1867.8 104.55 1862.66 106.51L1840.84 114.85C1835.7 116.81 1831.5 113.92 1831.5 108.42V97.45V97.47Z" fill="#FFFDC1"/>
<path d="M1831.5 77.83C1831.5 83.33 1831.5 92.33 1831.5 97.83V108.8C1831.5 114.3 1827.3 117.19 1822.16 115.23L1800.34 106.89C1795.2 104.93 1786.8 101.71 1781.66 99.75L1759.84 91.41C1754.7 89.45 1754.7 86.23 1759.84 84.27L1781.66 75.93C1786.8 73.97 1795.2 70.75 1800.34 68.79L1822.16 60.45C1827.3 58.49 1831.5 61.38 1831.5 66.88V77.85V77.83Z" fill="#FFFDC1"/>
<path d="M182.73 672H201.26C206.35 672 209.19 676.3 207.55 681.55L204.23 692.2L198.28 711.3L194.96 721.95C193.32 727.2 190.65 727.2 189.01 721.95L185.69 711.3C184.05 706.05 181.38 697.46 179.74 692.2L176.42 681.55C174.78 676.3 177.62 672 182.71 672H182.73Z" fill="#FFFDC1"/>
<path d="M201.26 672H182.73C177.64 672 174.8 667.7 176.44 662.45L179.76 651.8C181.4 646.55 184.07 637.96 185.71 632.7L189.03 622.05C190.67 616.8 193.34 616.8 194.98 622.05L198.3 632.7L204.25 651.8L207.57 662.45C209.21 667.7 206.37 672 201.28 672H201.26Z" fill="#FFFDC1"/>
<path d="M192.27 681.98V661.04C192.27 655.54 196.47 652.65 201.61 654.61L210.31 657.94L228.99 665.08L237.69 668.41C242.83 670.37 242.83 673.59 237.69 675.55L228.99 678.88L210.31 686.02L201.61 689.35C196.47 691.31 192.27 688.42 192.27 682.92V681.98Z" fill="#FFFDC1"/>
<path d="M192.27 662.22C192.27 667.72 192.27 676.72 192.27 682.22V683.16C192.27 688.66 188.07 691.55 182.93 689.59L174.23 686.26C169.09 684.3 160.69 681.08 155.55 679.12L146.85 675.79C141.71 673.83 141.71 670.61 146.85 668.65L155.55 665.32C160.69 663.36 169.09 660.14 174.23 658.18L182.93 654.85C188.07 652.89 192.27 655.78 192.27 661.28V662.22Z" fill="#FFFDC1"/>
<path d="M952.67 692.5H967.89C972.08 692.5 974.17 696.8 972.53 702.05L970.85 707.45L964.92 726.55L963.24 731.95C961.61 737.2 958.94 737.2 957.31 731.95L955.63 726.55C954 721.3 951.33 712.7 949.7 707.45L948.02 702.05C946.39 696.8 948.48 692.5 952.66 692.5H952.67Z" fill="#FFFDC1"/>
<path d="M967.89 692.5H952.67C948.48 692.5 946.39 688.2 948.03 682.95L949.71 677.55C951.34 672.3 954.01 663.7 955.64 658.45L957.32 653.05C958.95 647.8 961.62 647.8 963.25 653.05L964.93 658.45C966.56 663.7 969.23 672.3 970.86 677.55L972.54 682.95C974.17 688.2 972.08 692.5 967.9 692.5H967.89Z" fill="#FFFDC1"/>
<path d="M960.5 701.11V683.86C960.5 679.12 964.7 676.85 969.84 678.82L973.66 680.29L992.34 687.45L996.16 688.92C1001.3 690.89 1001.3 694.11 996.16 696.08L992.34 697.55C987.2 699.52 978.8 702.74 973.66 704.71L969.84 706.18C964.7 708.15 960.5 705.88 960.5 701.14V701.11Z" fill="#FFFDC1"/>
<path d="M960.5 684.06V701.31C960.5 706.05 956.3 708.32 951.16 706.35L947.34 704.88L928.66 697.72L924.84 696.25C919.7 694.28 919.7 691.06 924.84 689.09L928.66 687.62L947.34 680.46L951.16 678.99C956.3 677.02 960.5 679.29 960.5 684.03V684.06Z" fill="#FFFDC1"/>
<path d="M493.1 182.5H520.5C526 182.5 529.16 186.8 527.53 192.05L519.78 216.95C518.14 222.2 515.47 230.79 513.83 236.05L506.08 260.95C504.44 266.2 501.77 266.2 500.13 260.95L492.38 236.05C490.74 230.8 488.07 222.21 486.43 216.95L478.68 192.05C477.04 186.8 480.21 182.5 485.71 182.5H493.11H493.1Z" fill="#FFFDC1"/>
<path d="M513.1 182.5H485.7C480.2 182.5 477.04 178.2 478.67 172.95L486.42 148.05L492.37 128.95L500.12 104.05C501.76 98.8 504.43 98.8 506.07 104.05L513.82 128.95L519.77 148.05L527.52 172.95C529.16 178.2 525.99 182.5 520.49 182.5H513.09H513.1Z" fill="#FFFDC1"/>
<path d="M503.5 192.47V161.5C503.5 156 507.7 153.11 512.84 155.07L534.66 163.41C539.8 165.37 548.2 168.59 553.34 170.55L575.16 178.89C580.3 180.85 580.3 184.07 575.16 186.03L553.34 194.37C548.2 196.33 539.8 199.55 534.66 201.51L512.84 209.85C507.7 211.81 503.5 208.92 503.5 203.42V192.45V192.47Z" fill="#FFFDC1"/>
<path d="M503.5 172.83C503.5 178.33 503.5 187.33 503.5 192.83V203.8C503.5 209.3 499.3 212.19 494.16 210.23L472.34 201.89C467.2 199.93 458.8 196.71 453.66 194.75L431.84 186.41C426.7 184.45 426.7 181.23 431.84 179.27L453.66 170.93L472.34 163.79L494.16 155.45C499.3 153.49 503.5 156.38 503.5 161.88V172.85V172.83Z" fill="#FFFDC1"/>
<path d="M1467.37 804.13C1468.27 823.25 1483.02 836.13 1490.35 852.73C1497.62 869.22 1495.53 887.92 1489.12 904.31C1485.77 912.89 1481.05 920.98 1475.63 928.4C1470.26 935.75 1463.8 943.4 1456.16 948.46C1447 954.51 1436.81 953.72 1426.35 952.84C1414.69 951.86 1403.02 950.88 1391.36 949.9C1360.52 947.31 1319.99 942.96 1296.88 968.63C1286.31 980.38 1283.14 995.89 1277.01 1010C1274.32 1016.19 1270.86 1022.57 1265.22 1026.55C1256.94 1032.4 1246.62 1031.37 1237.2 1029.52C1227.24 1027.56 1217.48 1025.41 1207.32 1024.69C1197.16 1023.97 1187.68 1024.19 1177.87 1024.7C1158.26 1025.73 1138.68 1028.16 1119.02 1027.79C1100.64 1027.45 1082.19 1024.21 1066.36 1014.39C1051.19 1004.98 1039.85 990.72 1028.74 977.04C1017.63 963.36 1005.38 948.94 990.02 938.63C973.64 927.63 955.07 920.59 937.33 912.19C928.59 908.05 919.61 903.7 911.82 897.91C904.03 892.12 899.2 884.36 897.78 874.63C896.46 865.51 897.43 856.18 897.29 847C897.15 837.82 895.52 828.09 892.13 819.1C885.35 801.09 873.7 785.5 866.37 767.76C858.08 747.69 856.87 725.77 855.37 704.37C853.92 683.68 852.08 662.55 843.99 643.23C837.05 626.67 824.97 611.65 808.49 603.85C800.87 600.24 792.68 598.29 784.22 598.47C778.44 598.6 778.42 607.6 784.22 607.47C802.06 607.07 817.99 618.03 827.9 632.28C839.69 649.24 843.39 670.38 845.27 690.54C847.26 711.88 847.41 733.55 852.6 754.46C857.49 774.14 868.4 790.76 877.56 808.57C881.96 817.13 885.73 826.07 887.38 835.6C889.03 845.13 888.02 854.89 888.13 864.49C888.24 874.09 889.37 883.87 894.35 892.21C899.33 900.55 907.3 906.2 915.46 910.96C932.7 921.01 951.55 927.8 969.25 936.93C977.9 941.39 986.38 946.41 993.88 952.64C1000.9 958.48 1007.14 965.19 1013.06 972.13C1024.64 985.71 1035.1 1000.44 1048.59 1012.26C1062.83 1024.72 1079.89 1032.38 1098.59 1035.13C1137.82 1040.91 1177.29 1029.11 1216.51 1034.61C1235.46 1037.26 1256.37 1046.06 1272.95 1031.82C1284.52 1021.88 1287.95 1005.52 1293.37 991.96C1296.16 984.97 1299.75 978.27 1305.16 972.95C1310.57 967.63 1317.39 963.91 1324.58 961.54C1340.46 956.31 1357.66 956.45 1374.16 957.51C1385.03 958.21 1395.88 959.27 1406.73 960.18C1417.82 961.11 1429.24 962.93 1440.38 962.48C1460.65 961.66 1474.93 945.45 1485.62 929.75C1496.31 914.05 1503.18 896.7 1503.89 878.25C1504.23 869.46 1502.95 860.45 1499.78 852.22C1496.39 843.4 1491 835.78 1485.91 827.89C1481.23 820.63 1476.75 812.93 1476.33 804.1C1476.06 798.33 1467.06 798.3 1467.33 804.1L1467.37 804.13Z" fill="#8A9FAA"/>
<path d="M781 612.5C784.038 612.5 786.5 609.366 786.5 605.5C786.5 601.634 784.038 598.5 781 598.5C777.962 598.5 775.5 601.634 775.5 605.5C775.5 609.366 777.962 612.5 781 612.5Z" fill="#8A9FAA"/>
<path d="M709 587H734V598H709C706.79 598 705 596.21 705 594V591C705 588.79 706.79 587 709 587Z" fill="#8A9FAA"/>
<path d="M709 614H734V625H709C706.79 625 705 623.21 705 621V618C705 615.79 706.79 614 709 614Z" fill="#8A9FAA"/>
<path d="M779.5 595.5H765.5C763.843 595.5 762.5 596.843 762.5 598.5V612.5C762.5 614.157 763.843 615.5 765.5 615.5H779.5C781.157 615.5 782.5 614.157 782.5 612.5V598.5C782.5 596.843 781.157 595.5 779.5 595.5Z" fill="#8A9FAA"/>
<path d="M738.5 576.5H748.5C764.51 576.5 777.5 589.49 777.5 605.5C777.5 622.06 764.06 635.5 747.5 635.5H738.5C735.74 635.5 733.5 633.26 733.5 630.5V581.5C733.5 578.74 735.74 576.5 738.5 576.5Z" fill="#8A9FAA"/>
</g>
<defs>
<clipPath id="clip0_478_541">
<rect width="1921" height="1081" fill="white"/>
</clipPath>
</defs>
</svg>
