<svg width="1440" height="1024" viewBox="0 0 1440 1024" fill="none" xmlns="http://www.w3.org/2000/svg">
<rect width="1440" height="1024" fill="#141727"/>
<circle cx="641" cy="447" r="33" fill="#D9D9D9"/>
<rect x="570" y="425" width="53" height="14" fill="#D9D9D9"/>
<rect x="570" y="452" width="53" height="14" fill="#D9D9D9"/>
<circle cx="1118" cy="408" r="217" fill="#52B0F8"/>
<path d="M146.507 351H131.051L117.707 325.656H108.107V351H94.763V297.336C94.763 292.216 95.947 288.504 98.315 286.2C100.683 283.832 104.651 282.648 110.219 282.648H121.547C128.331 282.648 133.707 284.728 137.675 288.888C141.707 292.984 143.723 298.2 143.723 304.536C143.723 309.144 142.507 313.144 140.075 316.536C137.707 319.864 134.763 322.168 131.243 323.448L146.507 351ZM120.683 314.52C123.499 314.52 125.803 313.56 127.595 311.64C129.451 309.656 130.379 307.224 130.379 304.344C130.379 301.4 129.483 299.032 127.691 297.24C125.963 295.448 123.627 294.552 120.683 294.552H114.059C110.091 294.552 108.107 296.568 108.107 300.6V314.52H120.683ZM201.16 351H176.968C169.288 351 163.88 349.688 160.744 347.064C157.672 344.376 156.136 339.672 156.136 332.952V282.648H201.16V294.552H169.48V310.584H191.656L190.696 322.488H169.48V331.992C169.48 334.68 170.088 336.536 171.304 337.56C172.52 338.584 174.728 339.096 177.928 339.096H201.16V351ZM247.381 324.504H259.765C259.765 333.208 257.589 339.896 253.237 344.568C248.885 349.24 242.741 351.576 234.805 351.576C217.333 351.576 208.597 341.304 208.597 320.76V315C208.597 298.808 213.077 288.664 222.037 284.568C225.557 282.904 229.813 282.072 234.805 282.072C242.101 282.072 248.021 284.088 252.565 288.12C257.173 292.088 259.477 297.848 259.477 305.4H246.997C246.293 301.624 245.045 298.776 243.253 296.856C241.461 294.936 238.645 293.976 234.805 293.976C230.325 293.976 226.997 295.384 224.821 298.2C223.285 300.184 222.389 303.576 222.133 308.376C222.005 309.912 221.941 311.992 221.941 314.616V320.568C221.941 327.928 222.965 332.952 225.013 335.64C227.125 338.328 230.389 339.672 234.805 339.672C239.285 339.672 242.357 338.456 244.021 336.024C245.749 333.528 246.869 329.688 247.381 324.504ZM320.477 351H307.133V323.352H282.077V351H268.733V282.648H282.077V311.544H307.133V282.648H320.477V351ZM385.812 351H371.892L368.052 339.192H345.108L341.364 351H327.444L349.332 288.408C350.292 286.232 351.348 284.728 352.5 283.896C353.716 283.064 355.188 282.648 356.916 282.648C358.644 282.648 360.02 283.032 361.044 283.8C362.132 284.568 363.092 286.104 363.924 288.408L385.812 351ZM364.98 327.96L356.916 300.888L348.468 327.96H364.98ZM445.495 351H430.039L416.695 325.656H407.095V351H393.751V297.336C393.751 292.216 394.935 288.504 397.303 286.2C399.671 283.832 403.639 282.648 409.207 282.648H420.535C427.319 282.648 432.695 284.728 436.663 288.888C440.695 292.984 442.711 298.2 442.711 304.536C442.711 309.144 441.495 313.144 439.063 316.536C436.695 319.864 433.751 322.168 430.231 323.448L445.495 351ZM419.671 314.52C422.487 314.52 424.791 313.56 426.583 311.64C428.439 309.656 429.367 307.224 429.367 304.344C429.367 301.4 428.471 299.032 426.679 297.24C424.951 295.448 422.615 294.552 419.671 294.552H413.047C409.079 294.552 407.095 296.568 407.095 300.6V314.52H419.671ZM450.899 318.84V310.392C450.899 301.496 453.235 294.552 457.907 289.56C462.579 284.568 469.043 282.072 477.299 282.072C485.555 282.072 492.179 284.568 497.171 289.56C500.691 293.08 502.451 298.36 502.451 305.4H489.971C489.971 297.784 485.907 293.976 477.779 293.976C475.347 293.976 473.267 294.456 471.539 295.416C469.875 296.312 468.627 297.368 467.795 298.584C466.963 299.8 466.323 301.592 465.875 303.96C465.427 306.328 465.171 308.312 465.107 309.912C465.043 311.512 465.011 313.656 465.011 316.344C465.011 319.032 465.011 320.856 465.011 321.816C465.075 322.712 465.171 324.216 465.299 326.328C465.491 328.376 465.747 329.848 466.067 330.744C466.451 331.64 466.963 332.792 467.603 334.2C468.307 335.608 469.171 336.6 470.195 337.176C472.819 338.84 475.795 339.672 479.123 339.672C484.691 339.672 488.627 337.304 490.931 332.568V327.96H482.675V316.824H502.355V337.464C500.371 342.136 497.235 345.656 492.947 348.024C488.659 350.392 483.795 351.576 478.355 351.576C468.691 351.576 461.683 348.888 457.331 343.512C453.043 338.072 450.899 329.848 450.899 318.84ZM559.832 351H535.64C527.96 351 522.552 349.688 519.416 347.064C516.344 344.376 514.808 339.672 514.808 332.952V282.648H559.832V294.552H528.152V310.584H550.328L549.368 322.488H528.152V331.992C528.152 334.68 528.76 336.536 529.976 337.56C531.192 338.584 533.4 339.096 536.6 339.096H559.832V351ZM636.814 294.552H618.478V351H605.134V294.552H586.894V282.648H636.814V294.552ZM696.553 351H683.209V323.352H658.153V351H644.809V282.648H658.153V311.544H683.209V282.648H696.553V351ZM755.072 351H730.88C723.2 351 717.792 349.688 714.656 347.064C711.584 344.376 710.048 339.672 710.048 332.952V282.648H755.072V294.552H723.392V310.584H745.568L744.608 322.488H723.392V331.992C723.392 334.68 724 336.536 725.216 337.56C726.432 338.584 728.64 339.096 731.84 339.096H755.072V351ZM300.211 459.84C300.211 466.304 297.843 471.392 293.107 475.104C288.371 478.752 282.323 480.576 274.963 480.576C269.139 480.576 263.507 478.976 258.067 475.776C255.379 474.112 253.171 471.776 251.443 468.768C249.715 465.696 248.851 462.208 248.851 458.304L260.947 457.728C260.947 461.184 262.419 463.872 265.363 465.792C268.307 467.712 271.571 468.672 275.155 468.672C283.155 468.672 287.155 465.856 287.155 460.224C287.155 455.616 284.435 452.896 278.995 452.064L267.859 450.912C262.291 450.08 257.875 448.096 254.611 444.96C251.347 441.824 249.715 437.312 249.715 431.424C249.715 425.536 252.051 420.672 256.723 416.832C261.395 412.992 267.283 411.072 274.387 411.072C281.555 411.072 287.315 412.896 291.667 416.544C296.019 420.128 298.195 424.768 298.195 430.464L286.291 431.04C285.203 425.472 281.459 422.688 275.059 422.688C271.155 422.688 268.083 423.52 265.843 425.184C263.667 426.848 262.579 428.832 262.579 431.136C262.579 433.376 263.379 435.168 264.979 436.512C266.579 437.792 268.563 438.592 270.931 438.912L281.875 440.064C294.099 441.728 300.211 448.32 300.211 459.84ZM359.521 442.656V447.84C359.521 459.296 357.345 467.616 352.993 472.8C348.705 477.984 341.793 480.576 332.257 480.576C322.721 480.576 315.809 477.984 311.521 472.8C307.297 467.616 305.185 459.2 305.185 447.552V442.56C305.185 431.936 307.329 424.032 311.617 418.848C315.969 413.664 322.817 411.072 332.161 411.072C341.569 411.072 348.481 413.696 352.897 418.944C357.313 424.192 359.521 432.096 359.521 442.656ZM346.177 447.552V444C346.177 437.856 345.409 432.96 343.873 429.312C342.081 425.088 338.241 422.976 332.353 422.976C326.401 422.976 322.529 425.088 320.737 429.312C319.265 432.768 318.529 437.664 318.529 444V447.552C318.529 455.808 319.681 461.376 321.985 464.256C322.881 465.472 324.193 466.528 325.921 467.424C327.713 468.256 329.825 468.672 332.257 468.672C334.753 468.672 336.865 468.256 338.593 467.424C340.321 466.592 341.665 465.568 342.625 464.352C343.585 463.136 344.321 461.536 344.833 459.552C345.729 456.416 346.177 452.416 346.177 447.552ZM419.959 411.648V456.576C419.959 464 417.431 469.856 412.375 474.144C407.383 478.432 401.207 480.576 393.847 480.576C386.487 480.576 380.279 478.432 375.223 474.144C370.231 469.856 367.735 464 367.735 456.576V411.648H381.079V456.096C381.079 460.32 382.231 463.488 384.535 465.6C386.903 467.648 390.007 468.672 393.847 468.672C397.687 468.672 400.791 467.648 403.159 465.6C405.527 463.488 406.711 460.32 406.711 456.096V411.648H419.959ZM484.18 480H468.724L455.38 454.656H445.78V480H432.435V426.336C432.435 421.216 433.619 417.504 435.987 415.2C438.355 412.832 442.323 411.648 447.892 411.648H459.22C466.004 411.648 471.38 413.728 475.348 417.888C479.38 421.984 481.396 427.2 481.396 433.536C481.396 438.144 480.18 442.144 477.747 445.536C475.379 448.864 472.436 451.168 468.916 452.448L484.18 480ZM458.356 443.52C461.172 443.52 463.476 442.56 465.267 440.64C467.124 438.656 468.052 436.224 468.052 433.344C468.052 430.4 467.156 428.032 465.364 426.24C463.636 424.448 461.3 423.552 458.356 423.552H451.731C447.764 423.552 445.78 425.568 445.78 429.6V443.52H458.356ZM528.368 453.504H540.752C540.752 462.208 538.576 468.896 534.224 473.568C529.872 478.24 523.728 480.576 515.792 480.576C498.32 480.576 489.584 470.304 489.584 449.76V444C489.584 427.808 494.064 417.664 503.024 413.568C506.544 411.904 510.8 411.072 515.792 411.072C523.088 411.072 529.008 413.088 533.552 417.12C538.16 421.088 540.464 426.848 540.464 434.4H527.984C527.28 430.624 526.032 427.776 524.24 425.856C522.448 423.936 519.632 422.976 515.792 422.976C511.312 422.976 507.984 424.384 505.808 427.2C504.272 429.184 503.376 432.576 503.12 437.376C502.992 438.912 502.928 440.992 502.928 443.616V449.568C502.928 456.928 503.952 461.952 506 464.64C508.112 467.328 511.376 468.672 515.792 468.672C520.272 468.672 523.344 467.456 525.008 465.024C526.736 462.528 527.856 458.688 528.368 453.504ZM595.704 480H571.512C563.832 480 558.424 478.688 555.288 476.064C552.216 473.376 550.68 468.672 550.68 461.952V411.648H595.704V423.552H564.024V439.584H586.2L585.24 451.488H564.024V460.992C564.024 463.68 564.632 465.536 565.848 466.56C567.064 467.584 569.272 468.096 572.472 468.096H595.704V480Z" fill="white"/>
<path d="M205.591 847.104C206.176 845.233 208.824 845.233 209.409 847.104L223.575 892.403C223.978 893.691 223.016 895 221.667 895H193.333C191.984 895 191.022 893.691 191.425 892.403L205.591 847.104Z" fill="#FFFDC1"/>
<path d="M209.423 943.279C208.87 945.212 206.13 945.212 205.577 943.279L192.208 896.55C191.843 895.272 192.802 894 194.131 894H220.869C222.198 894 223.157 895.272 222.792 896.55L209.423 943.279Z" fill="#FFFDC1"/>
<path d="M171.822 895.796C170.913 895.491 170.913 894.206 171.822 893.901L193.932 886.474C194.58 886.256 195.25 886.738 195.25 887.422V902.275C195.25 902.959 194.58 903.441 193.932 903.223L171.822 895.796Z" fill="#FFFDC1"/>
<path d="M243.178 893.9C244.087 894.206 244.087 895.491 243.178 895.796L221.068 903.223C220.42 903.441 219.75 902.959 219.75 902.275V887.422C219.75 886.738 220.42 886.256 221.068 886.474L243.178 893.9Z" fill="#FFFDC1"/>
<path d="M853.591 220.104C854.176 218.233 856.824 218.233 857.409 220.104L871.575 265.403C871.978 266.691 871.016 268 869.667 268H841.333C839.984 268 839.022 266.691 839.425 265.403L853.591 220.104Z" fill="#FFFDC1"/>
<path d="M857.423 316.279C856.87 318.212 854.13 318.212 853.577 316.279L840.208 269.55C839.843 268.272 840.802 267 842.131 267H868.869C870.198 267 871.157 268.272 870.792 269.55L857.423 316.279Z" fill="#FFFDC1"/>
<path d="M819.822 268.796C818.913 268.491 818.913 267.206 819.822 266.901L841.932 259.474C842.58 259.256 843.25 259.738 843.25 260.422V275.275C843.25 275.959 842.58 276.441 841.932 276.223L819.822 268.796Z" fill="#FFFDC1"/>
<path d="M891.178 266.901C892.087 267.206 892.087 268.491 891.178 268.796L869.068 276.223C868.42 276.441 867.75 275.959 867.75 275.275V260.422C867.75 259.738 868.42 259.256 869.068 259.474L891.178 266.901Z" fill="#FFFDC1"/>
<path d="M323.591 528.104C324.176 526.233 326.824 526.233 327.409 528.104L341.575 573.403C341.978 574.691 341.016 576 339.667 576H311.333C309.984 576 309.022 574.691 309.425 573.403L323.591 528.104Z" fill="#FFFDC1"/>
<path d="M327.423 624.279C326.87 626.212 324.13 626.212 323.577 624.279L310.208 577.55C309.843 576.272 310.802 575 312.131 575H338.869C340.198 575 341.157 576.272 340.792 577.55L327.423 624.279Z" fill="#FFFDC1"/>
<path d="M289.822 576.796C288.913 576.491 288.913 575.206 289.822 574.901L311.932 567.474C312.58 567.256 313.25 567.738 313.25 568.422V583.275C313.25 583.959 312.58 584.441 311.932 584.223L289.822 576.796Z" fill="#FFFDC1"/>
<path d="M361.178 574.901C362.087 575.206 362.087 576.491 361.178 576.796L339.068 584.223C338.42 584.441 337.75 583.959 337.75 583.275V568.422C337.75 567.738 338.42 567.256 339.068 567.474L361.178 574.901Z" fill="#FFFDC1"/>
<path d="M116.092 121.325C116.678 119.457 119.321 119.457 119.908 121.325L129.904 153.151C130.309 154.439 129.346 155.75 127.996 155.75H108.004C106.654 155.75 105.691 154.439 106.096 153.151L116.092 121.325Z" fill="#FFFDC1"/>
<path d="M119.922 190.31C119.368 192.24 116.632 192.24 116.078 190.31L106.665 157.552C106.298 156.274 107.257 155 108.587 155H127.413C128.743 155 129.702 156.274 129.335 157.552L119.922 190.31Z" fill="#FFFDC1"/>
<path d="M91.8355 156.585C90.925 156.28 90.925 154.993 91.8355 154.688L107.456 149.464C108.103 149.247 108.773 149.729 108.773 150.412V160.861C108.773 161.544 108.103 162.026 107.456 161.809L91.8355 156.585Z" fill="#FFFDC1"/>
<path d="M144.165 154.688C145.075 154.993 145.075 156.28 144.165 156.585L128.544 161.809C127.897 162.026 127.227 161.544 127.227 160.861V150.412C127.227 149.729 127.897 149.247 128.544 149.464L144.165 154.688Z" fill="#FFFDC1"/>
<path d="M1012.59 711.102C1013.18 709.237 1015.82 709.237 1016.41 711.102L1019.6 721.247C1020.01 722.536 1019.05 723.848 1017.69 723.848H1011.31C1009.95 723.848 1008.99 722.536 1009.4 721.247L1012.59 711.102Z" fill="#FFFDC1"/>
<path d="M1016.42 736.329C1015.87 738.258 1013.13 738.258 1012.58 736.329L1009.62 726.054C1009.25 724.775 1010.21 723.5 1011.54 723.5H1017.46C1018.79 723.5 1019.75 724.775 1019.38 726.054L1016.42 736.329Z" fill="#FFFDC1"/>
<path d="M1003.84 724.744C1002.93 724.44 1002.93 723.151 1003.84 722.847L1008.89 721.164C1009.54 720.948 1010.2 721.43 1010.2 722.113V725.478C1010.2 726.161 1009.54 726.643 1008.89 726.427L1003.84 724.744Z" fill="#FFFDC1"/>
<path d="M1025.16 722.847C1026.07 723.151 1026.07 724.44 1025.16 724.744L1020.11 726.427C1019.46 726.643 1018.8 726.161 1018.8 725.478V722.113C1018.8 721.43 1019.46 720.948 1020.11 721.164L1025.16 722.847Z" fill="#FFFDC1"/>
<path d="M1332.09 591.592C1332.69 589.735 1335.31 589.735 1335.91 591.592L1342.38 611.929C1342.79 613.219 1341.83 614.536 1340.48 614.536H1327.52C1326.17 614.536 1325.21 613.219 1325.62 611.929L1332.09 591.592Z" fill="#FFFDC1"/>
<path d="M1335.92 637.408C1335.36 639.329 1332.64 639.329 1332.08 637.408L1326.01 616.559C1325.63 615.279 1326.59 614 1327.93 614H1340.07C1341.41 614 1342.37 615.279 1341.99 616.559L1335.92 637.408Z" fill="#FFFDC1"/>
<path d="M1315.88 615.404C1314.96 615.102 1314.96 613.807 1315.88 613.505L1326 610.164C1326.65 609.951 1327.32 610.432 1327.32 611.114V617.795C1327.32 618.477 1326.65 618.959 1326 618.745L1315.88 615.404Z" fill="#FFFDC1"/>
<path d="M1352.12 613.505C1353.04 613.807 1353.04 615.102 1352.12 615.404L1342 618.745C1341.35 618.958 1340.68 618.477 1340.68 617.795V611.114C1340.68 610.432 1341.35 609.951 1342 610.164L1352.12 613.505Z" fill="#FFFDC1"/>
<path d="M808.09 435.154C808.674 433.279 811.326 433.279 811.91 435.154L814.895 444.745C815.296 446.032 814.333 447.339 812.985 447.339H807.015C805.667 447.339 804.705 446.032 805.105 444.745L808.09 435.154Z" fill="#FFFDC1"/>
<path d="M811.924 459.244C811.372 461.181 808.628 461.181 808.076 459.244L805.316 449.548C804.952 448.27 805.911 447 807.239 447H812.761C814.089 447 815.048 448.27 814.684 449.548L811.924 459.244Z" fill="#FFFDC1"/>
<path d="M799.807 448.235C798.9 447.929 798.9 446.647 799.807 446.34L804.544 444.742C805.192 444.523 805.864 445.005 805.864 445.689V448.887C805.864 449.571 805.192 450.053 804.544 449.834L799.807 448.235Z" fill="#FFFDC1"/>
<path d="M820.193 446.34C821.1 446.646 821.1 447.929 820.193 448.235L815.456 449.834C814.808 450.053 814.136 449.571 814.136 448.887V445.689C814.136 445.005 814.808 444.523 815.456 444.742L820.193 446.34Z" fill="#FFFDC1"/>
<path d="M171.09 424.154C171.674 422.279 174.326 422.279 174.91 424.154L177.895 433.745C178.295 435.032 177.333 436.339 175.985 436.339H170.015C168.666 436.339 167.704 435.032 168.105 433.745L171.09 424.154Z" fill="#FFFDC1"/>
<path d="M174.923 448.244C174.372 450.181 171.628 450.181 171.076 448.244L168.316 438.548C167.952 437.27 168.911 436 170.239 436H175.761C177.089 436 178.048 437.27 177.684 438.548L174.923 448.244Z" fill="#FFFDC1"/>
<path d="M162.807 437.235C161.9 436.929 161.9 435.647 162.807 435.34L167.544 433.742C168.192 433.523 168.864 434.005 168.864 434.689V437.887C168.864 438.571 168.192 439.053 167.544 438.834L162.807 437.235Z" fill="#FFFDC1"/>
<path d="M183.193 435.34C184.1 435.646 184.1 436.929 183.193 437.235L178.456 438.834C177.808 439.053 177.136 438.571 177.136 437.887V434.689C177.136 434.005 177.808 433.523 178.456 433.742L183.193 435.34Z" fill="#FFFDC1"/>
<path d="M355.092 758.637C355.678 756.768 358.322 756.768 358.908 758.637L364.957 777.919C365.362 779.208 364.399 780.518 363.049 780.518H350.951C349.601 780.518 348.638 779.208 349.042 777.919L355.092 758.637Z" fill="#FFFDC1"/>
<path d="M358.922 802.302C358.368 804.233 355.632 804.233 355.078 802.302L349.409 782.552C349.043 781.274 350.002 780 351.332 780H362.668C363.998 780 364.957 781.274 364.59 782.552L358.922 802.302Z" fill="#FFFDC1"/>
<path d="M339.832 781.388C338.922 781.083 338.922 779.796 339.832 779.491L349.319 776.314C349.967 776.097 350.636 776.579 350.636 777.262V783.616C350.636 784.299 349.967 784.781 349.319 784.564L339.832 781.388Z" fill="#FFFDC1"/>
<path d="M374.168 779.491C375.078 779.796 375.078 781.083 374.168 781.388L364.681 784.565C364.033 784.781 363.364 784.299 363.364 783.616V777.263C363.364 776.579 364.033 776.097 364.681 776.314L374.168 779.491Z" fill="#FFFDC1"/>
<path d="M67.0917 651.637C67.6778 649.768 70.3221 649.768 70.9083 651.637L76.9575 670.919C77.3616 672.208 76.3994 673.518 75.0492 673.518H62.9508C61.6006 673.518 60.6383 672.208 61.0425 670.919L67.0917 651.637Z" fill="#FFFDC1"/>
<path d="M70.9224 695.302C70.3682 697.233 67.6318 697.233 67.0776 695.302L61.4094 675.552C61.0426 674.274 62.0021 673 63.3318 673H74.6681C75.9978 673 76.9573 674.274 76.5905 675.552L70.9224 695.302Z" fill="#FFFDC1"/>
<path d="M51.8317 674.388C50.9218 674.083 50.9218 672.796 51.8317 672.491L61.3188 669.314C61.9666 669.097 62.6364 669.579 62.6364 670.262V676.616C62.6364 677.299 61.9666 677.781 61.3188 677.564L51.8317 674.388Z" fill="#FFFDC1"/>
<path d="M86.1683 672.491C87.0782 672.796 87.0782 674.083 86.1683 674.388L76.6812 677.565C76.0334 677.781 75.3636 677.299 75.3636 676.616V670.263C75.3636 669.579 76.0334 669.097 76.6812 669.314L86.1683 672.491Z" fill="#FFFDC1"/>
<path d="M1336.61 172.727C1337.22 170.921 1339.78 170.921 1340.39 172.727L1344.83 185.747C1345.28 187.045 1344.31 188.393 1342.94 188.393H1334.06C1332.69 188.393 1331.72 187.045 1332.17 185.747L1336.61 172.727Z" fill="#FFFDC1"/>
<path d="M1340.41 203.883C1339.82 205.755 1337.18 205.755 1336.59 203.883L1332.44 190.596C1332.04 189.308 1333 188 1334.35 188H1342.65C1344 188 1344.96 189.308 1344.56 190.596L1340.41 203.883Z" fill="#FFFDC1"/>
<path d="M1325.1 189.289C1324.16 188.999 1324.16 187.667 1325.1 187.378L1331.96 185.268C1332.6 185.07 1333.25 185.551 1333.25 186.223V190.443C1333.25 191.116 1332.6 191.597 1331.96 191.399L1325.1 189.289Z" fill="#FFFDC1"/>
<path d="M1351.9 187.378C1352.84 187.667 1352.84 188.999 1351.9 189.289L1345.04 191.399C1344.4 191.597 1343.75 191.116 1343.75 190.443V186.223C1343.75 185.551 1344.4 185.07 1345.04 185.268L1351.9 187.378Z" fill="#FFFDC1"/>
<path d="M287.092 198.637C287.678 196.768 290.322 196.768 290.908 198.637L296.957 217.919C297.362 219.207 296.399 220.518 295.049 220.518H282.951C281.601 220.518 280.638 219.207 281.042 217.919L287.092 198.637Z" fill="#FFFDC1"/>
<path d="M290.922 242.302C290.368 244.233 287.632 244.233 287.078 242.302L281.409 222.552C281.043 221.274 282.002 220 283.332 220H294.668C295.998 220 296.957 221.274 296.59 222.552L290.922 242.302Z" fill="#FFFDC1"/>
<path d="M271.832 221.388C270.922 221.083 270.922 219.796 271.832 219.491L281.319 216.314C281.967 216.097 282.636 216.579 282.636 217.263V223.616C282.636 224.299 281.967 224.781 281.319 224.565L271.832 221.388Z" fill="#FFFDC1"/>
<path d="M306.168 219.491C307.078 219.796 307.078 221.083 306.168 221.388L296.681 224.565C296.033 224.781 295.364 224.299 295.364 223.616V217.263C295.364 216.579 296.033 216.097 296.681 216.314L306.168 219.491Z" fill="#FFFDC1"/>
<path d="M698.092 638.637C698.678 636.768 701.322 636.768 701.908 638.637L707.957 657.919C708.362 659.208 707.399 660.518 706.049 660.518H693.951C692.601 660.518 691.638 659.208 692.042 657.919L698.092 638.637Z" fill="#FFFDC1"/>
<path d="M701.922 682.302C701.368 684.233 698.632 684.233 698.078 682.302L692.409 662.552C692.043 661.274 693.002 660 694.332 660H705.668C706.998 660 707.957 661.274 707.59 662.552L701.922 682.302Z" fill="#FFFDC1"/>
<path d="M682.832 661.388C681.922 661.083 681.922 659.796 682.832 659.491L692.319 656.314C692.967 656.097 693.636 656.579 693.636 657.262V663.616C693.636 664.299 692.967 664.781 692.319 664.564L682.832 661.388Z" fill="#FFFDC1"/>
<path d="M717.168 659.491C718.078 659.796 718.078 661.083 717.168 661.388L707.681 664.565C707.033 664.781 706.364 664.299 706.364 663.616V657.263C706.364 656.579 707.033 656.097 707.681 656.314L717.168 659.491Z" fill="#FFFDC1"/>
<path d="M661.883 454.763C665.213 454.763 668.753 455.85 672.009 456.573C675.022 457.243 678.924 457.186 681.695 458.726C685.175 460.659 689.631 459.797 692.898 461.808C697.106 464.398 701.971 465.156 706.107 467.58C714.876 472.721 725.696 475.719 731.839 484.654C738.908 494.936 747.353 504.2 753.853 515.033C758.37 522.562 763.236 530.179 767.159 538.026C772.257 548.222 779.489 557.733 783.596 568.356C788.203 580.269 794.225 592.744 796.218 605.438C797.336 612.556 798.764 619.713 799.642 626.865C800.461 633.53 799.558 640.288 800.523 646.922C802.194 658.413 804.246 670.085 808.105 681.02C812.39 693.158 818.787 704.19 823.907 715.851C828.797 726.991 836.787 736.704 843.23 747.013C848.833 755.978 855.868 764.458 863.043 772.207C867.297 776.802 871.119 781.767 875.42 786.345C881.803 793.14 885.751 801.76 891.906 808.751C905.776 824.504 919.966 841.523 937.304 853.66C948.637 861.593 957.833 870.19 970.912 875.576C981.925 880.11 995.228 880.174 1006.72 877.875C1040.74 871.072 1073.66 860.28 1103.44 842.212C1123.84 829.83 1145.59 810.653 1156.27 788.987C1161.28 778.821 1166.16 768.645 1169.48 757.776C1173.02 746.187 1172.78 734.465 1173.44 722.455C1173.88 714.539 1174.59 705.817 1170.41 698.778C1167.6 694.041 1165.16 688.749 1162.92 683.71C1160.64 678.573 1154.31 676.099 1152.55 670.502C1150.95 665.398 1147.2 660.802 1145.51 655.728C1144.77 653.523 1145.1 650.911 1144.43 648.586C1143.87 646.615 1142.5 644.797 1141.99 642.813C1141.11 639.399 1141.57 635.714 1140.03 632.638" stroke="#D9D9D9" stroke-width="11" stroke-linecap="round"/>
<path d="M1066.5 255.511C1066.5 245.518 1076.67 238.742 1085.89 242.59L1136.28 263.612C1139.92 265.133 1142.75 268.122 1144.08 271.844L1179.5 371.5L1137.61 404.081C1133.03 407.645 1126.72 408.012 1121.76 405.002L1073.24 375.587C1069.06 373.05 1066.5 368.511 1066.5 363.616V255.511Z" fill="#20D7C4"/>
<path d="M1194.66 213.914C1198.54 210.291 1204.15 209.179 1209.12 211.045L1213 212.5L1232.57 222.999C1233.19 223.333 1233.78 223.712 1234.35 224.135L1249.5 235.5L1262.04 245.38C1264.6 247.397 1266.38 250.243 1267.06 253.428L1290.65 362.901C1291.78 368.158 1289.8 373.599 1285.56 376.9L1250.61 404.081C1246.03 407.645 1239.72 408.012 1234.76 405.002L1179.5 371.5L1138.54 279.115C1136.12 273.659 1137.43 267.27 1141.79 263.201L1194.66 213.914Z" fill="#20D7C4"/>
<path d="M933.297 291.583C933.764 290.532 934.359 289.542 935.068 288.637L954.383 263.972C960.315 256.398 971.944 256.926 977.165 265.007L1018.68 329.273C1021.88 334.213 1021.64 340.621 1018.09 345.313L942.993 444.652C936.758 452.9 924.04 451.775 919.349 442.561L903.024 410.493C902.022 408.526 901.5 406.349 901.5 404.141V379.248C901.5 378.087 901.644 376.931 901.93 375.805L909.707 345.154C909.902 344.386 910.162 343.636 910.484 342.912L933.297 291.583Z" fill="#20D7C4"/>
<path d="M1074.76 421.895C1077.18 419.701 1080.28 418.42 1083.55 418.274L1161.89 414.766C1170.73 414.37 1177.72 422.175 1176.35 430.918L1166 497L1158.4 575.211C1157.25 587.032 1142.83 592.143 1134.49 583.684L1088.31 536.828C1087.44 535.947 1086.69 534.954 1086.08 533.875L1045.98 462.731C1042.78 457.039 1043.93 449.884 1048.77 445.491L1074.76 421.895Z" fill="#20D7C4"/>
<path d="M1177.77 539.406C1178.02 538.73 1178.44 538.132 1178.99 537.674L1180.33 536.562C1183.12 534.248 1187.19 537.074 1186 540.5V540.5L1181.27 555.692C1181.05 556.41 1180.62 557.051 1180.05 557.54L1174.58 562.235C1174.15 562.598 1173.84 563.076 1173.69 563.612L1172.5 567.659C1171.76 570.193 1168.02 569.651 1168.03 567.01V567.01C1168.03 566.75 1168.07 566.492 1168.16 566.247L1177.77 539.406Z" fill="#20D7C4"/>
</svg>
