<svg width="357" height="145" viewBox="0 0 357 145" fill="none" xmlns="http://www.w3.org/2000/svg">
<rect x="86" y="25" width="60" height="12" fill="black"/>
<path d="M143.959 36.0463C143.967 39.2617 141.45 42.658 136.281 45.3688C131.206 48.0299 124.052 49.7359 116.036 49.7359C108.019 49.7359 100.857 48.0299 95.7682 45.3688C90.5849 42.658 88.0496 39.2617 88.0411 36.0463C88.0327 32.8309 90.5502 29.4346 95.7193 26.7238C100.794 24.0627 107.948 22.3567 115.964 22.3567C123.981 22.3567 131.144 24.0627 136.232 26.7238C141.415 29.4346 143.951 32.8309 143.959 36.0463Z" fill="#FFD700" stroke="black" stroke-width="4"/>
<path d="M144.068 24.9126C144.071 26.0219 143.56 27.2441 142.293 28.5367C141.017 29.838 139.071 31.1016 136.507 32.206C131.386 34.4117 124.168 35.8251 116.087 35.8251C108.005 35.8251 100.78 34.4117 95.6477 32.206C93.0782 31.1016 91.1252 29.838 89.8425 28.5367C88.5686 27.2441 88.0514 26.0219 88.0484 24.9126C88.0455 23.8032 88.5564 22.581 89.8235 21.2884C91.0993 19.9871 93.0457 18.7235 95.6094 17.6191C100.73 15.4134 107.948 14 116.029 14C124.111 14 131.336 15.4134 136.469 17.6191C139.038 18.7235 140.991 19.9871 142.274 21.2884C143.548 22.581 144.065 23.8032 144.068 24.9126Z" fill="#FFD700" stroke="black" stroke-width="4"/>
<rect x="116" y="15" width="60" height="12" fill="black"/>
<path d="M173.959 26.0463C173.967 29.2617 171.45 32.658 166.281 35.3688C161.206 38.0299 154.052 39.7359 146.036 39.7359C138.019 39.7359 130.857 38.0299 125.768 35.3688C120.585 32.658 118.05 29.2617 118.041 26.0463C118.033 22.8309 120.55 19.4346 125.719 16.7238C130.794 14.0627 137.948 12.3567 145.964 12.3567C153.981 12.3567 161.144 14.0627 166.232 16.7238C171.415 19.4346 173.951 22.8309 173.959 26.0463Z" fill="#C0C0C0" stroke="black" stroke-width="4"/>
<path d="M174.068 14.9126C174.071 16.0219 173.56 17.2441 172.293 18.5367C171.017 19.838 169.071 21.1016 166.507 22.206C161.386 24.4117 154.168 25.8251 146.087 25.8251C138.005 25.8251 130.78 24.4117 125.648 22.206C123.078 21.1016 121.125 19.838 119.843 18.5367C118.569 17.2441 118.051 16.0219 118.048 14.9126C118.046 13.8032 118.556 12.581 119.824 11.2884C121.099 9.98711 123.046 8.72351 125.609 7.61914C130.73 5.41337 137.948 3.99999 146.029 3.99999C154.111 3.99999 161.336 5.41337 166.469 7.61914C169.038 8.72351 170.991 9.98711 172.274 11.2884C173.548 12.581 174.065 13.8032 174.068 14.9126Z" fill="#C0C0C0" stroke="black" stroke-width="4"/>
<rect x="154" y="15" width="60" height="12" fill="black"/>
<path d="M211.959 26.0463C211.967 29.2617 209.45 32.658 204.281 35.3688C199.206 38.0299 192.052 39.7359 184.036 39.7359C176.019 39.7359 168.857 38.0299 163.768 35.3688C158.585 32.658 156.05 29.2617 156.041 26.0463C156.033 22.8309 158.55 19.4346 163.719 16.7238C168.794 14.0627 175.948 12.3567 183.964 12.3567C191.981 12.3567 199.144 14.0627 204.232 16.7238C209.415 19.4346 211.951 22.8309 211.959 26.0463Z" fill="#FFD700" stroke="black" stroke-width="4"/>
<path d="M212.068 14.9126C212.071 16.0219 211.56 17.2441 210.293 18.5367C209.017 19.838 207.071 21.1016 204.507 22.206C199.386 24.4117 192.168 25.8251 184.087 25.8251C176.005 25.8251 168.78 24.4117 163.648 22.206C161.078 21.1016 159.125 19.838 157.843 18.5367C156.569 17.2441 156.051 16.0219 156.048 14.9126C156.046 13.8032 156.556 12.581 157.824 11.2884C159.099 9.98711 161.046 8.72351 163.609 7.61914C168.73 5.41337 175.948 3.99999 184.029 3.99999C192.111 3.99999 199.336 5.41337 204.469 7.61914C207.038 8.72351 208.991 9.98711 210.274 11.2884C211.548 12.581 212.065 13.8032 212.068 14.9126Z" fill="#FFD700" stroke="black" stroke-width="4"/>
<rect x="192" y="30" width="60" height="12" fill="black"/>
<path d="M249.959 41.0463C249.967 44.2617 247.45 47.658 242.281 50.3688C237.206 53.0299 230.052 54.7359 222.036 54.7359C214.019 54.7359 206.857 53.0299 201.768 50.3688C196.585 47.658 194.05 44.2617 194.041 41.0463C194.033 37.8309 196.55 34.4346 201.719 31.7238C206.794 29.0627 213.948 27.3567 221.964 27.3567C229.981 27.3567 237.144 29.0627 242.232 31.7238C247.415 34.4346 249.951 37.8309 249.959 41.0463Z" fill="#C0C0C0" stroke="black" stroke-width="4"/>
<path d="M250.068 29.9126C250.071 31.0219 249.56 32.2441 248.293 33.5367C247.017 34.838 245.071 36.1016 242.507 37.206C237.386 39.4117 230.168 40.8251 222.087 40.8251C214.005 40.8251 206.78 39.4117 201.648 37.206C199.078 36.1016 197.125 34.838 195.843 33.5367C194.569 32.2441 194.051 31.0219 194.048 29.9126C194.046 28.8032 194.556 27.581 195.824 26.2884C197.099 24.9871 199.046 23.7235 201.609 22.6191C206.73 20.4134 213.948 19 222.029 19C230.111 19 237.336 20.4134 242.469 22.6191C245.038 23.7235 246.991 24.9871 248.274 26.2884C249.548 27.581 250.065 28.8032 250.068 29.9126Z" fill="#C0C0C0" stroke="black" stroke-width="4"/>
<rect x="68" y="45" width="60" height="12" fill="black"/>
<path d="M125.959 56.0463C125.967 59.2617 123.45 62.658 118.281 65.3688C113.206 68.0299 106.052 69.7359 98.0359 69.7359C90.0194 69.7359 82.8565 68.0299 77.7682 65.3688C72.5849 62.658 70.0496 59.2617 70.0411 56.0463C70.0327 52.8309 72.5502 49.4346 77.7193 46.7238C82.7937 44.0627 89.9476 42.3567 97.9642 42.3567C105.981 42.3567 113.144 44.0627 118.232 46.7238C123.415 49.4346 125.951 52.8309 125.959 56.0463Z" fill="#B87333" stroke="black" stroke-width="4"/>
<path d="M126.068 44.9126C126.071 46.0219 125.56 47.2441 124.293 48.5367C123.017 49.838 121.071 51.1016 118.507 52.206C113.386 54.4117 106.168 55.8251 98.0867 55.8251C90.0051 55.8251 82.7798 54.4117 77.6477 52.206C75.0782 51.1016 73.1252 49.838 71.8425 48.5367C70.5686 47.2441 70.0514 46.0219 70.0484 44.9126C70.0455 43.8032 70.5564 42.581 71.8235 41.2884C73.0993 39.9871 75.0457 38.7235 77.6094 37.6191C82.73 35.4134 89.9478 34 98.0295 34C106.111 34 113.336 35.4134 118.469 37.6191C121.038 38.7235 122.991 39.9871 124.274 41.2884C125.548 42.581 126.065 43.8032 126.068 44.9126Z" fill="#B87333" stroke="black" stroke-width="4"/>
<rect x="128" y="47" width="60" height="12" fill="black"/>
<path d="M185.959 58.0463C185.967 61.2617 183.45 64.658 178.281 67.3688C173.206 70.0299 166.052 71.7359 158.036 71.7359C150.019 71.7359 142.857 70.0299 137.768 67.3688C132.585 64.658 130.05 61.2617 130.041 58.0463C130.033 54.8309 132.55 51.4346 137.719 48.7238C142.794 46.0627 149.948 44.3567 157.964 44.3567C165.981 44.3567 173.144 46.0627 178.232 48.7238C183.415 51.4346 185.951 54.8309 185.959 58.0463Z" fill="#FFD700" stroke="black" stroke-width="4"/>
<path d="M186.068 46.9126C186.071 48.0219 185.56 49.2441 184.293 50.5367C183.017 51.838 181.071 53.1016 178.507 54.206C173.386 56.4117 166.168 57.8251 158.087 57.8251C150.005 57.8251 142.78 56.4117 137.648 54.206C135.078 53.1016 133.125 51.838 131.843 50.5367C130.569 49.2441 130.051 48.0219 130.048 46.9126C130.046 45.8032 130.556 44.581 131.824 43.2884C133.099 41.9871 135.046 40.7235 137.609 39.6191C142.73 37.4134 149.948 36 158.029 36C166.111 36 173.336 37.4134 178.469 39.6191C181.038 40.7235 182.991 41.9871 184.274 43.2884C185.548 44.581 186.065 45.8032 186.068 46.9126Z" fill="#FFD700" stroke="black" stroke-width="4"/>
<rect x="96" y="25" width="60" height="12" fill="black"/>
<path d="M153.959 36.0463C153.967 39.2617 151.45 42.658 146.281 45.3688C141.206 48.0299 134.052 49.7359 126.036 49.7359C118.019 49.7359 110.857 48.0299 105.768 45.3688C100.585 42.658 98.0496 39.2617 98.0411 36.0463C98.0327 32.8309 100.55 29.4346 105.719 26.7238C110.794 24.0627 117.948 22.3567 125.964 22.3567C133.981 22.3567 141.144 24.0627 146.232 26.7238C151.415 29.4346 153.951 32.8309 153.959 36.0463Z" fill="#B87333" stroke="black" stroke-width="4"/>
<path d="M154.068 24.9126C154.071 26.0219 153.56 27.2441 152.293 28.5367C151.017 29.838 149.071 31.1016 146.507 32.206C141.386 34.4117 134.168 35.8251 126.087 35.8251C118.005 35.8251 110.78 34.4117 105.648 32.206C103.078 31.1016 101.125 29.838 99.8425 28.5367C98.5686 27.2441 98.0514 26.0219 98.0484 24.9126C98.0455 23.8032 98.5564 22.581 99.8235 21.2884C101.099 19.9871 103.046 18.7235 105.609 17.6191C110.73 15.4134 117.948 14 126.029 14C134.111 14 141.336 15.4134 146.469 17.6191C149.038 18.7235 150.991 19.9871 152.274 21.2884C153.548 22.581 154.065 23.8032 154.068 24.9126Z" fill="#B87333" stroke="black" stroke-width="4"/>
<rect x="188" y="46" width="60" height="12" fill="black"/>
<path d="M245.959 57.0463C245.967 60.2617 243.45 63.658 238.281 66.3688C233.206 69.0299 226.052 70.7359 218.036 70.7359C210.019 70.7359 202.857 69.0299 197.768 66.3688C192.585 63.658 190.05 60.2617 190.041 57.0463C190.033 53.8309 192.55 50.4346 197.719 47.7238C202.794 45.0627 209.948 43.3567 217.964 43.3567C225.981 43.3567 233.144 45.0627 238.232 47.7238C243.415 50.4346 245.951 53.8309 245.959 57.0463Z" fill="#B1B1B1" stroke="black" stroke-width="4"/>
<path d="M246.068 45.9126C246.071 47.0219 245.56 48.2441 244.293 49.5367C243.017 50.838 241.071 52.1016 238.507 53.206C233.386 55.4117 226.168 56.8251 218.087 56.8251C210.005 56.8251 202.78 55.4117 197.648 53.206C195.078 52.1016 193.125 50.838 191.843 49.5367C190.569 48.2441 190.051 47.0219 190.048 45.9126C190.046 44.8032 190.556 43.581 191.824 42.2884C193.099 40.9871 195.046 39.7235 197.609 38.6191C202.73 36.4134 209.948 35 218.029 35C226.111 35 233.336 36.4134 238.469 38.6191C241.038 39.7235 242.991 40.9871 244.274 42.2884C245.548 43.581 246.065 44.8032 246.068 45.9126Z" fill="#B1B1B1" stroke="black" stroke-width="4"/>
<rect x="161" y="24" width="60" height="12" fill="black"/>
<path d="M218.959 35.0463C218.967 38.2617 216.45 41.658 211.281 44.3688C206.206 47.0299 199.052 48.7359 191.036 48.7359C183.019 48.7359 175.857 47.0299 170.768 44.3688C165.585 41.658 163.05 38.2617 163.041 35.0463C163.033 31.8309 165.55 28.4346 170.719 25.7238C175.794 23.0627 182.948 21.3567 190.964 21.3567C198.981 21.3567 206.144 23.0627 211.232 25.7238C216.415 28.4346 218.951 31.8309 218.959 35.0463Z" fill="#B87333" stroke="black" stroke-width="4"/>
<path d="M219.068 23.9126C219.071 25.0219 218.56 26.2441 217.293 27.5367C216.017 28.838 214.071 30.1016 211.507 31.206C206.386 33.4117 199.168 34.8251 191.087 34.8251C183.005 34.8251 175.78 33.4117 170.648 31.206C168.078 30.1016 166.125 28.838 164.843 27.5367C163.569 26.2441 163.051 25.0219 163.048 23.9126C163.046 22.8032 163.556 21.581 164.824 20.2884C166.099 18.9871 168.046 17.7235 170.609 16.6191C175.73 14.4134 182.948 13 191.029 13C199.111 13 206.336 14.4134 211.469 16.6191C214.038 17.7235 215.991 18.9871 217.274 20.2884C218.548 21.581 219.065 22.8032 219.068 23.9126Z" fill="#B87333" stroke="black" stroke-width="4"/>
<rect x="98" y="66" width="60" height="12" fill="black"/>
<path d="M155.959 77.0463C155.967 80.2617 153.45 83.658 148.281 86.3688C143.206 89.0299 136.052 90.7359 128.036 90.7359C120.019 90.7359 112.857 89.0299 107.768 86.3688C102.585 83.658 100.05 80.2617 100.041 77.0463C100.033 73.8309 102.55 70.4346 107.719 67.7238C112.794 65.0627 119.948 63.3567 127.964 63.3567C135.981 63.3567 143.144 65.0627 148.232 67.7238C153.415 70.4346 155.951 73.8309 155.959 77.0463Z" fill="#E5E4E2" stroke="black" stroke-width="4"/>
<path d="M156.068 65.9126C156.071 67.0219 155.56 68.2441 154.293 69.5367C153.017 70.838 151.071 72.1016 148.507 73.206C143.386 75.4117 136.168 76.8251 128.087 76.8251C120.005 76.8251 112.78 75.4117 107.648 73.206C105.078 72.1016 103.125 70.838 101.843 69.5367C100.569 68.2441 100.051 67.0219 100.048 65.9126C100.046 64.8032 100.556 63.581 101.824 62.2884C103.099 60.9871 105.046 59.7235 107.609 58.6191C112.73 56.4134 119.948 55 128.029 55C136.111 55 143.336 56.4134 148.469 58.6191C151.038 59.7235 152.991 60.9871 154.274 62.2884C155.548 63.581 156.065 64.8032 156.068 65.9126Z" fill="#E5E4E2" stroke="black" stroke-width="4"/>
<rect y="118" width="60" height="12" fill="black"/>
<path d="M57.959 129.046C57.9674 132.262 55.4498 135.658 50.2808 138.369C45.2064 141.03 38.0525 142.736 30.0359 142.736C22.0194 142.736 14.8565 141.03 9.76821 138.369C4.58491 135.658 2.04957 132.262 2.04114 129.046C2.03271 125.831 4.55024 122.435 9.71932 119.724C14.7937 117.063 21.9476 115.357 29.9642 115.357C37.9807 115.357 45.1435 117.063 50.2319 119.724C55.4152 122.435 57.9505 125.831 57.959 129.046Z" fill="#B87333" stroke="black" stroke-width="4"/>
<path d="M58.0678 117.913C58.0707 119.022 57.5598 120.244 56.2927 121.537C55.0169 122.838 53.0705 124.102 50.5068 125.206C45.3862 127.412 38.1684 128.825 30.0867 128.825C22.0051 128.825 14.7798 127.412 9.64769 125.206C7.07817 124.102 5.12516 122.838 3.84254 121.537C2.56861 120.244 2.05135 119.022 2.04844 117.913C2.04554 116.803 2.55638 115.581 3.82354 114.288C5.09933 112.987 7.04571 111.724 9.60944 110.619C14.73 108.413 21.9478 107 30.0295 107C38.1112 107 45.3364 108.413 50.4685 110.619C53.0381 111.724 54.9911 112.987 56.2737 114.288C57.5476 115.581 58.0649 116.803 58.0678 117.913Z" fill="#B87333" stroke="black" stroke-width="4"/>
<rect x="156" y="66" width="60" height="12" fill="black"/>
<path d="M213.959 77.0463C213.967 80.2617 211.45 83.658 206.281 86.3688C201.206 89.0299 194.052 90.7359 186.036 90.7359C178.019 90.7359 170.857 89.0299 165.768 86.3688C160.585 83.658 158.05 80.2617 158.041 77.0463C158.033 73.8309 160.55 70.4346 165.719 67.7238C170.794 65.0627 177.948 63.3567 185.964 63.3567C193.981 63.3567 201.144 65.0627 206.232 67.7238C211.415 70.4346 213.951 73.8309 213.959 77.0463Z" fill="#FFD700" stroke="black" stroke-width="4"/>
<path d="M214.068 65.9126C214.071 67.0219 213.56 68.2441 212.293 69.5367C211.017 70.838 209.071 72.1016 206.507 73.206C201.386 75.4117 194.168 76.8251 186.087 76.8251C178.005 76.8251 170.78 75.4117 165.648 73.206C163.078 72.1016 161.125 70.838 159.843 69.5367C158.569 68.2441 158.051 67.0219 158.048 65.9126C158.046 64.8032 158.556 63.581 159.824 62.2884C161.099 60.9871 163.046 59.7235 165.609 58.6191C170.73 56.4134 177.948 55 186.029 55C194.111 55 201.336 56.4134 206.469 58.6191C209.038 59.7235 210.991 60.9871 212.274 62.2884C213.548 63.581 214.065 64.8032 214.068 65.9126Z" fill="#FFD700" stroke="black" stroke-width="4"/>
<rect x="215" y="71" width="60" height="12" fill="black"/>
<path d="M272.959 82.0463C272.967 85.2617 270.45 88.658 265.281 91.3688C260.206 94.0299 253.052 95.7359 245.036 95.7359C237.019 95.7359 229.857 94.0299 224.768 91.3688C219.585 88.658 217.05 85.2617 217.041 82.0463C217.033 78.8309 219.55 75.4346 224.719 72.7238C229.794 70.0627 236.948 68.3567 244.964 68.3567C252.981 68.3567 260.144 70.0627 265.232 72.7238C270.415 75.4346 272.951 78.8309 272.959 82.0463Z" fill="#B87333" stroke="black" stroke-width="4"/>
<path d="M273.068 70.9126C273.071 72.0219 272.56 73.2441 271.293 74.5367C270.017 75.838 268.071 77.1016 265.507 78.206C260.386 80.4117 253.168 81.8251 245.087 81.8251C237.005 81.8251 229.78 80.4117 224.648 78.206C222.078 77.1016 220.125 75.838 218.843 74.5367C217.569 73.2441 217.051 72.0219 217.048 70.9126C217.046 69.8032 217.556 68.581 218.824 67.2884C220.099 65.9871 222.046 64.7235 224.609 63.6191C229.73 61.4134 236.948 60 245.029 60C253.111 60 260.336 61.4134 265.469 63.6191C268.038 64.7235 269.991 65.9871 271.274 67.2884C272.548 68.581 273.065 69.8032 273.068 70.9126Z" fill="#B87333" stroke="black" stroke-width="4"/>
<rect x="296" y="71" width="60" height="12" fill="black"/>
<path d="M353.959 82.0463C353.967 85.2617 351.45 88.658 346.281 91.3688C341.206 94.0299 334.052 95.7359 326.036 95.7359C318.019 95.7359 310.857 94.0299 305.768 91.3688C300.585 88.658 298.05 85.2617 298.041 82.0463C298.033 78.8309 300.55 75.4346 305.719 72.7238C310.794 70.0627 317.948 68.3567 325.964 68.3567C333.981 68.3567 341.144 70.0627 346.232 72.7238C351.415 75.4346 353.951 78.8309 353.959 82.0463Z" fill="#FFD700" stroke="black" stroke-width="4"/>
<path d="M354.068 70.9126C354.071 72.0219 353.56 73.2441 352.293 74.5367C351.017 75.838 349.071 77.1016 346.507 78.206C341.386 80.4117 334.168 81.8251 326.087 81.8251C318.005 81.8251 310.78 80.4117 305.648 78.206C303.078 77.1016 301.125 75.838 299.843 74.5367C298.569 73.2441 298.051 72.0219 298.048 70.9126C298.046 69.8032 298.556 68.581 299.824 67.2884C301.099 65.9871 303.046 64.7235 305.609 63.6191C310.73 61.4134 317.948 60 326.029 60C334.111 60 341.336 61.4134 346.469 63.6191C349.038 64.7235 350.991 65.9871 352.274 67.2884C353.548 68.581 354.065 69.8032 354.068 70.9126Z" fill="#FFD700" stroke="black" stroke-width="4"/>
<rect y="27" width="60" height="12" fill="black"/>
<path d="M57.959 38.0463C57.9674 41.2617 55.4498 44.658 50.2808 47.3688C45.2064 50.0299 38.0525 51.7359 30.0359 51.7359C22.0194 51.7359 14.8565 50.0299 9.76821 47.3688C4.58491 44.658 2.04957 41.2617 2.04114 38.0463C2.03271 34.8309 4.55024 31.4346 9.71932 28.7238C14.7937 26.0627 21.9476 24.3567 29.9642 24.3567C37.9807 24.3567 45.1435 26.0627 50.2319 28.7238C55.4152 31.4346 57.9505 34.8309 57.959 38.0463Z" fill="#B87333" stroke="black" stroke-width="4"/>
<path d="M58.0678 26.9126C58.0707 28.0219 57.5598 29.2441 56.2927 30.5367C55.0169 31.838 53.0705 33.1016 50.5068 34.206C45.3862 36.4117 38.1684 37.8251 30.0867 37.8251C22.0051 37.8251 14.7798 36.4117 9.64769 34.206C7.07817 33.1016 5.12516 31.838 3.84254 30.5367C2.56861 29.2441 2.05135 28.0219 2.04844 26.9126C2.04554 25.8032 2.55638 24.581 3.82354 23.2884C5.09933 21.9871 7.04571 20.7235 9.60944 19.6191C14.73 17.4134 21.9478 16 30.0295 16C38.1112 16 45.3364 17.4134 50.4685 19.6191C53.0381 20.7235 54.9911 21.9871 56.2737 23.2884C57.5476 24.581 58.0649 25.8032 58.0678 26.9126Z" fill="#B87333" stroke="black" stroke-width="4"/>
<rect x="129" y="45" width="60" height="12" fill="black"/>
<path d="M186.959 56.0463C186.967 59.2617 184.45 62.658 179.281 65.3688C174.206 68.0299 167.052 69.7359 159.036 69.7359C151.019 69.7359 143.857 68.0299 138.768 65.3688C133.585 62.658 131.05 59.2617 131.041 56.0463C131.033 52.8309 133.55 49.4346 138.719 46.7238C143.794 44.0627 150.948 42.3567 158.964 42.3567C166.981 42.3567 174.144 44.0627 179.232 46.7238C184.415 49.4346 186.951 52.8309 186.959 56.0463Z" fill="#FFD700" stroke="black" stroke-width="4"/>
<path d="M187.068 44.9126C187.071 46.0219 186.56 47.2441 185.293 48.5367C184.017 49.838 182.071 51.1016 179.507 52.206C174.386 54.4117 167.168 55.8251 159.087 55.8251C151.005 55.8251 143.78 54.4117 138.648 52.206C136.078 51.1016 134.125 49.838 132.843 48.5367C131.569 47.2441 131.051 46.0219 131.048 44.9126C131.046 43.8032 131.556 42.581 132.824 41.2884C134.099 39.9871 136.046 38.7235 138.609 37.6191C143.73 35.4134 150.948 34 159.029 34C167.111 34 174.336 35.4134 179.469 37.6191C182.038 38.7235 183.991 39.9871 185.274 41.2884C186.548 42.581 187.065 43.8032 187.068 44.9126Z" fill="#FFD700" stroke="black" stroke-width="4"/>
<rect x="127" y="13" width="60" height="12" fill="black"/>
<path d="M184.959 24.0463C184.967 27.2617 182.45 30.658 177.281 33.3688C172.206 36.0299 165.052 37.7359 157.036 37.7359C149.019 37.7359 141.857 36.0299 136.768 33.3688C131.585 30.658 129.05 27.2617 129.041 24.0463C129.033 20.8309 131.55 17.4346 136.719 14.7238C141.794 12.0627 148.948 10.3567 156.964 10.3567C164.981 10.3567 172.144 12.0627 177.232 14.7238C182.415 17.4346 184.951 20.8309 184.959 24.0463Z" fill="#E5E4E2" stroke="black" stroke-width="4"/>
<path d="M185.068 12.9126C185.071 14.0219 184.56 15.2441 183.293 16.5367C182.017 17.838 180.071 19.1016 177.507 20.206C172.386 22.4117 165.168 23.8251 157.087 23.8251C149.005 23.8251 141.78 22.4117 136.648 20.206C134.078 19.1016 132.125 17.838 130.843 16.5367C129.569 15.2441 129.051 14.0219 129.048 12.9126C129.046 11.8032 129.556 10.581 130.824 9.28843C132.099 7.98711 134.046 6.72351 136.609 5.61914C141.73 3.41337 148.948 1.99999 157.029 1.99999C165.111 1.99999 172.336 3.41337 177.469 5.61914C180.038 6.72351 181.991 7.98711 183.274 9.28843C184.548 10.581 185.065 11.8032 185.068 12.9126Z" fill="#E5E4E2" stroke="black" stroke-width="4"/>
<rect x="126" y="94" width="60" height="12" fill="black"/>
<path d="M183.959 105.046C183.967 108.262 181.45 111.658 176.281 114.369C171.206 117.03 164.052 118.736 156.036 118.736C148.019 118.736 140.857 117.03 135.768 114.369C130.585 111.658 128.05 108.262 128.041 105.046C128.033 101.831 130.55 98.4346 135.719 95.7238C140.794 93.0627 147.948 91.3567 155.964 91.3567C163.981 91.3567 171.144 93.0627 176.232 95.7238C181.415 98.4346 183.951 101.831 183.959 105.046Z" fill="#B87333" stroke="black" stroke-width="4"/>
<path d="M184.068 93.9126C184.071 95.0219 183.56 96.2441 182.293 97.5367C181.017 98.838 179.071 100.102 176.507 101.206C171.386 103.412 164.168 104.825 156.087 104.825C148.005 104.825 140.78 103.412 135.648 101.206C133.078 100.102 131.125 98.838 129.843 97.5367C128.569 96.2441 128.051 95.0219 128.048 93.9126C128.046 92.8032 128.556 91.581 129.824 90.2884C131.099 88.9871 133.046 87.7235 135.609 86.6191C140.73 84.4134 147.948 83 156.029 83C164.111 83 171.336 84.4134 176.469 86.6191C179.038 87.7235 180.991 88.9871 182.274 90.2884C183.548 91.581 184.065 92.8032 184.068 93.9126Z" fill="#B87333" stroke="black" stroke-width="4"/>
</svg>
