<svg width="163" height="103" viewBox="0 0 163 103" fill="none" xmlns="http://www.w3.org/2000/svg">
<path d="M83 37C83 34.7909 84.7909 33 87 33H112V44H87C84.7909 44 83 42.2091 83 40V37Z" fill="#8A9FAA"/>
<path d="M83 64C83 61.7909 84.7909 60 87 60H112V71H87C84.7909 71 83 69.2091 83 67V64Z" fill="#8A9FAA"/>
<path d="M110 30C110 27.2386 112.239 25 115 25H127C141.912 25 154 37.0883 154 52V52C154 66.9117 141.912 79 127 79H115C112.239 79 110 76.7614 110 74V30Z" fill="#8A9FAA"/>
<rect x="139" y="41" width="20" height="20" rx="3" fill="#8A9FAA"/>
<ellipse cx="157.5" cy="51" rx="5.5" ry="7" fill="#8A9FAA"/>
<path fill-rule="evenodd" clip-rule="evenodd" d="M51.5 103C72.657 103 90.8342 90.2422 98.7583 72H86C83.7908 72 82 70.2091 82 68V63C82 60.7909 83.7908 59 86 59H102.458C102.815 56.5517 103 54.0474 103 51.5C103 49.2983 102.862 47.1289 102.594 45H86C83.7908 45 82 43.2091 82 41V36C82 33.7909 83.7908 32 86 32H99.1802C91.494 13.2257 73.0415 0 51.5 0C23.0573 0 0 23.0573 0 51.5C0 79.9427 23.0573 103 51.5 103Z" fill="#20D7C4"/>
<path fill-rule="evenodd" clip-rule="evenodd" d="M51.5 103C72.657 103 90.8342 90.2422 98.7583 72H86C83.7909 72 82 70.2091 82 68V63C82 60.7909 83.7909 59 86 59H102.458C102.815 56.5517 103 54.0474 103 51.5C103 49.2983 102.862 47.1289 102.594 45H88.2496L87.4865 46.4039C86.9821 47.3338 86.366 48.9375 86.1195 49.9675L84.562 56.4767C84.3156 57.5067 83.2471 58.3327 82.1882 58.3115C82.1882 58.3115 72.743 58.1305 65.2654 56.2168C58.76 54.5534 51.3209 50.932 51.3209 50.932C50.3699 50.47 49.5324 49.2263 49.4631 48.1693C49.4631 48.1693 48.9337 40.1661 52.1738 32.7309C54.4937 27.4076 58.5463 23.1509 58.5463 23.1509C59.276 22.3847 60.5601 21.2276 61.3976 20.5807L73.5593 11.1895C74.3968 10.5406 75.7021 10.6196 76.4568 11.3608L94.6945 29.2635C95.3707 29.9276 95.6064 31.0954 95.2841 32H99.1802C91.4939 13.2257 73.0415 0 51.5 0C40.0626 0 29.496 3.7284 20.9493 10.0361C24.3612 11.7593 27.775 13.4843 31.1888 15.2093C41.2616 18.2762 43.9242 21.6127 44.2804 24.2579C45.0059 29.6398 36.7435 36.2561 28.9288 42.5139C23.4088 46.9342 18.1122 51.1756 16.3645 54.6766C16.1816 55.0444 14.3603 57.4355 11.9365 60.4523C10.2846 62.5085 8.95812 62.7588 8.27851 62.7626C5.03835 62.7857 1.57292 57.3373 0.202156 48.8374C0.860474 36.4329 5.82417 25.2092 13.6012 16.6294C5.15678 25.8024 0 38.049 0 51.5C0 79.9427 23.0573 103 51.5 103ZM62.726 99.1495C62.7453 100.208 61.9848 100.692 61.0338 100.224C61.0338 100.224 56.4286 97.9578 52.7495 94.7196C49.9906 92.2899 47.7497 89.3251 47.7497 89.3251C47.1105 88.4799 46.4039 86.9435 46.1767 85.9078L42.5727 69.4547C42.3455 68.4209 42.6093 66.8326 43.156 65.9258C43.156 65.9258 46.015 61.1916 47.7439 60.6429C49.2618 60.1598 50.5553 60.4667 52.7054 60.9767C53.9997 61.2837 55.6043 61.6643 57.7551 61.9906C60.4735 62.4026 62.3776 62.4854 62.3776 62.4854C63.4345 62.5316 64.5512 63.3979 64.8592 64.4106C64.8592 64.4106 65.0094 64.9092 65.456 66.6112L65.4626 66.6363L65.4626 66.6364C66.7292 71.4607 67.4466 74.1934 67.3813 76.8149C67.3192 79.3434 66.556 80.7311 65.5965 82.4757C65.0071 83.5472 64.3438 84.7533 63.7233 86.4411C62.547 89.6389 62.7241 99.1476 62.7241 99.1476L62.726 99.1495ZM67.5103 93.1723C68.2939 91.9305 68.7978 91.132 69.1159 90.1009L69.1179 90.1048C69.347 89.3597 69.3335 88.1795 69.3335 88.1795C69.32 87.1207 68.9195 86.3756 68.4421 86.5219L67.9608 86.6394L67.2022 86.8242C66.4552 86.9339 65.8931 87.6251 65.9528 88.3624L65.843 89.3328C65.7631 90.0379 65.633 90.5287 65.5163 90.969L65.5163 90.969L65.5163 90.9691C65.3911 91.4412 65.2814 91.8553 65.2655 92.4131C65.2462 93.0928 65.3867 93.4874 65.3867 93.4874C65.7429 94.4828 66.4398 94.7523 66.9346 94.0842L67.3832 93.3738L67.5103 93.1723Z" fill="#52B0F8"/>
</svg>
