<svg width="2521" height="1334" viewBox="0 0 2521 1334" fill="none" xmlns="http://www.w3.org/2000/svg">
<path d="M1444.59 0H841.41C800.867 0 768 32.8667 768 73.4099V1260.59C768 1301.13 800.867 1334 841.41 1334H1444.59C1485.13 1334 1518 1301.13 1518 1260.59V73.4099C1518 32.8667 1485.13 0 1444.59 0Z" fill="#E1DDE5"/>
<path d="M1424.79 80.5H863.21C832.442 80.5 807.5 105.442 807.5 136.21V1146.79C807.5 1177.56 832.442 1202.5 863.21 1202.5H1424.79C1455.56 1202.5 1480.5 1177.56 1480.5 1146.79V136.21C1480.5 105.442 1455.56 80.5 1424.79 80.5Z" fill="#323232"/>
<path d="M1144.5 1317.5C1169.91 1317.5 1190.5 1296.91 1190.5 1271.5C1190.5 1246.09 1169.91 1225.5 1144.5 1225.5C1119.09 1225.5 1098.5 1246.09 1098.5 1271.5C1098.5 1296.91 1119.09 1317.5 1144.5 1317.5Z" stroke="black" stroke-width="6" stroke-miterlimit="10"/>
<path d="M1228.94 34.5H1061.06C1058.54 34.5 1056.5 36.5416 1056.5 39.0601V43.9399C1056.5 46.4584 1058.54 48.5 1061.06 48.5H1228.94C1231.46 48.5 1233.5 46.4584 1233.5 43.9399V39.0601C1233.5 36.5416 1231.46 34.5 1228.94 34.5Z" fill="black"/>
</svg>
