<svg width="750" height="1334" viewBox="0 0 750 1334" fill="none" xmlns="http://www.w3.org/2000/svg">
<path d="M676.59 0H73.41C32.8667 0 0 32.8667 0 73.4099V1260.59C0 1301.13 32.8667 1334 73.41 1334H676.59C717.133 1334 750 1301.13 750 1260.59V73.4099C750 32.8667 717.133 0 676.59 0Z" fill="#E1DDE5"/>
<path d="M656.79 80.5H95.21C64.4422 80.5 39.5 105.442 39.5 136.21V1146.79C39.5 1177.56 64.4422 1202.5 95.21 1202.5H656.79C687.558 1202.5 712.5 1177.56 712.5 1146.79V136.21C712.5 105.442 687.558 80.5 656.79 80.5Z" fill="#178AA4" fill-opacity="0.59"/>
<path d="M376.5 1317.5C401.905 1317.5 422.5 1296.91 422.5 1271.5C422.5 1246.09 401.905 1225.5 376.5 1225.5C351.095 1225.5 330.5 1246.09 330.5 1271.5C330.5 1296.91 351.095 1317.5 376.5 1317.5Z" stroke="black" stroke-width="6" stroke-miterlimit="10"/>
<path d="M460.94 34.5H293.06C290.542 34.5 288.5 36.5416 288.5 39.0601V43.9399C288.5 46.4584 290.542 48.5 293.06 48.5H460.94C463.458 48.5 465.5 46.4584 465.5 43.9399V39.0601C465.5 36.5416 463.458 34.5 460.94 34.5Z" fill="black"/>
<path d="M657 90L481 162V306L365 498" stroke="black" stroke-width="3"/>
<path d="M713 126L609 202H409L373 390" stroke="black" stroke-width="3"/>
<path d="M709 314L565 278V158L377 126L237 234" stroke="black" stroke-width="3"/>
<path d="M81 1198L209 1068.04L104.273 902.828L209 770" stroke="black" stroke-width="3"/>
<path d="M45 1120.67L221.783 1174L277.609 1054L473 1120.67" stroke="black" stroke-width="3"/>
<path d="M136.766 1202L91 1050L299.489 946L330 802" stroke="black" stroke-width="3"/>
</svg>
