<svg width="750" height="1334" viewBox="0 0 750 1334" fill="none" xmlns="http://www.w3.org/2000/svg">
<path d="M676.59 0H73.41C32.8667 0 0 32.8667 0 73.4099V1260.59C0 1301.13 32.8667 1334 73.41 1334H676.59C717.133 1334 750 1301.13 750 1260.59V73.4099C750 32.8667 717.133 0 676.59 0Z" fill="#E1DDE5"/>
<rect x="36" y="141" width="679" height="1077" fill="#5A7C19"/>
<g filter="url(#filter0_d_466_1196)">
<path d="M341 549H567" stroke="#DEDEDE" stroke-width="7"/>
</g>
<g filter="url(#filter1_d_466_1196)">
<path d="M232 845H458" stroke="#DEDEDE" stroke-width="7"/>
</g>
<g filter="url(#filter2_d_466_1196)">
<path d="M552 1083H614.032" stroke="#DEDEDE" stroke-width="7"/>
</g>
<path d="M393 863V991H583V1075" stroke="#DEDEDE" stroke-width="3"/>
<path d="M583 1099V1139" stroke="#DEDEDE" stroke-width="3"/>
<path d="M489 1013V1071" stroke="#DEDEDE" stroke-width="3"/>
<path d="M491 1095V1157H413V1095H355" stroke="#DEDEDE" stroke-width="3"/>
<g filter="url(#filter3_d_466_1196)">
<path d="M458 1083H520.032" stroke="#DEDEDE" stroke-width="7"/>
</g>
<g filter="url(#filter4_d_466_1196)">
<path d="M341 563H567" stroke="#DEDEDE" stroke-width="7"/>
</g>
<g filter="url(#filter5_d_466_1196)">
<rect x="91" y="494" width="168" height="120" rx="11" fill="#58585B"/>
</g>
<g filter="url(#filter6_d_466_1196)">
<rect x="479" y="672" width="108" height="129" rx="3" fill="#58585B"/>
</g>
<g filter="url(#filter7_d_466_1196)">
<rect x="327" y="333" width="260" height="152" rx="14" fill="#C0BFBF"/>
</g>
<g filter="url(#filter8_d_466_1196)">
<path d="M615 341V477H691" stroke="#FFD375" stroke-width="10"/>
</g>
<g filter="url(#filter9_d_466_1196)">
<rect x="505" y="177" width="154" height="80" rx="21" fill="#6E7072"/>
</g>
<g filter="url(#filter10_d_466_1196)">
<rect x="91" y="141" width="64" height="76" rx="5" fill="black"/>
</g>
<g filter="url(#filter11_d_466_1196)">
<rect x="233" y="1003" width="117" height="162" fill="#4E4F4B"/>
<rect x="250" y="1020" width="82" height="126" fill="#79753D" stroke="black" stroke-width="2"/>
<path d="M261 1018V1002" stroke="black" stroke-width="5"/>
<path d="M306 1019V1003" stroke="black" stroke-width="5"/>
<path d="M321 1019V1003" stroke="black" stroke-width="5"/>
<path d="M261 1018V1002" stroke="black" stroke-width="5"/>
<path d="M261 1018V1002" stroke="black" stroke-width="5"/>
<path d="M261 1018V1002" stroke="black" stroke-width="5"/>
<path d="M276 1018V1002" stroke="black" stroke-width="5"/>
<path d="M290 1019V1003" stroke="black" stroke-width="5"/>
<path d="M333.68 1032.39L349.68 1032.44" stroke="black" stroke-width="5"/>
<path d="M332.556 1077.39L348.556 1077.43" stroke="black" stroke-width="5"/>
<path d="M332.514 1092.39L348.514 1092.43" stroke="black" stroke-width="5"/>
<path d="M333.68 1032.39L349.68 1032.44" stroke="black" stroke-width="5"/>
<path d="M333.68 1032.39L349.68 1032.44" stroke="black" stroke-width="5"/>
<path d="M333.68 1032.39L349.68 1032.44" stroke="black" stroke-width="5"/>
<path d="M333.639 1047.39L349.639 1047.44" stroke="black" stroke-width="5"/>
<path d="M332.6 1061.39L348.6 1061.43" stroke="black" stroke-width="5"/>
<path d="M333.68 1091.39L349.68 1091.44" stroke="black" stroke-width="5"/>
<path d="M332.556 1136.39L348.556 1136.43" stroke="black" stroke-width="5"/>
<path d="M333.68 1091.39L349.68 1091.44" stroke="black" stroke-width="5"/>
<path d="M333.68 1091.39L349.68 1091.44" stroke="black" stroke-width="5"/>
<path d="M333.68 1091.39L349.68 1091.44" stroke="black" stroke-width="5"/>
<path d="M333.639 1106.39L349.639 1106.44" stroke="black" stroke-width="5"/>
<path d="M332.6 1120.39L348.6 1120.43" stroke="black" stroke-width="5"/>
<path d="M232.042 1061L248.042 1061.04" stroke="black" stroke-width="5"/>
<path d="M232 1076L248 1076.04" stroke="black" stroke-width="5"/>
<path d="M233.125 1031L249.125 1031.04" stroke="black" stroke-width="5"/>
<path d="M232.086 1045L248.086 1045.04" stroke="black" stroke-width="5"/>
<path d="M233.166 1075L249.166 1075.04" stroke="black" stroke-width="5"/>
<path d="M232.042 1120L248.042 1120.04" stroke="black" stroke-width="5"/>
<path d="M232 1135L248 1135.04" stroke="black" stroke-width="5"/>
<path d="M233.166 1075L249.166 1075.04" stroke="black" stroke-width="5"/>
<path d="M233.166 1075L249.166 1075.04" stroke="black" stroke-width="5"/>
<path d="M233.166 1075L249.166 1075.04" stroke="black" stroke-width="5"/>
<path d="M233.125 1090L249.125 1090.04" stroke="black" stroke-width="5"/>
<path d="M232.086 1104L248.086 1104.04" stroke="black" stroke-width="5"/>
<path d="M261 1164V1148" stroke="black" stroke-width="5"/>
<path d="M306 1165V1149" stroke="black" stroke-width="5"/>
<path d="M321 1165V1149" stroke="black" stroke-width="5"/>
<path d="M261 1164V1148" stroke="black" stroke-width="5"/>
<path d="M261 1164V1148" stroke="black" stroke-width="5"/>
<path d="M261 1164V1148" stroke="black" stroke-width="5"/>
<path d="M276 1164V1148" stroke="black" stroke-width="5"/>
<path d="M290 1165V1149" stroke="black" stroke-width="5"/>
</g>
<g filter="url(#filter12_d_466_1196)">
<rect x="92" y="1005" width="117" height="162" fill="#4E4F4B"/>
<rect x="109" y="1022" width="82" height="126" fill="#79753D" stroke="black" stroke-width="2"/>
<path d="M120 1020V1004" stroke="black" stroke-width="5"/>
<path d="M165 1021V1005" stroke="black" stroke-width="5"/>
<path d="M180 1021V1005" stroke="black" stroke-width="5"/>
<path d="M120 1020V1004" stroke="black" stroke-width="5"/>
<path d="M120 1020V1004" stroke="black" stroke-width="5"/>
<path d="M120 1020V1004" stroke="black" stroke-width="5"/>
<path d="M135 1020V1004" stroke="black" stroke-width="5"/>
<path d="M149 1021V1005" stroke="black" stroke-width="5"/>
<path d="M192.68 1034.39L208.68 1034.44" stroke="black" stroke-width="5"/>
<path d="M191.556 1079.39L207.556 1079.43" stroke="black" stroke-width="5"/>
<path d="M191.514 1094.39L207.514 1094.43" stroke="black" stroke-width="5"/>
<path d="M192.68 1034.39L208.68 1034.44" stroke="black" stroke-width="5"/>
<path d="M192.68 1034.39L208.68 1034.44" stroke="black" stroke-width="5"/>
<path d="M192.68 1034.39L208.68 1034.44" stroke="black" stroke-width="5"/>
<path d="M192.639 1049.39L208.639 1049.44" stroke="black" stroke-width="5"/>
<path d="M191.6 1063.39L207.6 1063.43" stroke="black" stroke-width="5"/>
<path d="M192.68 1093.39L208.68 1093.44" stroke="black" stroke-width="5"/>
<path d="M191.556 1138.39L207.556 1138.43" stroke="black" stroke-width="5"/>
<path d="M192.68 1093.39L208.68 1093.44" stroke="black" stroke-width="5"/>
<path d="M192.68 1093.39L208.68 1093.44" stroke="black" stroke-width="5"/>
<path d="M192.68 1093.39L208.68 1093.44" stroke="black" stroke-width="5"/>
<path d="M192.639 1108.39L208.639 1108.44" stroke="black" stroke-width="5"/>
<path d="M191.6 1122.39L207.6 1122.43" stroke="black" stroke-width="5"/>
<path d="M91.0421 1063L107.042 1063.04" stroke="black" stroke-width="5"/>
<path d="M91.0001 1078L107 1078.04" stroke="black" stroke-width="5"/>
<path d="M92.1251 1033L108.125 1033.04" stroke="black" stroke-width="5"/>
<path d="M91.086 1047L107.086 1047.04" stroke="black" stroke-width="5"/>
<path d="M92.1661 1077L108.166 1077.04" stroke="black" stroke-width="5"/>
<path d="M91.0421 1122L107.042 1122.04" stroke="black" stroke-width="5"/>
<path d="M91.0001 1137L107 1137.04" stroke="black" stroke-width="5"/>
<path d="M92.1661 1077L108.166 1077.04" stroke="black" stroke-width="5"/>
<path d="M92.1661 1077L108.166 1077.04" stroke="black" stroke-width="5"/>
<path d="M92.1661 1077L108.166 1077.04" stroke="black" stroke-width="5"/>
<path d="M92.1251 1092L108.125 1092.04" stroke="black" stroke-width="5"/>
<path d="M91.086 1106L107.086 1106.04" stroke="black" stroke-width="5"/>
<path d="M120 1166V1150" stroke="black" stroke-width="5"/>
<path d="M165 1167V1151" stroke="black" stroke-width="5"/>
<path d="M180 1167V1151" stroke="black" stroke-width="5"/>
<path d="M120 1166V1150" stroke="black" stroke-width="5"/>
<path d="M120 1166V1150" stroke="black" stroke-width="5"/>
<path d="M120 1166V1150" stroke="black" stroke-width="5"/>
<path d="M135 1166V1150" stroke="black" stroke-width="5"/>
<path d="M149 1167V1151" stroke="black" stroke-width="5"/>
</g>
<g filter="url(#filter13_d_466_1196)">
<path d="M63 1017V1185H679V1017" stroke="#FFD375" stroke-width="10"/>
</g>
<path d="M361 489V705" stroke="#DEDEDE" stroke-width="3"/>
<path d="M225 617V819H313V993" stroke="#DEDEDE" stroke-width="3"/>
<path d="M201 615V845" stroke="#DEDEDE" stroke-width="3"/>
<path d="M121 619V705H71V775" stroke="#DEDEDE" stroke-width="3"/>
<path d="M149 619V997" stroke="#DEDEDE" stroke-width="3"/>
<path d="M221 487V269" stroke="#DEDEDE" stroke-width="3"/>
<path d="M61 607V453H109V263H61V167" stroke="#DEDEDE" stroke-width="3"/>
<path d="M361 329V263" stroke="#DEDEDE" stroke-width="3"/>
<path d="M403 331V195" stroke="#DEDEDE" stroke-width="3"/>
<path d="M549 259V297H677" stroke="#DEDEDE" stroke-width="3"/>
<path d="M545 487V667" stroke="#DEDEDE" stroke-width="3"/>
<path d="M489 489V647H437V827" stroke="#DEDEDE" stroke-width="3"/>
<path d="M437 863V941H623" stroke="#DEDEDE" stroke-width="3"/>
<path d="M567.5 485V532H667.5" stroke="#DEDEDE" stroke-width="3"/>
<path d="M326.5 443H268.5V246.5H193.5V163.5" stroke="#DEDEDE" stroke-width="3"/>
<path d="M465 329.5V219H501" stroke="#DEDEDE" stroke-width="3"/>
<path d="M521 807V833H655V1011" stroke="#DEDEDE" stroke-width="3"/>
<path d="M587 715H629V567" stroke="#DEDEDE" stroke-width="3"/>
<circle cx="71" cy="775" r="8.5" fill="#5A7C19" stroke="#D9D9D9" stroke-width="3"/>
<circle cx="97.5" cy="958.5" r="6" fill="#FFD375" stroke="#575757" stroke-width="3"/>
<circle cx="141.5" cy="245.5" r="6" fill="#FFD375" stroke="#575757" stroke-width="3"/>
<circle cx="486.5" cy="169.5" r="6" fill="#FFD375" stroke="#575757" stroke-width="3"/>
<circle cx="437.5" cy="508.5" r="6" fill="#FFD375" stroke="#575757" stroke-width="3"/>
<circle cx="395.5" cy="508.5" r="6" fill="#FFD375" stroke="#575757" stroke-width="3"/>
<circle cx="679.5" cy="1018.5" r="6" fill="#FFD375" stroke="#575757" stroke-width="3"/>
<circle cx="679.5" cy="1185.5" r="6" fill="#FFD375" stroke="#575757" stroke-width="3"/>
<circle cx="63.5" cy="1185.5" r="6" fill="#FFD375" stroke="#575757" stroke-width="3"/>
<circle cx="63.5" cy="1018.5" r="6" fill="#FFD375" stroke="#575757" stroke-width="3"/>
<circle cx="615.5" cy="341.5" r="6" fill="#FFD375" stroke="#575757" stroke-width="3"/>
<circle cx="691.5" cy="477.5" r="6" fill="#FFD375" stroke="#575757" stroke-width="3"/>
<circle cx="616.5" cy="477.5" r="6" fill="#FFD375" stroke="#575757" stroke-width="3"/>
<circle cx="256.5" cy="909.5" r="6" fill="#FFD375" stroke="#575757" stroke-width="3"/>
<circle cx="225" cy="677" r="8.5" fill="#5A7C19" stroke="#D9D9D9" stroke-width="3"/>
<circle cx="269" cy="368" r="8.5" fill="#5A7C19" stroke="#D9D9D9" stroke-width="3"/>
<circle cx="403" cy="189" r="8.5" fill="#5A7C19" stroke="#D9D9D9" stroke-width="3"/>
<circle cx="629" cy="715" r="8.5" fill="#5A7C19" stroke="#D9D9D9" stroke-width="3"/>
<circle cx="567" cy="532" r="8.5" fill="#5A7C19" stroke="#D9D9D9" stroke-width="3"/>
<circle cx="671" cy="532" r="8.5" fill="#5A7C19" stroke="#D9D9D9" stroke-width="3"/>
<circle cx="681" cy="297" r="8.5" fill="#5A7C19" stroke="#D9D9D9" stroke-width="3"/>
<circle cx="61" cy="167" r="8.5" fill="#5A7C19" stroke="#D9D9D9" stroke-width="3"/>
<circle cx="105" cy="263" r="8.5" fill="#5A7C19" stroke="#D9D9D9" stroke-width="3"/>
<circle cx="105" cy="453" r="8.5" fill="#5A7C19" stroke="#D9D9D9" stroke-width="3"/>
<circle cx="221" cy="269" r="8.5" fill="#5A7C19" stroke="#D9D9D9" stroke-width="3"/>
<circle cx="653" cy="837" r="8.5" fill="#5A7C19" stroke="#D9D9D9" stroke-width="3"/>
<circle cx="623" cy="941" r="8.5" fill="#5A7C19" stroke="#D9D9D9" stroke-width="3"/>
<circle cx="361" cy="701" r="8.5" fill="#5A7C19" stroke="#D9D9D9" stroke-width="3"/>
<circle cx="361" cy="604" r="8.5" fill="#5A7C19" stroke="#D9D9D9" stroke-width="3"/>
<circle cx="583" cy="1139" r="8.5" fill="#5A7C19" stroke="#D9D9D9" stroke-width="3"/>
<circle cx="393" cy="902" r="8.5" fill="#5A7C19" stroke="#D9D9D9" stroke-width="3"/>
<circle cx="203" cy="853" r="8.5" fill="#5A7C19" stroke="#D9D9D9" stroke-width="3"/>
<path d="M383 1321C408.405 1321 429 1300.41 429 1275C429 1249.59 408.405 1229 383 1229C357.595 1229 337 1249.59 337 1275C337 1300.41 357.595 1321 383 1321Z" stroke="black" stroke-width="6" stroke-miterlimit="10"/>
<path d="M459.44 67H291.56C289.042 67 287 69.0416 287 71.5601V76.4399C287 78.9584 289.042 81 291.56 81H459.44C461.958 81 464 78.9584 464 76.4399V71.5601C464 69.0416 461.958 67 459.44 67Z" fill="black"/>
<defs>
<filter id="filter0_d_466_1196" x="337" y="545.5" width="234" height="15" filterUnits="userSpaceOnUse" color-interpolation-filters="sRGB">
<feFlood flood-opacity="0" result="BackgroundImageFix"/>
<feColorMatrix in="SourceAlpha" type="matrix" values="0 0 0 0 0 0 0 0 0 0 0 0 0 0 0 0 0 0 127 0" result="hardAlpha"/>
<feOffset dy="4"/>
<feGaussianBlur stdDeviation="2"/>
<feComposite in2="hardAlpha" operator="out"/>
<feColorMatrix type="matrix" values="0 0 0 0 0 0 0 0 0 0 0 0 0 0 0 0 0 0 0.25 0"/>
<feBlend mode="normal" in2="BackgroundImageFix" result="effect1_dropShadow_466_1196"/>
<feBlend mode="normal" in="SourceGraphic" in2="effect1_dropShadow_466_1196" result="shape"/>
</filter>
<filter id="filter1_d_466_1196" x="228" y="841.5" width="234" height="15" filterUnits="userSpaceOnUse" color-interpolation-filters="sRGB">
<feFlood flood-opacity="0" result="BackgroundImageFix"/>
<feColorMatrix in="SourceAlpha" type="matrix" values="0 0 0 0 0 0 0 0 0 0 0 0 0 0 0 0 0 0 127 0" result="hardAlpha"/>
<feOffset dy="4"/>
<feGaussianBlur stdDeviation="2"/>
<feComposite in2="hardAlpha" operator="out"/>
<feColorMatrix type="matrix" values="0 0 0 0 0 0 0 0 0 0 0 0 0 0 0 0 0 0 0.25 0"/>
<feBlend mode="normal" in2="BackgroundImageFix" result="effect1_dropShadow_466_1196"/>
<feBlend mode="normal" in="SourceGraphic" in2="effect1_dropShadow_466_1196" result="shape"/>
</filter>
<filter id="filter2_d_466_1196" x="548" y="1079.5" width="70.0322" height="15" filterUnits="userSpaceOnUse" color-interpolation-filters="sRGB">
<feFlood flood-opacity="0" result="BackgroundImageFix"/>
<feColorMatrix in="SourceAlpha" type="matrix" values="0 0 0 0 0 0 0 0 0 0 0 0 0 0 0 0 0 0 127 0" result="hardAlpha"/>
<feOffset dy="4"/>
<feGaussianBlur stdDeviation="2"/>
<feComposite in2="hardAlpha" operator="out"/>
<feColorMatrix type="matrix" values="0 0 0 0 0 0 0 0 0 0 0 0 0 0 0 0 0 0 0.25 0"/>
<feBlend mode="normal" in2="BackgroundImageFix" result="effect1_dropShadow_466_1196"/>
<feBlend mode="normal" in="SourceGraphic" in2="effect1_dropShadow_466_1196" result="shape"/>
</filter>
<filter id="filter3_d_466_1196" x="454" y="1079.5" width="70.0322" height="15" filterUnits="userSpaceOnUse" color-interpolation-filters="sRGB">
<feFlood flood-opacity="0" result="BackgroundImageFix"/>
<feColorMatrix in="SourceAlpha" type="matrix" values="0 0 0 0 0 0 0 0 0 0 0 0 0 0 0 0 0 0 127 0" result="hardAlpha"/>
<feOffset dy="4"/>
<feGaussianBlur stdDeviation="2"/>
<feComposite in2="hardAlpha" operator="out"/>
<feColorMatrix type="matrix" values="0 0 0 0 0 0 0 0 0 0 0 0 0 0 0 0 0 0 0.25 0"/>
<feBlend mode="normal" in2="BackgroundImageFix" result="effect1_dropShadow_466_1196"/>
<feBlend mode="normal" in="SourceGraphic" in2="effect1_dropShadow_466_1196" result="shape"/>
</filter>
<filter id="filter4_d_466_1196" x="337" y="559.5" width="234" height="15" filterUnits="userSpaceOnUse" color-interpolation-filters="sRGB">
<feFlood flood-opacity="0" result="BackgroundImageFix"/>
<feColorMatrix in="SourceAlpha" type="matrix" values="0 0 0 0 0 0 0 0 0 0 0 0 0 0 0 0 0 0 127 0" result="hardAlpha"/>
<feOffset dy="4"/>
<feGaussianBlur stdDeviation="2"/>
<feComposite in2="hardAlpha" operator="out"/>
<feColorMatrix type="matrix" values="0 0 0 0 0 0 0 0 0 0 0 0 0 0 0 0 0 0 0.25 0"/>
<feBlend mode="normal" in2="BackgroundImageFix" result="effect1_dropShadow_466_1196"/>
<feBlend mode="normal" in="SourceGraphic" in2="effect1_dropShadow_466_1196" result="shape"/>
</filter>
<filter id="filter5_d_466_1196" x="87" y="494" width="176" height="128" filterUnits="userSpaceOnUse" color-interpolation-filters="sRGB">
<feFlood flood-opacity="0" result="BackgroundImageFix"/>
<feColorMatrix in="SourceAlpha" type="matrix" values="0 0 0 0 0 0 0 0 0 0 0 0 0 0 0 0 0 0 127 0" result="hardAlpha"/>
<feOffset dy="4"/>
<feGaussianBlur stdDeviation="2"/>
<feComposite in2="hardAlpha" operator="out"/>
<feColorMatrix type="matrix" values="0 0 0 0 0 0 0 0 0 0 0 0 0 0 0 0 0 0 0.4 0"/>
<feBlend mode="normal" in2="BackgroundImageFix" result="effect1_dropShadow_466_1196"/>
<feBlend mode="normal" in="SourceGraphic" in2="effect1_dropShadow_466_1196" result="shape"/>
</filter>
<filter id="filter6_d_466_1196" x="475" y="672" width="116" height="137" filterUnits="userSpaceOnUse" color-interpolation-filters="sRGB">
<feFlood flood-opacity="0" result="BackgroundImageFix"/>
<feColorMatrix in="SourceAlpha" type="matrix" values="0 0 0 0 0 0 0 0 0 0 0 0 0 0 0 0 0 0 127 0" result="hardAlpha"/>
<feOffset dy="4"/>
<feGaussianBlur stdDeviation="2"/>
<feComposite in2="hardAlpha" operator="out"/>
<feColorMatrix type="matrix" values="0 0 0 0 0 0 0 0 0 0 0 0 0 0 0 0 0 0 0.4 0"/>
<feBlend mode="normal" in2="BackgroundImageFix" result="effect1_dropShadow_466_1196"/>
<feBlend mode="normal" in="SourceGraphic" in2="effect1_dropShadow_466_1196" result="shape"/>
</filter>
<filter id="filter7_d_466_1196" x="323" y="333" width="268" height="160" filterUnits="userSpaceOnUse" color-interpolation-filters="sRGB">
<feFlood flood-opacity="0" result="BackgroundImageFix"/>
<feColorMatrix in="SourceAlpha" type="matrix" values="0 0 0 0 0 0 0 0 0 0 0 0 0 0 0 0 0 0 127 0" result="hardAlpha"/>
<feOffset dy="4"/>
<feGaussianBlur stdDeviation="2"/>
<feComposite in2="hardAlpha" operator="out"/>
<feColorMatrix type="matrix" values="0 0 0 0 0 0 0 0 0 0 0 0 0 0 0 0 0 0 0.5 0"/>
<feBlend mode="normal" in2="BackgroundImageFix" result="effect1_dropShadow_466_1196"/>
<feBlend mode="normal" in="SourceGraphic" in2="effect1_dropShadow_466_1196" result="shape"/>
</filter>
<filter id="filter8_d_466_1196" x="606" y="341" width="89" height="149" filterUnits="userSpaceOnUse" color-interpolation-filters="sRGB">
<feFlood flood-opacity="0" result="BackgroundImageFix"/>
<feColorMatrix in="SourceAlpha" type="matrix" values="0 0 0 0 0 0 0 0 0 0 0 0 0 0 0 0 0 0 127 0" result="hardAlpha"/>
<feOffset dy="4"/>
<feGaussianBlur stdDeviation="2"/>
<feComposite in2="hardAlpha" operator="out"/>
<feColorMatrix type="matrix" values="0 0 0 0 0 0 0 0 0 0 0 0 0 0 0 0 0 0 0.25 0"/>
<feBlend mode="normal" in2="BackgroundImageFix" result="effect1_dropShadow_466_1196"/>
<feBlend mode="normal" in="SourceGraphic" in2="effect1_dropShadow_466_1196" result="shape"/>
</filter>
<filter id="filter9_d_466_1196" x="501" y="177" width="162" height="88" filterUnits="userSpaceOnUse" color-interpolation-filters="sRGB">
<feFlood flood-opacity="0" result="BackgroundImageFix"/>
<feColorMatrix in="SourceAlpha" type="matrix" values="0 0 0 0 0 0 0 0 0 0 0 0 0 0 0 0 0 0 127 0" result="hardAlpha"/>
<feOffset dy="4"/>
<feGaussianBlur stdDeviation="2"/>
<feComposite in2="hardAlpha" operator="out"/>
<feColorMatrix type="matrix" values="0 0 0 0 0 0 0 0 0 0 0 0 0 0 0 0 0 0 0.5 0"/>
<feBlend mode="normal" in2="BackgroundImageFix" result="effect1_dropShadow_466_1196"/>
<feBlend mode="normal" in="SourceGraphic" in2="effect1_dropShadow_466_1196" result="shape"/>
</filter>
<filter id="filter10_d_466_1196" x="87" y="141" width="72" height="84" filterUnits="userSpaceOnUse" color-interpolation-filters="sRGB">
<feFlood flood-opacity="0" result="BackgroundImageFix"/>
<feColorMatrix in="SourceAlpha" type="matrix" values="0 0 0 0 0 0 0 0 0 0 0 0 0 0 0 0 0 0 127 0" result="hardAlpha"/>
<feOffset dy="4"/>
<feGaussianBlur stdDeviation="2"/>
<feComposite in2="hardAlpha" operator="out"/>
<feColorMatrix type="matrix" values="0 0 0 0 0 0 0 0 0 0 0 0 0 0 0 0 0 0 0.25 0"/>
<feBlend mode="normal" in2="BackgroundImageFix" result="effect1_dropShadow_466_1196"/>
<feBlend mode="normal" in="SourceGraphic" in2="effect1_dropShadow_466_1196" result="shape"/>
</filter>
<filter id="filter11_d_466_1196" x="225.993" y="1002" width="130.007" height="175" filterUnits="userSpaceOnUse" color-interpolation-filters="sRGB">
<feFlood flood-opacity="0" result="BackgroundImageFix"/>
<feColorMatrix in="SourceAlpha" type="matrix" values="0 0 0 0 0 0 0 0 0 0 0 0 0 0 0 0 0 0 127 0" result="hardAlpha"/>
<feOffset dy="6"/>
<feGaussianBlur stdDeviation="3"/>
<feComposite in2="hardAlpha" operator="out"/>
<feColorMatrix type="matrix" values="0 0 0 0 0 0 0 0 0 0 0 0 0 0 0 0 0 0 0.5 0"/>
<feBlend mode="normal" in2="BackgroundImageFix" result="effect1_dropShadow_466_1196"/>
<feBlend mode="normal" in="SourceGraphic" in2="effect1_dropShadow_466_1196" result="shape"/>
</filter>
<filter id="filter12_d_466_1196" x="84.9932" y="1004" width="130.007" height="175" filterUnits="userSpaceOnUse" color-interpolation-filters="sRGB">
<feFlood flood-opacity="0" result="BackgroundImageFix"/>
<feColorMatrix in="SourceAlpha" type="matrix" values="0 0 0 0 0 0 0 0 0 0 0 0 0 0 0 0 0 0 127 0" result="hardAlpha"/>
<feOffset dy="6"/>
<feGaussianBlur stdDeviation="3"/>
<feComposite in2="hardAlpha" operator="out"/>
<feColorMatrix type="matrix" values="0 0 0 0 0 0 0 0 0 0 0 0 0 0 0 0 0 0 0.4 0"/>
<feBlend mode="normal" in2="BackgroundImageFix" result="effect1_dropShadow_466_1196"/>
<feBlend mode="normal" in="SourceGraphic" in2="effect1_dropShadow_466_1196" result="shape"/>
</filter>
<filter id="filter13_d_466_1196" x="54" y="1017" width="634" height="181" filterUnits="userSpaceOnUse" color-interpolation-filters="sRGB">
<feFlood flood-opacity="0" result="BackgroundImageFix"/>
<feColorMatrix in="SourceAlpha" type="matrix" values="0 0 0 0 0 0 0 0 0 0 0 0 0 0 0 0 0 0 127 0" result="hardAlpha"/>
<feOffset dy="4"/>
<feGaussianBlur stdDeviation="2"/>
<feComposite in2="hardAlpha" operator="out"/>
<feColorMatrix type="matrix" values="0 0 0 0 0 0 0 0 0 0 0 0 0 0 0 0 0 0 0.25 0"/>
<feBlend mode="normal" in2="BackgroundImageFix" result="effect1_dropShadow_466_1196"/>
<feBlend mode="normal" in="SourceGraphic" in2="effect1_dropShadow_466_1196" result="shape"/>
</filter>
</defs>
</svg>
