<svg width="82" height="261" viewBox="0 0 82 261" fill="none" xmlns="http://www.w3.org/2000/svg">
<path d="M40.808 81.616C63.3456 81.616 81.616 63.3456 81.616 40.808C81.616 18.2704 63.3456 0 40.808 0C18.2704 0 0 18.2704 0 40.808C0 63.3456 18.2704 81.616 40.808 81.616Z" fill="#52B0F8"/>
<path d="M75.3949 25.5969C75.7961 24.8601 75.6328 23.7754 75.0348 23.1881L60.5835 9.00218C59.9855 8.41485 58.9511 8.3523 58.2875 8.86641L48.6508 16.308C47.9872 16.8205 46.9696 17.7374 46.3914 18.3445C46.3914 18.3445 43.1802 21.7175 41.3419 25.9356C38.7745 31.8272 39.194 38.1688 39.194 38.1688C39.2489 39.0064 39.9125 39.9918 40.6661 40.358C40.6661 40.358 46.5608 43.2275 51.7155 44.5456C57.6407 46.0619 65.125 46.2053 65.125 46.2053C65.964 46.2221 66.8107 45.5677 67.006 44.7515L68.2401 39.5937C68.4354 38.7775 68.9236 37.5068 69.3232 36.7699L75.3964 25.5969H75.3949Z" fill="#20D7C4"/>
<path d="M0.160187 38.6982C1.24637 45.4334 3.99232 49.7507 6.55979 49.7324C7.0983 49.7293 8.14939 49.531 9.4583 47.9017C11.3789 45.5112 12.8221 43.6165 12.967 43.3251C16.3125 36.6235 36.0682 26.4985 35.0872 19.2217C34.805 17.1256 32.6952 14.4819 24.7136 12.0517C21.9875 10.6741 19.2614 9.29659 16.5368 7.92056C7.12424 15.0021 0.829896 26.079 0.160187 38.6982Z" fill="#20D7C4"/>
<path d="M49.7034 78.5649C49.7187 79.404 49.1161 79.7869 48.3624 79.4162C48.3624 79.4162 44.7134 77.6206 41.7981 75.0547C39.612 73.1295 37.8363 70.7801 37.8363 70.7801C37.3298 70.1104 36.7699 68.893 36.5899 68.0723L33.7341 55.0351C33.5541 54.2159 33.7631 52.9573 34.1964 52.2388C34.1964 52.2388 36.4618 48.4875 37.8317 48.0527C39.7584 47.4395 41.2291 48.4326 45.7645 49.1206C47.9185 49.4471 49.4273 49.5127 49.4273 49.5127C50.2648 49.5493 51.1496 50.2358 51.3937 51.0382C51.3937 51.0382 51.5127 51.4333 51.8666 52.7819C52.8734 56.6171 53.444 58.7864 53.3921 60.8672C53.3128 64.1013 51.7857 64.9801 50.4936 68.4949C49.5615 71.0288 49.7019 78.5634 49.7019 78.5634L49.7034 78.5649Z" fill="#20D7C4"/>
<path d="M54.7666 71.3949C54.5012 72.2553 54.0725 72.9113 53.3936 73.9883L53.0382 74.5513C52.6461 75.0806 52.0939 74.867 51.8117 74.0783C51.8117 74.0783 51.7003 73.7656 51.7155 73.2271C51.74 72.3728 52.042 71.9441 52.1732 70.7862L52.2602 70.0174C52.2129 69.4331 52.6583 68.8854 53.2502 68.7985L53.8513 68.652L54.2327 68.559C54.611 68.443 54.9283 69.0334 54.939 69.8724C54.939 69.8724 54.9497 70.8076 54.7681 71.398L54.7666 71.3949Z" fill="#20D7C4"/>
<path d="M40.808 169.616C63.3456 169.616 81.616 151.346 81.616 128.808C81.616 106.27 63.3456 88 40.808 88C18.2704 88 0 106.27 0 128.808C0 151.346 18.2704 169.616 40.808 169.616Z" fill="#52B0F8"/>
<path d="M75.3949 113.597C75.7961 112.86 75.6328 111.775 75.0348 111.188L60.5835 97.0022C59.9855 96.4149 58.9511 96.3523 58.2875 96.8664L48.6508 104.308C47.9872 104.821 46.9696 105.737 46.3914 106.345C46.3914 106.345 43.1802 109.717 41.3419 113.936C38.7745 119.827 39.194 126.169 39.194 126.169C39.2489 127.006 39.9125 127.992 40.6661 128.358C40.6661 128.358 46.5608 131.228 51.7155 132.546C57.6407 134.062 65.125 134.205 65.125 134.205C65.964 134.222 66.8107 133.568 67.006 132.752L68.2401 127.594C68.4354 126.778 68.9236 125.507 69.3232 124.77L75.3964 113.597H75.3949Z" fill="#20D7C4"/>
<path d="M0.160187 126.698C1.24637 133.433 3.99232 137.751 6.55979 137.732C7.0983 137.729 8.14939 137.531 9.4583 135.902C11.3789 133.511 12.8221 131.617 12.967 131.325C16.3125 124.623 36.0682 114.498 35.0872 107.222C34.805 105.126 32.6952 102.482 24.7136 100.052C21.9875 98.6741 19.2614 97.2966 16.5368 95.9206C7.12424 103.002 0.829896 114.079 0.160187 126.698Z" fill="#20D7C4"/>
<path d="M49.7034 166.565C49.7187 167.404 49.1161 167.787 48.3624 167.416C48.3624 167.416 44.7134 165.621 41.7981 163.055C39.612 161.129 37.8363 158.78 37.8363 158.78C37.3298 158.11 36.7699 156.893 36.5899 156.072L33.7341 143.035C33.5541 142.216 33.7631 140.957 34.1964 140.239C34.1964 140.239 36.4618 136.488 37.8317 136.053C39.7584 135.439 41.2291 136.433 45.7645 137.121C47.9185 137.447 49.4273 137.513 49.4273 137.513C50.2648 137.549 51.1496 138.236 51.3937 139.038C51.3937 139.038 51.5127 139.433 51.8666 140.782C52.8734 144.617 53.444 146.786 53.3921 148.867C53.3128 152.101 51.7857 152.98 50.4936 156.495C49.5615 159.029 49.7019 166.563 49.7019 166.563L49.7034 166.565Z" fill="#20D7C4"/>
<path d="M54.7666 159.395C54.5012 160.255 54.0725 160.911 53.3936 161.988L53.0382 162.551C52.6461 163.081 52.0939 162.867 51.8117 162.078C51.8117 162.078 51.7003 161.766 51.7155 161.227C51.74 160.373 52.042 159.944 52.1732 158.786L52.2602 158.017C52.2129 157.433 52.6583 156.885 53.2502 156.798L53.8513 156.652L54.2327 156.559C54.611 156.443 54.9283 157.033 54.939 157.872C54.939 157.872 54.9497 158.808 54.7681 159.398L54.7666 159.395Z" fill="#20D7C4"/>
<path d="M40.808 260.616C63.3456 260.616 81.616 242.346 81.616 219.808C81.616 197.27 63.3456 179 40.808 179C18.2704 179 0 197.27 0 219.808C0 242.346 18.2704 260.616 40.808 260.616Z" fill="#52B0F8"/>
<path d="M75.3949 204.597C75.7961 203.86 75.6328 202.775 75.0348 202.188L60.5835 188.002C59.9855 187.415 58.9511 187.352 58.2875 187.866L48.6508 195.308C47.9872 195.821 46.9696 196.737 46.3914 197.345C46.3914 197.345 43.1802 200.717 41.3419 204.936C38.7745 210.827 39.194 217.169 39.194 217.169C39.2489 218.006 39.9125 218.992 40.6661 219.358C40.6661 219.358 46.5608 222.227 51.7155 223.546C57.6407 225.062 65.125 225.205 65.125 225.205C65.964 225.222 66.8107 224.568 67.006 223.752L68.2401 218.594C68.4354 217.778 68.9236 216.507 69.3232 215.77L75.3964 204.597H75.3949Z" fill="#20D7C4"/>
<path d="M0.160187 217.698C1.24637 224.433 3.99232 228.751 6.55979 228.732C7.0983 228.729 8.14939 228.531 9.4583 226.902C11.3789 224.511 12.8221 222.617 12.967 222.325C16.3125 215.623 36.0682 205.499 35.0872 198.222C34.805 196.126 32.6952 193.482 24.7136 191.052C21.9875 189.674 19.2614 188.297 16.5368 186.921C7.12424 194.002 0.829896 205.079 0.160187 217.698Z" fill="#20D7C4"/>
<path d="M49.7034 257.565C49.7187 258.404 49.1161 258.787 48.3624 258.416C48.3624 258.416 44.7134 256.621 41.7981 254.055C39.612 252.129 37.8363 249.78 37.8363 249.78C37.3298 249.11 36.7699 247.893 36.5899 247.072L33.7341 234.035C33.5541 233.216 33.7631 231.957 34.1964 231.239C34.1964 231.239 36.4618 227.488 37.8317 227.053C39.7584 226.439 41.2291 227.433 45.7645 228.121C47.9185 228.447 49.4273 228.513 49.4273 228.513C50.2648 228.549 51.1496 229.236 51.3937 230.038C51.3937 230.038 51.5127 230.433 51.8666 231.782C52.8734 235.617 53.444 237.786 53.3921 239.867C53.3128 243.101 51.7857 243.98 50.4936 247.495C49.5615 250.029 49.7019 257.563 49.7019 257.563L49.7034 257.565Z" fill="#20D7C4"/>
<path d="M54.7666 250.395C54.5012 251.255 54.0725 251.911 53.3936 252.988L53.0382 253.551C52.6461 254.081 52.0939 253.867 51.8117 253.078C51.8117 253.078 51.7003 252.766 51.7155 252.227C51.74 251.373 52.042 250.944 52.1732 249.786L52.2602 249.017C52.2129 248.433 52.6583 247.885 53.2502 247.798L53.8513 247.652L54.2327 247.559C54.611 247.443 54.9283 248.033 54.939 248.872C54.939 248.872 54.9497 249.808 54.7681 250.398L54.7666 250.395Z" fill="#20D7C4"/>
<path d="M7.79659 78.5272L3.5173 74.3215L73.6119 3L77.8911 7.20567L7.79659 78.5272Z" fill="#DD6E67"/>
<path d="M74.3215 77.46L78.5272 73.1807L7.20567 3.08613L3 7.36542L74.3215 77.46Z" fill="#DD6E67"/>
<path d="M7.79659 166.527L3.5173 162.321L73.6119 91L77.8911 95.2057L7.79659 166.527Z" fill="#DD6E67"/>
<path d="M74.3215 165.46L78.5272 161.181L7.20567 91.0861L3 95.3654L74.3215 165.46Z" fill="#DD6E67"/>
<path d="M7.79659 257.527L3.5173 253.321L73.6119 182L77.8911 186.206L7.79659 257.527Z" fill="#DD6E67"/>
<path d="M74.3215 256.46L78.5272 252.181L7.20567 182.086L3 186.365L74.3215 256.46Z" fill="#DD6E67"/>
</svg>
