<svg width="142" height="332" viewBox="0 0 142 332" fill="none" xmlns="http://www.w3.org/2000/svg">
<path d="M71.3697 113.739C94.7698 113.739 113.739 94.7698 113.739 71.3697C113.739 47.9695 94.7698 29 71.3697 29C47.9695 29 29 47.9695 29 71.3697C29 94.7698 47.9695 113.739 71.3697 113.739Z" fill="#52B0F8"/>
<path d="M107.28 55.5765C107.697 54.8114 107.527 53.6853 106.906 53.0755L91.9019 38.3467C91.281 37.7369 90.2071 37.6719 89.5181 38.2057L79.5126 45.932C78.8236 46.4642 77.7671 47.4162 77.1668 48.0466C77.1668 48.0466 73.8327 51.5486 71.924 55.9281C69.2583 62.0452 69.6939 68.6295 69.6939 68.6295C69.7509 69.4991 70.4399 70.5223 71.2224 70.9024C71.2224 70.9024 77.3426 73.8818 82.6946 75.2503C88.8466 76.8247 96.6172 76.9735 96.6172 76.9735C97.4884 76.991 98.3675 76.3115 98.5702 75.4641L99.8516 70.1089C100.054 69.2615 100.561 67.9421 100.976 67.177L107.282 55.5765H107.28Z" fill="#20D7C4"/>
<path d="M29.1663 69.1791C30.2941 76.1721 33.1451 80.6546 35.8108 80.6356C36.3699 80.6324 37.4613 80.4265 38.8203 78.7349C40.8144 76.2529 42.3128 74.2856 42.4633 73.9831C45.9368 67.025 66.4484 56.5126 65.43 48.9573C65.137 46.781 62.9464 44.0361 54.6594 41.5129C51.8289 40.0826 48.9985 38.6524 46.1696 37.2237C36.3969 44.5762 29.8617 56.077 29.1663 69.1791Z" fill="#20D7C4"/>
<path d="M80.6055 110.572C80.6213 111.443 79.9957 111.84 79.2132 111.455C79.2132 111.455 75.4245 109.591 72.3976 106.927C70.1279 104.928 68.2842 102.489 68.2842 102.489C67.7584 101.793 67.1771 100.529 66.9902 99.6773L64.0251 86.1412C63.8382 85.2907 64.0552 83.9839 64.505 83.2379C64.505 83.2379 66.8571 79.3431 68.2795 78.8917C70.2799 78.2549 71.8068 79.2861 76.5158 80.0004C78.7523 80.3394 80.3188 80.4075 80.3188 80.4075C81.1884 80.4455 82.107 81.1582 82.3605 81.9914C82.3605 81.9914 82.484 82.4016 82.8515 83.8018C83.8968 87.7837 84.4892 90.0361 84.4354 92.1965C84.353 95.5544 82.7675 96.4668 81.4259 100.116C80.4582 102.747 80.6039 110.57 80.6039 110.57L80.6055 110.572Z" fill="#20D7C4"/>
<path d="M85.8625 103.127C85.5869 104.02 85.1418 104.702 84.4369 105.82L84.0679 106.404C83.6608 106.954 83.0874 106.732 82.7944 105.913C82.7944 105.913 82.6788 105.589 82.6946 105.029C82.72 104.142 83.0336 103.697 83.1698 102.495L83.2601 101.697C83.211 101.09 83.6735 100.522 84.2881 100.431L84.9121 100.279L85.3081 100.183C85.7009 100.062 86.0303 100.675 86.0414 101.546C86.0414 101.546 86.0525 102.517 85.864 103.13L85.8625 103.127Z" fill="#20D7C4"/>
<path  fill-rule="evenodd" clip-rule="evenodd" d="M104.158 107.974L108.401 103.732L74.8897 70.2207L107.911 37.1999L103.668 32.9572L70.6471 65.9781L37.6898 33.0208L33.4472 37.2635L66.4044 70.2207L32.9572 103.668L37.1999 107.911L70.6471 74.4633L104.158 107.974Z" fill="#DD6E67"/>
<path d="M71.3697 208.739C94.7698 208.739 113.739 189.77 113.739 166.37C113.739 142.97 94.7698 124 71.3697 124C47.9695 124 29 142.97 29 166.37C29 189.77 47.9695 208.739 71.3697 208.739Z" fill="#52B0F8"/>
<path d="M107.28 150.576C107.697 149.811 107.527 148.685 106.906 148.075L91.9019 133.347C91.281 132.737 90.2071 132.672 89.5181 133.206L79.5126 140.932C78.8236 141.464 77.7671 142.416 77.1668 143.047C77.1668 143.047 73.8327 146.549 71.924 150.928C69.2583 157.045 69.6939 163.629 69.6939 163.629C69.7509 164.499 70.4399 165.522 71.2224 165.902C71.2224 165.902 77.3426 168.882 82.6946 170.25C88.8466 171.825 96.6172 171.974 96.6172 171.974C97.4884 171.991 98.3675 171.311 98.5702 170.464L99.8516 165.109C100.054 164.261 100.561 162.942 100.976 162.177L107.282 150.576H107.28Z" fill="#20D7C4"/>
<path d="M29.1663 164.179C30.2941 171.172 33.1451 175.655 35.8108 175.636C36.3699 175.632 37.4613 175.426 38.8203 173.735C40.8144 171.253 42.3128 169.286 42.4633 168.983C45.9368 162.025 66.4484 151.513 65.43 143.957C65.137 141.781 62.9464 139.036 54.6594 136.513C51.8289 135.083 48.9985 133.652 46.1696 132.224C36.3969 139.576 29.8617 151.077 29.1663 164.179Z" fill="#20D7C4"/>
<path d="M80.6055 205.572C80.6213 206.443 79.9957 206.84 79.2132 206.455C79.2132 206.455 75.4245 204.591 72.3976 201.927C70.1279 199.928 68.2842 197.489 68.2842 197.489C67.7584 196.793 67.1771 195.529 66.9902 194.677L64.0251 181.141C63.8382 180.291 64.0552 178.984 64.505 178.238C64.505 178.238 66.8571 174.343 68.2795 173.892C70.2799 173.255 71.8068 174.286 76.5158 175C78.7523 175.339 80.3188 175.407 80.3188 175.407C81.1884 175.445 82.107 176.158 82.3605 176.991C82.3605 176.991 82.484 177.402 82.8515 178.802C83.8968 182.784 84.4892 185.036 84.4354 187.197C84.353 190.554 82.7675 191.467 81.4259 195.116C80.4582 197.747 80.6039 205.57 80.6039 205.57L80.6055 205.572Z" fill="#20D7C4"/>
<path d="M85.8625 198.127C85.5869 199.02 85.1418 199.702 84.4369 200.82L84.0679 201.404C83.6608 201.954 83.0874 201.732 82.7944 200.913C82.7944 200.913 82.6788 200.589 82.6946 200.029C82.72 199.142 83.0336 198.697 83.1698 197.495L83.2601 196.697C83.211 196.09 83.6735 195.522 84.2881 195.431L84.9121 195.279L85.3081 195.183C85.7009 195.062 86.0303 195.675 86.0414 196.546C86.0414 196.546 86.0525 197.517 85.864 198.13L85.8625 198.127Z" fill="#20D7C4"/>
<path fill-rule="evenodd" clip-rule="evenodd" d="M104.158 202.974L108.401 198.732L74.8897 165.221L107.911 132.2L103.668 127.957L70.6471 160.978L37.6898 128.021L33.4472 132.263L66.4044 165.221L32.9572 198.668L37.1999 202.911L70.6471 169.463L104.158 202.974Z" fill="#DD6E67"/>
<path d="M71.3697 303.739C94.7698 303.739 113.739 284.77 113.739 261.37C113.739 237.97 94.7698 219 71.3697 219C47.9695 219 29 237.97 29 261.37C29 284.77 47.9695 303.739 71.3697 303.739Z" fill="#52B0F8"/>
<path d="M107.28 245.576C107.697 244.811 107.527 243.685 106.906 243.075L91.9019 228.347C91.281 227.737 90.2071 227.672 89.5181 228.206L79.5126 235.932C78.8236 236.464 77.7671 237.416 77.1668 238.047C77.1668 238.047 73.8327 241.549 71.924 245.928C69.2583 252.045 69.6939 258.629 69.6939 258.629C69.7509 259.499 70.4399 260.522 71.2224 260.902C71.2224 260.902 77.3426 263.882 82.6946 265.25C88.8466 266.825 96.6172 266.974 96.6172 266.974C97.4884 266.991 98.3675 266.311 98.5702 265.464L99.8516 260.109C100.054 259.261 100.561 257.942 100.976 257.177L107.282 245.576H107.28Z" fill="#20D7C4"/>
<path d="M29.1663 259.179C30.2941 266.172 33.1451 270.655 35.8108 270.636C36.3699 270.632 37.4613 270.426 38.8203 268.735C40.8144 266.253 42.3128 264.286 42.4633 263.983C45.9368 257.025 66.4484 246.513 65.43 238.957C65.137 236.781 62.9464 234.036 54.6594 231.513C51.8289 230.083 48.9985 228.652 46.1696 227.224C36.3969 234.576 29.8617 246.077 29.1663 259.179Z" fill="#20D7C4"/>
<path d="M80.6055 300.572C80.6213 301.443 79.9957 301.84 79.2132 301.455C79.2132 301.455 75.4245 299.591 72.3976 296.927C70.1279 294.928 68.2842 292.489 68.2842 292.489C67.7584 291.793 67.1771 290.529 66.9902 289.677L64.0251 276.141C63.8382 275.291 64.0552 273.984 64.505 273.238C64.505 273.238 66.8571 269.343 68.2795 268.892C70.2799 268.255 71.8068 269.286 76.5158 270C78.7523 270.339 80.3188 270.407 80.3188 270.407C81.1884 270.445 82.107 271.158 82.3605 271.991C82.3605 271.991 82.484 272.402 82.8515 273.802C83.8968 277.784 84.4892 280.036 84.4354 282.197C84.353 285.554 82.7675 286.467 81.4259 290.116C80.4582 292.747 80.6039 300.57 80.6039 300.57L80.6055 300.572Z" fill="#20D7C4"/>
<path d="M85.8625 293.127C85.5869 294.02 85.1418 294.702 84.4369 295.82L84.0679 296.404C83.6608 296.954 83.0874 296.732 82.7944 295.913C82.7944 295.913 82.6788 295.589 82.6946 295.029C82.72 294.142 83.0336 293.697 83.1698 292.495L83.2601 291.697C83.211 291.09 83.6735 290.522 84.2881 290.431L84.9121 290.279L85.3081 290.183C85.7009 290.062 86.0303 290.675 86.0414 291.546C86.0414 291.546 86.0525 292.517 85.864 293.13L85.8625 293.127Z" fill="#20D7C4"/>
<path fill-rule="evenodd" clip-rule="evenodd" d="M104.158 297.974L108.401 293.732L74.8897 260.221L107.911 227.2L103.668 222.957L70.6471 255.978L37.6898 223.021L33.4472 227.263L66.4044 260.221L32.9572 293.668L37.1999 297.911L70.6471 264.463L104.158 297.974Z" fill="#DD6E67"/>
</svg>
